SplineFontDB: 3.0
FontName: PomorskyUnicode
FullName: Pomorsky Unicode
FamilyName: Pomorsky Unicode
Weight: Medium
Copyright: Created by Nikita Simmons, 1999. Revised and re-encoded for Unicode, 2015.
Version: 001.000
ItalicAngle: 0
UnderlinePosition: -113
UnderlineWidth: 20
Ascent: 800
Descent: 200
sfntRevision: 0x00010000
LayerCount: 3
Layer: 0 0 "Back"  1
Layer: 1 0 "Fore"  0
Layer: 2 1 "TTFLayer"  0
XUID: [1021 275 2047955494 4269330]
UniqueID: 4247862
FSType: 0
OS2Version: 2
OS2_WeightWidthSlopeOnly: 0
OS2_UseTypoMetrics: 1
CreationTime: 1304750996
ModificationTime: 1466975886
PfmFamily: 17
TTFWeight: 500
TTFWidth: 5
LineGap: 25
VLineGap: 0
Panose: 4 0 6 6 6 0 0 2 0 4
OS2TypoAscent: -90
OS2TypoAOffset: 1
OS2TypoDescent: -90
OS2TypoDOffset: 1
OS2TypoLinegap: 25
OS2WinAscent: -90
OS2WinAOffset: 1
OS2WinDescent: -90
OS2WinDOffset: 1
HheadAscent: -90
HheadAOffset: 1
HheadDescent: -90
HheadDOffset: 1
OS2SubXSize: 700
OS2SubYSize: 650
OS2SubXOff: 0
OS2SubYOff: 140
OS2SupXSize: 700
OS2SupYSize: 650
OS2SupXOff: 0
OS2SupYOff: 477
OS2StrikeYSize: 50
OS2StrikeYPos: 250
OS2Vendor: 'pyrs'
OS2CodePages: 00000001.00000000
OS2UnicodeRanges: 00000001.00000000.00000000.00000000
Lookup: 4 0 0 "'ccmp' Canonical Compositions"  {"'ccmp' Canonical Compositions-1"  } ['ccmp' ('DFLT' <'dflt' > 'cyrl' <'dflt' > 'latn' <'dflt' > ) ]
Lookup: 4 0 0 "'ccmp' Precomposed Glyphs for Cyrillic"  {"'ccmp' Precomposed Glyphs for Cyrillic-1"  } ['ccmp' ('DFLT' <'dflt' > 'cyrl' <'dflt' > 'latn' <'dflt' > ) ]
Lookup: 1 0 0 "'ss01' Style Set Simple Forms"  {"'ss01' Style Set Simple Forms-1" ("simple" ) } ['ss01' ('DFLT' <'dflt' > 'cyrl' <'dflt' > 'latn' <'dflt' > ) ]
Lookup: 3 0 0 "'salt' Stylistic Alternatives lookup 1"  {"'salt' Stylistic Alternatives lookup 1-1"  } ['salt' ('DFLT' <'dflt' > 'cyrl' <'dflt' > 'latn' <'dflt' > ) ]
Lookup: 258 8 0 "'kern' Horizontal Kerning lookup 2"  {"'kern' Horizontal Kerning lookup 2-1" [150,0,2] } ['kern' ('DFLT' <'dflt' > 'cyrl' <'dflt' > 'latn' <'dflt' > ) ]

StartChar: .notdef
Encoding: 1114112 -1 0
Width: 427
Flags: W
HStem: 0 19<29 398> 748 22<29 398>
VStem: 0 22<34 733> 405 22<34 733>
DStem2: 29 748 22 733 0.465951 -0.884811<10.0105 395.419 421.078 806.952> 22 34 29 19 0.465951 0.884811<0 385.408 411.068 796.942>
LayerCount: 3
Fore
SplineSet
0 770 m 1
 427 770 l 1
 427 0 l 1
 0 0 l 1
 0 770 l 1
29 748 m 1
 213 398 l 1
 398 748 l 1
 29 748 l 1
398 19 m 1
 213 369 l 1
 29 19 l 1
 398 19 l 1
221 383 m 1
 405 34 l 1
 405 733 l 1
 221 383 l 1
22 733 m 1
 22 34 l 1
 206 383 l 1
 22 733 l 1
EndSplineSet
Validated: 1
Layer: 2
SplineSet
0 770 m 1,0,-1
 427 770 l 1,1,-1
 427 0 l 1,2,-1
 0 0 l 1,3,-1
 0 770 l 1,0,-1
29 748 m 1,4,-1
 213 398 l 1,5,-1
 398 748 l 1,6,-1
 29 748 l 1,4,-1
398 19 m 1,7,-1
 213 369 l 1,8,-1
 29 19 l 1,9,-1
 398 19 l 1,7,-1
221 383 m 1,10,-1
 405 34 l 1,11,-1
 405 733 l 1,12,-1
 221 383 l 1,10,-1
22 733 m 1,13,-1
 22 34 l 1,14,-1
 206 383 l 1,15,-1
 22 733 l 1,13,-1
EndSplineSet
Validated: 19457
Colour: ff00
EndChar

StartChar: comma
Encoding: 44 44 1
Width: 250
Flags: W
HStem: 0 6<150 166.066 186 201> 72 13<123.737 167.238>
VStem: 175.5 26.5<13.8125 64.7808>
LayerCount: 3
Fore
SplineSet
49 4 m 1
 48 5 48 6 48 8 c 0
 48 27 98 85 159 85 c 0
 192 85 202 70 202 53 c 0
 202 31 186 6 186 6 c 1
 201 6 l 1
 201 0 l 1
 150 0 l 1
 150 6 l 1
 165 6 l 1
 165 6 176 27 176 45 c 0
 176 59 169 72 147 72 c 0
 100 72 49 4 49 4 c 1
EndSplineSet
Validated: 1
Layer: 2
SplineSet
161 85 m 0,0,1
 202 85 202 85 202 50 c 0,2,3
 202 38 202 38 196 26 c 2,4,-1
 186 6 l 1,5,-1
 201 6 l 1,6,-1
 201 0 l 1,7,-1
 150 0 l 1,8,-1
 150 6 l 1,9,-1
 165 6 l 1,10,11
 166 9 166 9 168 13.5 c 128,-1,12
 170 18 170 18 173 29 c 128,-1,13
 176 40 176 40 175.5 49 c 128,-1,14
 175 58 175 58 168 65 c 128,-1,15
 161 72 161 72 143.5 72 c 128,-1,16
 126 72 126 72 101.5 55 c 128,-1,17
 77 38 77 38 63 21 c 2,18,-1
 49 4 l 1,19,20
 47 6 47 6 47 11 c 128,-1,21
 47 16 47 16 58.5 32.5 c 128,-1,22
 70 49 70 49 99.5 67 c 128,-1,23
 129 85 129 85 161 85 c 0,0,1
EndSplineSet
Validated: 19457
Colour: ff00
EndChar

StartChar: hyphen
Encoding: 45 45 2
Width: 400
Flags: W
HStem: 224 16<68.3378 136.617> 230 46<314.027 353.875> 281 47<41.1406 80.8848> 316 16<258.365 326.051>
VStem: 22 19<262.031 285.812> 354 20<271.309 285>
LayerCount: 3
Fore
SplineSet
286 332 m 0x9c
 329 332 373 306 373 270 c 0
 373 245 357 230 340 230 c 0
 326 230 314 238 314 252 c 0
 314 270 326 277 333 277 c 0
 344 277 354 270 354 270 c 1
 354 271 354 273 354 274 c 0
 354 297 319 316 290 316 c 0x5c
 282 316 275 314 269 312 c 0
 208 289 171 224 109 224 c 0
 66 224 22 250 22 287 c 0
 22 312 38 327 55 327 c 0
 69 327 81 318 81 305 c 0
 81 286 69 279 61 279 c 0xac
 51 279 41 286 41 286 c 1
 41 285 41 283 41 282 c 0
 41 259 76 240 105 240 c 0
 113 240 120 242 126 244 c 0
 183 265 223 332 286 332 c 0x9c
EndSplineSet
Validated: 1
Layer: 2
SplineSet
22 280 m 0,0,1
 22 328 22 328 51.5 328 c 128,-1,2
 81 328 81 328 81 306.5 c 128,-1,3
 81 285 81 285 70 281 c 0,4,5
 59 276 59 276 50 281 c 2,6,-1
 41 286 l 1,7,-1
 41 281 l 1,8,9
 46 261 46 261 64 250 c 0,10,11
 82 240 82 240 99 240 c 128,-1,12
 116 240 116 240 132.5 246 c 128,-1,13
 149 252 149 252 180 278 c 0,14,15
 244 332 244 332 285 332 c 128,-1,16
 326 332 326 332 358 304 c 0,17,18
 374 290 374 290 374 277 c 0,19,20
 374 230 374 230 342 230 c 0,21,22
 314 230 314 230 314 253 c 0,23,24
 314 272 314 272 326 276 c 128,-1,25
 338 280 338 280 346 275 c 2,26,-1
 354 270 l 1,27,-1
 354 275 l 2,28,29
 354 275 354 275 351 285 c 128,-1,30
 348 295 348 295 330 306 c 0,31,32
 312 316 312 316 295.5 316 c 128,-1,33
 279 316 279 316 262.5 310 c 128,-1,34
 246 304 246 304 212 276 c 0,35,36
 148 224 148 224 107 224 c 128,-1,37
 66 224 66 224 36 252 c 0,38,39
 22 265 22 265 22 280 c 0,0,1
EndSplineSet
Validated: 19457
Colour: ff00
EndChar

StartChar: period
Encoding: 46 46 3
Width: 250
Flags: W
HStem: 0 85<94.8918 154.593>
VStem: 82 86<12.8918 79.0918>
LayerCount: 3
Fore
SplineSet
82 42 m 0
 82 66 103 85 125 85 c 0
 149 85 168 64 168 42 c 0
 168 18 147 0 125 0 c 0
 101 0 82 20 82 42 c 0
EndSplineSet
Validated: 1
Layer: 2
SplineSet
94.5 12.5 m 128,-1,1
 82 25 82 25 82 42.5 c 128,-1,2
 82 60 82 60 95 72.5 c 128,-1,3
 108 85 108 85 125.5 85 c 128,-1,4
 143 85 143 85 155.5 72 c 128,-1,5
 168 59 168 59 168 41.5 c 128,-1,6
 168 24 168 24 155 12 c 128,-1,7
 142 0 142 0 124.5 0 c 128,-1,0
 107 0 107 0 94.5 12.5 c 128,-1,1
EndSplineSet
Validated: 19457
Colour: ff00
EndChar

StartChar: colon
Encoding: 58 58 4
Width: 250
Flags: W
HStem: 0 85<94.8918 154.593> 161 86<87.9082 162.092>
VStem: 82 86<12.8918 79.0918 166.908 241.092>
LayerCount: 3
Fore
SplineSet
82 204 m 0
 82 228 103 247 125 247 c 0
 149 247 168 226 168 204 c 0
 168 180 147 161 125 161 c 0
 101 161 82 182 82 204 c 0
82 42 m 0
 82 66 103 85 125 85 c 0
 149 85 168 64 168 42 c 0
 168 18 147 -1 125 -1 c 0
 101 -1 82 20 82 42 c 0
EndSplineSet
Validated: 1
Layer: 2
SplineSet
94.5 174 m 128,-1,1
 82 187 82 187 82 204.5 c 128,-1,2
 82 222 82 222 95 234.5 c 128,-1,3
 108 247 108 247 125.5 247 c 128,-1,4
 143 247 143 247 155.5 234 c 128,-1,5
 168 221 168 221 168 203.5 c 128,-1,6
 168 186 168 186 155 173.5 c 128,-1,7
 142 161 142 161 124.5 161 c 128,-1,0
 107 161 107 161 94.5 174 c 128,-1,1
94.5 12.5 m 128,-1,9
 82 25 82 25 82 42.5 c 128,-1,10
 82 60 82 60 95 72.5 c 128,-1,11
 108 85 108 85 125.5 85 c 128,-1,12
 143 85 143 85 155.5 72 c 128,-1,13
 168 59 168 59 168 41.5 c 128,-1,14
 168 24 168 24 155 12 c 128,-1,15
 142 0 142 0 124.5 0 c 128,-1,8
 107 0 107 0 94.5 12.5 c 128,-1,9
EndSplineSet
Validated: 19457
Colour: ff00
EndChar

StartChar: semicolon
Encoding: 59 59 5
Width: 250
Flags: W
HStem: 0 6<150 166.332 186 201> 72 13<122.215 167.898> 161 86<97.9082 171.82>
VStem: 92 86<166.908 240.82> 176 26<11.9321 68.6392>
LayerCount: 3
Fore
SplineSet
49 4 m 1xe8
 48 5 48 6 48 8 c 0
 48 27 98 85 159 85 c 0
 192 85 202 70 202 53 c 0
 202 31 186 6 186 6 c 1
 201 6 l 1
 201 0 l 1
 150 0 l 1
 150 6 l 1
 165 6 l 1
 165 6 176 27 176 45 c 0
 176 59 169 72 147 72 c 0
 100 72 49 4 49 4 c 1xe8
136 247 m 0
 159 247 178 225 178 204 c 0
 178 180 157 161 135 161 c 0
 111 161 92 182 92 204 c 0xf0
 92 228 114 247 136 247 c 0
EndSplineSet
Validated: 1
Layer: 2
SplineSet
202 53 m 0,0,1
 202 34 202 34 186 6 c 1,2,-1
 201 6 l 1,3,-1
 201 0 l 1,4,-1
 150 0 l 1,5,-1
 150 6 l 1,6,-1
 165 6 l 1,7,8
 176 27 176 27 176 45 c 0,9,10
 176 72 176 72 147 72 c 0,11,12
 126 72 126 72 101.5 55 c 128,-1,13
 77 38 77 38 63 21 c 2,14,-1
 49 4 l 1,15,16
 48 5 48 5 48 8 c 0,17,18
 48 26 48 26 83 55.5 c 128,-1,19
 118 85 118 85 160 85 c 128,-1,20
 202 85 202 85 202 53 c 0,0,1
136 247 m 128,-1,22
 153 247 153 247 165.5 233.5 c 128,-1,23
 178 220 178 220 178 203 c 128,-1,24
 178 186 178 186 165 173.5 c 128,-1,25
 152 161 152 161 134.5 161 c 128,-1,26
 117 161 117 161 104.5 174 c 128,-1,27
 92 187 92 187 92 204.5 c 128,-1,28
 92 222 92 222 105.5 234.5 c 128,-1,21
 119 247 119 247 136 247 c 128,-1,22
EndSplineSet
Validated: 19457
Colour: ff00
EndChar

StartChar: question
Encoding: 63 63 6
Width: 250
Flags: W
HStem: 0 85<93.3477 156.652> 162 21<104.493 132> 528 20<116.206 142.747>
VStem: 63 19<215.406 287.161> 70 54<483.65 527.75> 82 86<13.923 70.5615> 123 56<183.281 217.688> 165 19<420.61 497.773>
LayerCount: 3
Fore
SplineSet
115 548 m 0xe9
 155 548 184 501 184 454 c 0xe9
 184 384 109 340 86 276 c 0
 84 270 83 262 83 255 c 0
 83 222 103 183 128 183 c 0
 130 183 131 183 132 183 c 1
 132 183 124 194 124 205 c 0
 124 214 132 227 153 227 c 0
 169 227 178 213 178 199 c 0
 178 180 160 163 132 163 c 0
 93 163 63 210 63 257 c 0xf2
 63 325 135 366 162 435 c 0
 164 441 165 449 165 456 c 0
 165 489 145 528 120 528 c 0
 118 528 117 528 116 528 c 1
 116 528 124 517 124 505 c 0
 124 496 116 484 96 484 c 0
 80 484 71 497 71 512 c 0
 71 531 88 548 115 548 c 0xe9
168 42 m 0xe4
 168 18 147 0 125 0 c 0
 101 0 82 20 82 42 c 0
 82 66 103 85 125 85 c 0
 149 85 168 64 168 42 c 0xe4
EndSplineSet
Validated: 1
Layer: 2
SplineSet
116 528 m 1,0,1
 124 520 124 520 124 510 c 0,2,3
 124 501 124 501 120 492 c 128,-1,4
 116 483 116 483 97 483 c 0,5,6
 81 483 81 483 72 505 c 0,7,8
 70 511 70 511 70 515 c 0,9,10
 72 533 72 533 86 540 c 0,11,12
 101 548 101 548 119 548 c 0,13,14
 136 548 136 548 155 529 c 0,15,16
 184 500 184 500 184 446 c 0,17,18
 184 409 184 409 133 348 c 128,-1,19
 82 287 82 287 82 255 c 0,20,21
 82 235 82 235 94 209 c 128,-1,22
 106 183 106 183 127 183 c 0,23,24
 129 183 129 183 132 183 c 1,25,26
 123 192 123 192 123 200 c 128,-1,27
 123 208 123 208 128 218 c 128,-1,28
 133 228 133 228 152 228 c 0,29,30
 153 229 153 229 154 229 c 0,31,32
 163 224 163 224 178 206 c 1,33,34
 179 201 179 201 179 196 c 0,35,36
 179 180 179 180 163 171 c 128,-1,37
 147 162 147 162 132 162 c 0,38,39
 130 162 130 162 129 162 c 0,40,41
 110 162 110 162 92 181 c 0,42,43
 63 211 63 211 63 252 c 0,44,45
 63 254 63 254 63 255 c 0,46,47
 63 299 63 299 96 338 c 0,48,49
 148 399 148 399 160 430 c 0,50,51
 165 443 165 443 165 460 c 128,-1,52
 165 477 165 477 156 497 c 0,53,54
 142 528 142 528 124 528 c 0,55,56
 123 528 123 528 121 528 c 0,57,58
 118 528 118 528 116 528 c 1,0,1
168 45 m 128,-1,60
 168 27 168 27 157 13.5 c 128,-1,61
 146 0 146 0 119 0 c 0,62,63
 110 0 110 0 96 10.5 c 128,-1,64
 82 21 82 21 82 39 c 128,-1,65
 82 57 82 57 93 71 c 128,-1,66
 104 85 104 85 131 85 c 0,67,68
 140 85 140 85 154 74 c 128,-1,59
 168 63 168 63 168 45 c 128,-1,60
EndSplineSet
Validated: 3073
Colour: ff00
EndChar

StartChar: uni0470
Encoding: 1136 1136 9
Width: 580
Flags: W
HStem: -192 13<143.031 194.387> -152.5 45.5<131.529 168.81> 0 12<100 126 202 238 255 319 343 378> 425 3<464.124 467.841> 461 49<521.25 556.626> 538 12<0 26 102 128 480.62 540.365> 599 45.5<354.19 391.471> 671 11<327.809 377.983>
VStem: 117 52<-152.241 -107.609> 238 64<109.511 406.722> 238 35<-77.1016 -57.4355 -56.5342 -40.3203 332.937 502.562> 238 17<-135.735 -71.375 -43.418 0 12 93 502 588.344> 354 52<599.594 644.358> 558 12<502 522.344>
DStem2: 102 538 26 538 0.186769 -0.982404<0 521.227> 319 12 343 12 0.161364 0.986895<3.87274 24.0947 383.659 480.233>
AnchorPoint: "Yerok" 512.5 584.6 basechar 0
AnchorPoint: "Diacritic" 266 698 basechar 0
LayerCount: 3
Fore
SplineSet
225 -58 m 0xff34
 225 -49 230 -42 238 -39 c 1
 238 0 l 1
 100 0 l 1
 100 12 l 1
 126 12 l 1
 26 538 l 1
 0 538 l 1
 0 550 l 1
 128 550 l 1
 128 538 l 1
 102 538 l 1
 202 12 l 1
 238 12 l 1
 238 545 l 2
 238 645 309 676 338 681 c 0
 343 682 349 682 354 682 c 0
 384 682 406 665 406 637 c 0
 406 612 392 599 378 599 c 0
 365 599 353 608 353 621 c 0
 353 640 366 646 375 646 c 0
 384 646 392 642 392 642 c 1
 392 665 366 671 353 671 c 0
 350 671 348 671 347 671 c 0
 294 662 255 628 255 502 c 1xff34
 256 502 258 523 273 536 c 0
 283 545 300 552 311 552 c 0
 314 552 316 551 318 550 c 0
 318 549 273 533 273 475 c 0xff50
 273 427 302 290 302 192 c 0xff90
 302 174 301 158 299 143 c 0
 292 97 268 93 259 93 c 2
 255 93 l 1
 255 12 l 1
 319 12 l 1
 388 434 l 2
 404 532 481 550 510 550 c 0
 546 550 570 532 570 504 c 0
 570 499 569 493 567 487 c 0
 561 469 550 462 540 462 c 0
 526 462 514 473 514 485 c 0xff38
 514 502 528 510 536 510 c 0
 547 510 557 502 557 502 c 1
 557 504 557 506 557 507 c 0
 557 530 527 539 518 539 c 0
 464 539 397 500 397 388 c 1
 398 388 404 409 421 419 c 0
 431 425 445 428 455 428 c 0
 459 428 468 427 468 425 c 0
 468 424 429 421 412 366 c 0
 407 351 407 323 407 289 c 0
 407 281 407 273 407 265 c 0
 407 204 406 131 387 76 c 0
 373 37 358 31 350 31 c 0
 348 31 346 32 346 32 c 1
 343 12 l 1
 378 12 l 1
 378 0 l 1
 255 0 l 1
 255 -40 l 1
 261 -43 266 -52 266 -59 c 0
 266 -68 261 -75 254 -78 c 1
 254 -161 228 -176 185 -189 c 0
 178 -191 172 -192 165 -192 c 0
 137 -192 117 -172 117 -145 c 0
 117 -120 131 -107 145 -107 c 0
 158 -107 170 -116 170 -129 c 0
 170 -148 157 -154 148 -154 c 0
 139 -154 131 -150 131 -150 c 1
 131 -173 157 -179 170 -179 c 0
 173 -179 175 -179 176 -179 c 0
 217 -169 237 -150 237 -77 c 1
 230 -74 225 -67 225 -58 c 0xff34
EndSplineSet
Validated: 1
Layer: 2
SplineSet
117 -146 m 0,0,1
 117 -107 117 -107 145 -107 c 0,2,3
 163 -107 163 -107 169 -123 c 0,4,5
 171 -128 171 -128 169 -138 c 128,-1,6
 167 -148 167 -148 157.5 -152.5 c 128,-1,7
 148 -157 148 -157 131 -150 c 1,8,9
 130 -168 130 -168 147 -174.5 c 128,-1,10
 164 -181 164 -181 176 -179 c 0,11,12
 209 -171 209 -171 223 -150 c 128,-1,13
 237 -129 237 -129 237 -77 c 1,14,15
 225 -71 225 -71 225 -57 c 0,16,17
 225 -42 225 -42 238 -39 c 1,18,-1
 238 0 l 1,19,-1
 100 0 l 1,20,-1
 100 12 l 1,21,-1
 126 12 l 1,22,-1
 26 538 l 1,23,-1
 0 538 l 1,24,-1
 0 550 l 1,25,-1
 128 550 l 1,26,-1
 128 538 l 1,27,-1
 102 538 l 1,28,-1
 202 12 l 1,29,-1
 238 12 l 1,30,-1
 238 545 l 2,31,32
 238 609 238 609 275 646 c 0,33,34
 311 682 311 682 354 682 c 0,35,36
 374 682 374 682 390 671 c 128,-1,37
 406 660 406 660 406 639 c 0,38,39
 406 638 406 638 406 637 c 0,40,41
 406 599 406 599 378 599 c 0,42,43
 360 599 360 599 354 615 c 0,44,45
 352 620 352 620 354 630 c 128,-1,46
 356 640 356 640 365.5 644.5 c 128,-1,47
 375 649 375 649 392 642 c 1,48,49
 393 660 393 660 376 666.5 c 128,-1,50
 359 673 359 673 347 671 c 0,51,52
 302 663 302 663 278.5 626.5 c 128,-1,53
 255 590 255 590 255 502 c 1,54,55
 262 526 262 526 272.5 535.5 c 128,-1,56
 283 545 283 545 297.5 549.5 c 128,-1,57
 312 554 312 554 318 550 c 1,58,59
 273 527 273 527 273 481 c 0,60,61
 273 457 273 457 287 356 c 0,62,63
 302 248 302 248 302 187 c 0,64,65
 302 125 302 125 287.5 109 c 128,-1,66
 273 93 273 93 264 93 c 2,67,-1
 255 93 l 1,68,-1
 255 12 l 1,69,-1
 319 12 l 1,70,-1
 388 434 l 2,71,72
 395 479 395 479 420 507 c 0,73,74
 460 550 460 550 510 550 c 0,75,76
 544 550 544 550 557 535 c 128,-1,77
 570 520 570 520 570 508 c 0,78,79
 570 494 570 494 567 485 c 0,80,81
 559 461 559 461 542 461 c 0,82,83
 539 461 539 461 536 462 c 0,84,85
 515 469 515 469 514 484 c 0,86,87
 513 497 513 497 521 503.5 c 128,-1,88
 529 510 529 510 537 510 c 128,-1,89
 545 510 545 510 557 502 c 1,90,91
 558 506 558 506 558 508 c 0,92,93
 555 523 555 523 544 530 c 0,94,95
 530 539 530 539 518 539 c 0,96,97
 472 539 472 539 438 502.5 c 128,-1,98
 404 466 404 466 397 388 c 1,99,100
 408 413 408 413 421 419 c 1,101,102
 432 426 432 426 447.5 428 c 128,-1,103
 463 430 463 430 468 425 c 1,104,105
 426 413 426 413 412 366 c 0,106,107
 408 352 408 352 407 242 c 0,108,109
 406 80 406 80 368 41 c 0,110,111
 358 30 358 30 352 31 c 2,112,-1
 346 32 l 1,113,-1
 343 12 l 1,114,-1
 378 12 l 1,115,-1
 378 0 l 1,116,-1
 255 0 l 1,117,-1
 255 -40 l 1,118,119
 266 -45 266 -45 267 -58 c 0,120,121
 267 -71 267 -71 254 -78 c 1,122,123
 254 -135 254 -135 238 -156 c 0,124,125
 223 -176 223 -176 188 -188 c 0,126,127
 176 -192 176 -192 162 -192 c 0,128,129
 147 -192 147 -192 132 -180.5 c 128,-1,130
 117 -169 117 -169 117 -146 c 0,0,1
EndSplineSet
Validated: 3073
Substitution2: "'ss01' Style Set Simple Forms-1" uni0470.simple
Colour: ff00
EndChar

StartChar: uni0405.simple
Encoding: 62725 62725 10
Width: 480
GlyphClass: 2
Flags: W
HStem: -90 18<17.4178 38> -8 14<262.406 326.316> 57 27<98.8759 181> 427 12<342 368 444 470> 529 21<205.333 316.825>
VStem: -6 14<-59.88 -12.5> 36 43<-71.812 -42.0046> 75 63<325.957 477.451> 368 76<439 499.893> 394 71<59.8657 210.234>
DStem2: 36 -3 40 -21 0.20601 0.97855<-16.5703 19.1503>
AnchorPoint: "Yerok" 415 572 basechar 0
AnchorPoint: "Diacritic" 259 575 basechar 0
LayerCount: 3
Fore
SplineSet
288 6 m 0xfe40
 359 6 394 70 394 131 c 0xfe40
 394 188 365 244 308 252 c 0
 244 261 233 250 164 277 c 0
 111 298 75 327 75 402 c 0
 75 409 75 419 76 427 c 0
 84 519 177 550 257 550 c 0
 423 550 444 481 444 439 c 1
 470 439 l 1
 470 427 l 1
 342 427 l 1
 342 439 l 1
 368 439 l 1
 368 499 329 529 257 529 c 0
 177 529 138 465 138 402 c 0xfd80
 138 373 146 343 163 322 c 0
 207 266 268 287 340 270 c 0
 403 255 465 218 465 141 c 0
 465 24 365 -8 288 -8 c 0
 245 -8 208 1 194 9 c 0
 153 32 147 57 124 57 c 0
 113 57 99 52 76 39 c 0
 50 25 40 -21 40 -21 c 1
 40 -21 36 -13 36 -3 c 0
 36 4 40 16 40 16 c 1
 40 16 23 2 14 -14 c 0
 10 -20 8 -28 8 -36 c 0
 8 -54 18 -72 38 -72 c 1
 38 -72 36 -67 36 -61 c 0
 36 -52 40 -42 58 -42 c 0
 71 -42 79 -48 79 -61 c 0
 79 -74 66 -90 43 -90 c 0
 17 -90 -6 -69 -6 -40 c 0
 -6 9 38 40 70 57 c 0
 100 73 128 84 155 84 c 0
 188 84 220 67 256 19 c 0
 264 9 275 6 288 6 c 0xfe40
EndSplineSet
Validated: 1
Layer: 2
SplineSet
40 16 m 1,0,1
 8 -10 8 -10 8 -36 c 0,2,3
 8 -51 8 -51 16 -61.5 c 128,-1,4
 24 -72 24 -72 38 -72 c 1,5,6
 36 -67 36 -67 36 -61 c 0,7,8
 36 -42 36 -42 57.5 -42 c 128,-1,9
 79 -42 79 -42 79 -61 c 0,10,11
 79 -72 79 -72 69 -81 c 128,-1,12
 59 -90 59 -90 41 -90 c 128,-1,13
 23 -90 23 -90 8.5 -75.5 c 128,-1,14
 -6 -61 -6 -61 -6 -40 c 0,15,16
 -6 17 -6 17 70 57 c 0,17,18
 121 84 121 84 155 84 c 0,19,20
 207 84 207 84 256 19 c 0,21,22
 266 6 266 6 288 6 c 0,23,24
 338 6 338 6 366 43.5 c 128,-1,25
 394 81 394 81 394 129 c 128,-1,26
 394 177 394 177 371.5 211.5 c 128,-1,27
 349 246 349 246 308 252 c 0,28,29
 287 255 287 255 250 256 c 0,30,31
 214 258 214 258 167 276.5 c 128,-1,32
 120 295 120 295 97.5 322.5 c 128,-1,33
 75 350 75 350 75 402 c 0,34,35
 75 419 75 419 76 427 c 0,36,37
 82 490 82 490 135 520 c 128,-1,38
 188 550 188 550 257 550 c 0,39,40
 444 550 444 550 444 439 c 1,41,-1
 470 439 l 1,42,-1
 470 427 l 1,43,-1
 342 427 l 1,44,-1
 342 439 l 1,45,-1
 368 439 l 1,46,47
 368 529 368 529 257 529 c 0,48,49
 200 529 200 529 169 491 c 128,-1,50
 138 453 138 453 138 403 c 128,-1,51
 138 353 138 353 160.5 325 c 128,-1,52
 183 297 183 297 209 288.5 c 128,-1,53
 235 280 235 280 276 277.5 c 128,-1,54
 317 275 317 275 340 270 c 0,55,56
 465 240 465 240 465 141 c 0,57,58
 465 99 465 99 448.5 68.5 c 128,-1,59
 432 38 432 38 405 22 c 0,60,61
 354 -8 354 -8 289 -8 c 128,-1,62
 224 -8 224 -8 194 9 c 0,63,64
 175 19 175 19 155.5 38 c 128,-1,65
 136 57 136 57 122 57 c 128,-1,66
 108 57 108 57 86 45 c 0,67,68
 52 26 52 26 43 -9 c 2,69,-1
 40 -21 l 1,70,71
 36 -13 36 -13 36 -3 c 1,72,-1
 40 16 l 1,0,1
EndSplineSet
Validated: 3073
Colour: ff00
EndChar

StartChar: uni047E
Encoding: 1150 1150 11
Width: 900
Flags: W
HStem: -129 52<415 467> -46 12<310.092 349.71 532.896 577.987> 0 14<213.512 275 608.042 673.726> 190 55<370.252 414.81 469.099 521.295> 207 6<656.006 667.754> 321 13<289.002 301.998 580.002 592.998> 335 13<305.002 317.998 564.002 576.998> 355 13<305.002 317.998 564.002 576.998> 380 22<278.5 309.272 574.728 605.5> 392 74<248.313 296.875 588.743 635.687> 535 15<222.137 296.278 587.599 661.505> 575 112<404 481> 675 12<321.536 404 481 554.464>
VStem: 4 88<155.053 393.768> 210 17<394.907 411.885> 240 18<279.369 310.812> 263 12<243.958 308.254> 271 23<-21.4688 0 604.754 654.35> 289 13<321.002 333.998> 305 13<335.002 347.998 355.002 367.998> 329 46<410.762 520.142> 404 77<575 675> 435 13<-128.995 -75.844> 441 4<314.769 402> 509 46<410.762 520.142> 564 13<335.002 347.998 355.002 367.998> 580 13<321.002 333.998> 582 22<603.521 654.366> 595 13<-13.5645 0> 609 12<242.849 308.397> 627 17<280.878 310.75> 647 27<370.082 391> 792 88<155.053 393.768>
DStem2: 361 31 351 25 0.749838 -0.661622<0 41.8145> 415 100 409 88 0.556175 -0.831065<6.63574 46.041> 433 50 441 39 0.558338 0.829613<-59.7702 -4.65904 14.4221 15.3449> 488 3 498 -5 0.759257 0.650791<2.38624 45.4469>
AnchorPoint: "Yerok" 826.5 574.4 basechar 0
AnchorPoint: "Diacritic" 445 716 basechar 0
LayerCount: 3
Fore
SplineSet
299 595 m 0xff70e60c
 288 595 271 614 271 633 c 0
 271 645 277 652 277 652 c 1
 226 687 l 1
 650 687 l 1
 599 652 l 1
 599 652 604 645 604 633 c 0
 604 628 603 622 600 615 c 0
 594 601 583 595 577 595 c 0
 563 595 582 601 582 621 c 0
 582 653 567 675 521 675 c 2
 481 675 l 1xff71769c
 481 575 l 1
 404 575 l 1xffb1769c
 404 675 l 1
 355 675 l 2
 309 675 294 653 294 621 c 0xff71769c
 294 600 309 600 302 596 c 0
 301 596 300 595 299 595 c 0xff70e60c
591 346 m 0
 588 346 586 347 586 348 c 0
 586 356 628 362 647 391 c 0
 651 398 657 419 657 419 c 1
 657 419 674 411 674 393 c 0
 674 369 644 342 644 301 c 0xff30664c
 644 283 650 272 650 272 c 1
 650 272 637 275 632 284 c 0
 624 297 628 311 628 311 c 1
 628 311 621 295 621 274 c 0
 621 263 623 250 630 238 c 0
 642 216 669 213 669 208 c 0
 669 207 668 207 666 207 c 0
 656 207 624 216 615 243 c 0
 611 256 609 267 609 278 c 0xff30663c
 609 320 635 350 649 371 c 1
 657 380 658 387 658 387 c 1
 658 387 649 371 635 361 c 1
 616 350 598 346 591 346 c 0
298 348 m 0xff34660c
 298 347 296 346 293 346 c 0
 286 346 268 350 249 361 c 1
 235 371 226 387 226 387 c 1
 226 387 227 380 235 371 c 1
 249 350 275 320 275 278 c 0
 275 267 273 256 269 243 c 0
 260 216 228 207 218 207 c 0
 216 207 215 207 215 208 c 0
 215 213 242 216 254 238 c 0
 261 250 263 263 263 274 c 0
 263 295 256 311 256 311 c 1
 256 311 260 297 252 284 c 0
 247 275 234 272 234 272 c 1xff3a660c
 234 272 240 283 240 301 c 0
 240 342 210 369 210 393 c 0
 210 411 227 419 227 419 c 1
 227 419 233 398 237 391 c 0
 256 362 298 356 298 348 c 0xff34660c
351 25 m 1
 334 15 313 4 288 0 c 1
 295 -12 302 -34 322 -34 c 0
 345 -34 366 -22 385 -5 c 1
 351 25 l 1
646 426 m 0
 646 395 618 380 587 380 c 0
 546 380 509 408 509 448 c 0
 509 538 560 550 630 550 c 0
 782 550 880 426 880 274 c 0
 880 122 782 0 630 0 c 0
 622 0 615 -1 608 0 c 1
 608 -16 590 -46 564 -46 c 0
 537 -46 512 -33 489 -14 c 1
 468 -37 448 -67 448 -109 c 0
 448 -114 447 -129 442 -129 c 0
 437 -129 435 -115 435 -109 c 0
 435 -67 415 -36 394 -14 c 1
 372 -33 346 -46 319 -46 c 0
 293 -46 275 -15 275 0 c 1xff3aee9c
 268 0 261 0 254 0 c 0
 102 0 4 122 4 274 c 0
 4 426 102 550 254 550 c 0
 324 550 375 538 375 448 c 0
 375 408 338 380 297 380 c 0
 266 380 238 395 238 426 c 0
 238 449 254 466 271 466 c 0xff31660c
 289 466 303 456 303 438 c 0
 303 436 303 433 302 430 c 0
 297 402 278 402 278 402 c 1
 282 402 327 403 329 451 c 0
 329 453 329 456 329 458 c 0
 329 503 312 535 262 535 c 0
 173 535 92 420 92 274 c 0
 92 131 154 14 252 14 c 0
 401 14 415 143 431 191 c 1
 428 193 425 195 422 198 c 0
 418 202 417 206 415 210 c 1
 412 200 401 190 389 190 c 0
 374 190 362 203 362 218 c 0
 362 233 374 245 389 245 c 0
 404 245 411 235 416 224 c 1
 417 231 422 238 429 241 c 1
 441 402 l 1
 445 402 l 1
 458 240 l 1
 464 237 467 231 468 224 c 1
 470 235 483 244 495 244 c 0
 510 244 522 232 522 217 c 0
 522 202 510 190 495 190 c 0
 482 190 471 198 469 210 c 1
 468 203 461 195 453 192 c 1
 469 143 483 14 632 14 c 0
 730 14 792 131 792 274 c 0
 792 420 710 535 622 535 c 0
 572 535 555 503 555 458 c 0
 555 456 555 453 555 451 c 0
 557 403 602 402 606 402 c 1
 606 402 587 402 582 430 c 0xff38ee9c
 581 433 581 436 581 438 c 0
 581 456 595 466 613 466 c 0
 630 466 646 449 646 426 c 0
595 0 m 1
 571 5 550 15 533 25 c 1
 498 -5 l 1
 517 -22 539 -34 561 -34 c 0
 581 -34 588 -12 595 0 c 1
523 32 m 1
 500 50 487 68 474 91 c 1
 449 50 l 1
 460 34 473 18 488 3 c 1
 523 32 l 1
468 101 m 1
 453 133 446 167 442 188 c 1
 438 167 432 133 415 100 c 1
 441 62 l 1
 468 101 l 1
409 88 m 1
 397 65 385 48 361 31 c 1
 394 3 l 1
 409 18 423 35 433 50 c 1
 409 88 l 1
479 -6 m 1
 465 8 452 24 441 39 c 1
 431 23 418 7 403 -6 c 1
 419 -23 434 -47 441 -77 c 1
 448 -47 463 -23 479 -6 c 1
289 328 m 0
 289 331 292 334 296 334 c 0
 299 334 302 331 302 328 c 0
 302 324 299 321 296 321 c 0
 292 321 289 324 289 328 c 0
305 342 m 0
 305 345 308 348 312 348 c 0
 315 348 318 345 318 342 c 0
 318 338 315 335 312 335 c 0
 308 335 305 338 305 342 c 0
305 362 m 0
 305 365 308 368 312 368 c 0
 315 368 318 365 318 362 c 0
 318 358 315 355 312 355 c 0
 308 355 305 358 305 362 c 0
593 328 m 0xff30670c
 593 324 590 321 587 321 c 0
 583 321 580 324 580 328 c 0
 580 331 583 334 587 334 c 0
 590 334 593 331 593 328 c 0xff30670c
577 342 m 0
 577 338 574 335 571 335 c 0
 567 335 564 338 564 342 c 0
 564 345 567 348 571 348 c 0
 574 348 577 345 577 342 c 0
577 362 m 0
 577 358 574 355 571 355 c 0
 567 355 564 358 564 362 c 0
 564 365 567 368 571 368 c 0
 574 368 577 365 577 362 c 0
EndSplineSet
Validated: 1
Layer: 2
SplineSet
294 621 m 0,0,1
 294 609 294 609 299 604 c 128,-1,2
 304 599 304 599 304 597 c 128,-1,3
 304 595 304 595 297 595 c 128,-1,4
 290 595 290 595 280.5 607 c 128,-1,5
 271 619 271 619 271 631.5 c 128,-1,6
 271 644 271 644 277 652 c 1,7,-1
 226 687 l 1,8,-1
 650 687 l 1,9,-1
 599 652 l 1,10,11
 604 645 604 645 604 634.5 c 128,-1,12
 604 624 604 624 600 615 c 0,13,14
 591 595 591 595 577 595 c 0,15,16
 570 595 570 595 573 599 c 0,17,18
 582 611 582 611 582 621 c 0,19,20
 582 675 582 675 521 675 c 2,21,-1
 481 675 l 1,22,-1
 481 575 l 1,23,-1
 404 575 l 1,24,-1
 404 675 l 1,25,-1
 355 675 l 2,26,27
 294 675 294 675 294 621 c 0,0,1
635 361 m 1,28,29
 609 346 609 346 597.5 346 c 128,-1,30
 586 346 586 346 586 348.5 c 128,-1,31
 586 351 586 351 597 356 c 0,32,33
 635 371 635 371 647 391 c 1,34,-1
 657 419 l 1,35,36
 674 411 674 411 674 397 c 128,-1,37
 674 383 674 383 659 353.5 c 128,-1,38
 644 324 644 324 644 305 c 128,-1,39
 644 286 644 286 650 272 c 1,40,41
 630 277 630 277 627 296 c 0,42,43
 626 303 626 303 628 311 c 1,44,45
 621 295 621 295 621 274 c 128,-1,46
 621 253 621 253 628 240.5 c 128,-1,47
 635 228 635 228 645 222 c 128,-1,48
 655 216 655 216 662 213 c 128,-1,49
 669 210 669 210 669 208.5 c 128,-1,50
 669 207 669 207 662 207 c 128,-1,51
 655 207 655 207 638 216 c 0,52,53
 609 231 609 231 609 270 c 0,54,55
 609 310 609 310 627.5 339 c 128,-1,56
 646 368 646 368 649 371 c 1,57,-1
 658 387 l 2,58,59
 649 371 649 371 635 361 c 1,28,29
287 355.5 m 128,-1,61
 298 351 298 351 298 348.5 c 128,-1,62
 298 346 298 346 286.5 346 c 128,-1,63
 275 346 275 346 255 358 c 0,64,65
 236 369 236 369 226 387 c 1,66,67
 227 380 227 380 231.5 375 c 128,-1,68
 236 370 236 370 244 358 c 0,69,70
 275 311 275 311 275 286.5 c 128,-1,71
 275 262 275 262 269 243.5 c 128,-1,72
 263 225 263 225 246 216 c 128,-1,73
 229 207 229 207 222 207 c 128,-1,74
 215 207 215 207 215 208.5 c 128,-1,75
 215 210 215 210 231 217 c 128,-1,76
 247 224 247 224 254 238 c 1,77,78
 263 253 263 253 263 274 c 128,-1,79
 263 295 263 295 256 311 c 1,80,81
 258 305 258 305 258 295 c 0,82,83
 257 279 257 279 234 272 c 1,84,85
 240 283 240 283 240 303.5 c 128,-1,86
 240 324 240 324 225 353.5 c 128,-1,87
 210 383 210 383 210 396 c 0,88,89
 210 410 210 410 227 419 c 1,90,91
 233 398 233 398 239 388 c 128,-1,92
 245 378 245 378 260.5 369 c 128,-1,60
 276 360 276 360 287 355.5 c 128,-1,61
351 25 m 1,93,94
 316 5 316 5 288 0 c 1,95,96
 288 -5 288 -5 296 -16 c 1,97,98
 312 -32 312 -32 322 -34 c 1,99,100
 353 -34 353 -34 385 -5 c 1,101,-1
 351 25 l 1,93,94
303 438 m 0,102,103
 303 407 303 407 278 402 c 1,104,105
 285 402 285 402 293.5 403.5 c 128,-1,106
 302 405 302 405 315 417.5 c 128,-1,107
 328 430 328 430 329 451 c 1,108,-1
 329 458 l 2,109,110
 329 535 329 535 261.5 535 c 128,-1,111
 194 535 194 535 143 458.5 c 128,-1,112
 92 382 92 382 92 273 c 128,-1,113
 92 164 92 164 136 89 c 128,-1,114
 180 14 180 14 252 14 c 0,115,116
 350 14 350 14 392 86 c 0,117,118
 415 125 415 125 431 191 c 1,119,120
 421 198 421 198 415 210 c 1,121,122
 409 190 409 190 393.5 190 c 128,-1,123
 378 190 378 190 370 198.5 c 128,-1,124
 362 207 362 207 362 218 c 128,-1,125
 362 229 362 229 370 237 c 128,-1,126
 378 245 378 245 392 245 c 128,-1,127
 406 245 406 245 416 224 c 1,128,129
 418 236 418 236 429 241 c 1,130,-1
 441 402 l 1,131,-1
 445 402 l 1,132,-1
 458 240 l 1,133,134
 466 236 466 236 468 224 c 1,135,136
 469 232 469 232 477.5 238 c 128,-1,137
 486 244 486 244 496 244 c 128,-1,138
 506 244 506 244 514 236 c 128,-1,139
 522 228 522 228 522 217 c 128,-1,140
 522 206 522 206 514 198 c 128,-1,141
 506 190 506 190 495 190 c 0,142,143
 472 190 472 190 469 210 c 1,144,145
 467 197 467 197 453 192 c 1,146,147
 480 84 480 84 523 49 c 128,-1,148
 566 14 566 14 635 14 c 128,-1,149
 704 14 704 14 748 89 c 128,-1,150
 792 164 792 164 792 273 c 128,-1,151
 792 382 792 382 740.5 458.5 c 128,-1,152
 689 535 689 535 622 535 c 128,-1,153
 555 535 555 535 555 458 c 2,154,-1
 555 451 l 1,155,156
 556 430 556 430 569 417.5 c 128,-1,157
 582 405 582 405 590.5 403.5 c 128,-1,158
 599 402 599 402 606 402 c 1,159,160
 599 402 599 402 590 412 c 0,161,162
 581 421 581 421 581 438 c 0,163,164
 581 466 581 466 613 466 c 0,165,166
 626 466 626 466 636 454.5 c 128,-1,167
 646 443 646 443 646 423.5 c 128,-1,168
 646 404 646 404 629 392 c 128,-1,169
 612 380 612 380 583.5 380 c 128,-1,170
 555 380 555 380 532 399.5 c 128,-1,171
 509 419 509 419 509 448 c 0,172,173
 509 510 509 510 539 530 c 128,-1,174
 569 550 569 550 630 550 c 0,175,176
 742 550 742 550 811 470.5 c 128,-1,177
 880 391 880 391 880 274 c 128,-1,178
 880 157 880 157 811 78.5 c 128,-1,179
 742 0 742 0 630 0 c 2,180,-1
 608 0 l 1,181,182
 608 -14 608 -14 595 -30 c 128,-1,183
 582 -46 582 -46 564 -46 c 0,184,185
 528 -46 528 -46 489 -14 c 1,186,187
 448 -59 448 -59 448 -109 c 0,188,189
 448 -129 448 -129 441.5 -129 c 128,-1,190
 435 -129 435 -129 435 -109 c 0,191,192
 435 -57 435 -57 394 -14 c 1,193,194
 357 -46 357 -46 319 -46 c 0,195,196
 301 -46 301 -46 288 -29.5 c 128,-1,197
 275 -13 275 -13 275 0 c 1,198,-1
 254 0 l 2,199,200
 142 0 142 0 73 78.5 c 128,-1,201
 4 157 4 157 4 274 c 128,-1,202
 4 391 4 391 73 470.5 c 128,-1,203
 142 550 142 550 254 550 c 0,204,205
 315 550 315 550 345 530 c 128,-1,206
 375 510 375 510 375 448 c 0,207,208
 375 419 375 419 352 399.5 c 128,-1,209
 329 380 329 380 300.5 380 c 128,-1,210
 272 380 272 380 255 392 c 128,-1,211
 238 404 238 404 238 423.5 c 128,-1,212
 238 443 238 443 248 454.5 c 128,-1,213
 258 466 258 466 271 466 c 0,214,215
 303 466 303 466 303 438 c 0,102,103
595 0 m 1,216,217
 565 6 565 6 533 25 c 1,218,-1
 498 -5 l 1,219,220
 530 -34 530 -34 561 -34 c 0,221,222
 574 -34 574 -34 580 -26 c 0,223,224
 595 -6 595 -6 595 0 c 1,216,217
523 32 m 1,225,226
 495 54 495 54 474 91 c 1,227,-1
 449 50 l 1,228,229
 467 24 467 24 488 3 c 1,230,-1
 523 32 l 1,225,226
468 101 m 1,231,232
 452 135 452 135 442 188 c 1,233,234
 431 132 431 132 415 100 c 1,235,-1
 441 62 l 1,236,-1
 468 101 l 1,231,232
409 88 m 1,237,238
 390 52 390 52 361 31 c 1,239,-1
 394 3 l 1,240,241
 417 26 417 26 433 50 c 1,242,-1
 409 88 l 1,237,238
479 -6 m 1,243,244
 460 13 460 13 441 39 c 1,245,246
 425 13 425 13 403 -6 c 1,247,248
 431 -36 431 -36 441 -77 c 1,249,250
 451 -36 451 -36 479 -6 c 1,243,244
289 327.5 m 128,-1,252
 289 334 289 334 295.5 334 c 128,-1,253
 302 334 302 334 302 327.5 c 128,-1,254
 302 321 302 321 295.5 321 c 128,-1,251
 289 321 289 321 289 327.5 c 128,-1,252
305 341.5 m 128,-1,256
 305 348 305 348 311.5 348 c 128,-1,257
 318 348 318 348 318 341.5 c 128,-1,258
 318 335 318 335 311.5 335 c 128,-1,255
 305 335 305 335 305 341.5 c 128,-1,256
305 361.5 m 128,-1,260
 305 368 305 368 311.5 368 c 128,-1,261
 318 368 318 368 318 361.5 c 128,-1,262
 318 355 318 355 311.5 355 c 128,-1,259
 305 355 305 355 305 361.5 c 128,-1,260
593 327.5 m 128,-1,264
 593 321 593 321 586.5 321 c 128,-1,265
 580 321 580 321 580 327.5 c 128,-1,266
 580 334 580 334 586.5 334 c 128,-1,263
 593 334 593 334 593 327.5 c 128,-1,264
577 341.5 m 128,-1,268
 577 335 577 335 570.5 335 c 128,-1,269
 564 335 564 335 564 341.5 c 128,-1,270
 564 348 564 348 570.5 348 c 128,-1,267
 577 348 577 348 577 341.5 c 128,-1,268
577 361.5 m 128,-1,272
 577 355 577 355 570.5 355 c 128,-1,273
 564 355 564 355 564 361.5 c 128,-1,274
 564 368 564 368 570.5 368 c 128,-1,271
 577 368 577 368 577 361.5 c 128,-1,272
EndSplineSet
Validated: 3073
Substitution2: "'ss01' Style Set Simple Forms-1" uni047E.simple
Colour: ff00
EndChar

StartChar: uni0472
Encoding: 1138 1138 12
Width: 525
Flags: W
HStem: -79 91<179 196.831 197 254> 0 12<110.977 175.848 317 330.492> 72 56<77.4369 123.201> 132 13<125.002 137.998> 152 13<125.002 137.998> 166 13<109.002 121.998> 269 13<29.9133 76.6485 446.115 495.747> 385 11<386.083 398.986> 405 11<386.083 398.986> 422 56<400.799 446.563> 538 12<263.9 327 348.152 413.023>
VStem: 1 12<210.82 252.055> 46 23<-90.1074 -23> 55 21<35.1177 79.7801> 96 14<196.159 249.71> 109 13<166.002 178.998> 123 76<268.648 472.569> 125 13<132.002 144.998 152.002 164.998> 176 31<85.6012 135.78> 215 35<54.7676 135.174> 274 35<414.728 495.232> 317 31<414.299 464.399> 325 76<74.3042 278.517> 357 23<-89.4839 -20.2906> 386 13<385.063 395.875 405.063 415.875> 405 10<373.156 384.089> 414 14<300.29 353.841> 448 21<470.22 514.938> 511 12<297.945 339.18>
AnchorPoint: "Yerok" 381 575.2 basechar 0
AnchorPoint: "Diacritic" 287 575 basechar 0
LayerCount: 3
Fore
SplineSet
125 139 m 0x3ff8160f
 125 142 128 145 132 145 c 0
 135 145 138 142 138 139 c 0
 138 135 135 132 132 132 c 0
 128 132 125 135 125 139 c 0x3ff8160f
125 159 m 0
 125 162 128 165 132 165 c 0
 135 165 138 162 138 159 c 0
 138 155 135 152 132 152 c 0
 128 152 125 155 125 159 c 0
109 173 m 0x3ff8460f
 109 176 112 179 116 179 c 0
 119 179 122 176 122 173 c 0
 122 169 119 166 116 166 c 0
 112 166 109 169 109 173 c 0x3ff8460f
325 158 m 0xbff8268f
 325 263 274 317 274 425 c 0
 274 486 299 515 327 538 c 1
 325 538 323 538 321 538 c 0
 301 538 270 534 270 534 c 1
 209 519 199 433 199 384 c 0
 199 285 250 230 250 125 c 0
 250 64 225 35 197 12 c 1
 199 12 201 12 203 12 c 0
 223 12 254 16 254 16 c 0
 313 30 325 97 325 158 c 0xbff8268f
350 -104 m 0
 349 -104 347 -103 347 -102 c 0x7ff8064f
 347 -99 357 -93 357 -58 c 0
 357 -23 344 0 296 0 c 2
 256 0 l 1x7ff8062f
 256 -79 l 1
 179 -79 l 1xbff8062f
 179 0 l 1
 130 0 l 2
 82 0 69 -23 69 -58 c 0x7ffa062f
 69 -93 79 -99 79 -102 c 0x7ffc060f
 79 -103 77 -104 76 -104 c 0x7ff9060f
 70 -104 54 -92 49 -69 c 0
 47 -59 46 -51 46 -45 c 0x7ffa060f
 46 -28 52 -23 52 -23 c 2
 1 12 l 1
 87 12 l 1
 66 23 55 44 55 79 c 0
 55 109 76 128 99 128 c 0
 119 128 133 114 133 98 c 0
 133 82 117 72 103 72 c 0
 89 72 77 80 77 80 c 1
 77 80 76 76 76 71 c 0
 76 57 80 31 106 20 c 0
 118 15 130 12 143 12 c 0
 162 12 182 19 198 35 c 0
 211 48 215 67 215 86 c 0
 215 112 207 136 207 136 c 1
 207 136 206 108 188 80 c 0
 177 62 154 47 139 47 c 0
 138 47 l 0
 138 49 176 58 176 115 c 0x7ff91e0f
 176 134 172 158 160 189 c 0
 125 282 123 300 123 382 c 0
 123 467 173 538 256 550 c 0
 279 553 303 554 326 554 c 0
 371 554 408 550 408 550 c 1
 448 544 469 519 469 471 c 0
 469 441 448 422 425 422 c 0
 405 422 391 436 391 452 c 0
 391 468 407 478 421 478 c 0
 435 478 447 470 447 470 c 1
 447 470 448 474 448 479 c 0
 448 493 444 519 418 530 c 0
 406 535 394 538 381 538 c 0
 362 538 342 531 326 515 c 0
 313 502 309 483 309 464 c 0
 309 438 317 414 317 414 c 2
 317 414 318 442 336 470 c 0
 347 488 370 503 385 503 c 0
 386 503 l 0
 386 501 348 492 348 435 c 0x7ff8271f
 348 416 352 392 364 361 c 0
 399 268 401 239 401 168 c 0x7ff8068f
 401 101 370 36 317 12 c 1
 425 12 l 1
 374 -23 l 1
 374 -23 380 -28 380 -45 c 0x7ff8072f
 380 -51 379 -59 377 -69 c 0
 372 -92 356 -104 350 -104 c 0
56 282 m 0
 87 282 110 258 110 231 c 0
 110 204 102 189 87 169 c 0
 80 160 68 151 61 145 c 0
 53 137 50 129 50 129 c 1
 50 129 61 143 78 150 c 0
 91 155 99 157 105 157 c 0
 111 157 115 155 115 151 c 0
 115 143 84 147 59 123 c 0
 53 117 47 99 47 99 c 1
 46 100 27 109 27 129 c 0
 27 160 50 175 50 200 c 0
 50 212 44 219 44 219 c 1
 44 219 44 219 45 219 c 0
 49 219 62 218 71 196 c 0
 76 183 74 173 74 173 c 1
 74 173 96 196 96 224 c 0x3ff8860f
 96 251 77 269 54 269 c 0
 30 269 13 253 13 231 c 0
 13 213 23 207 23 205 c 0
 23 205 22 205 21 205 c 0
 7 205 1 221 1 236 c 0
 1 266 27 282 56 282 c 0
397 407 m 1x3ff8061f
 394 403 386 405 386 411 c 0
 386 412 387 414 388 416 c 1
 391 417 395 417 397 416 c 0
 400 413 400 408 397 407 c 1x3ff8061f
413 374 m 1
 409 368 399 375 404 383 c 1
 407 384 411 384 413 383 c 0
 416 380 416 375 413 374 c 1
397 387 m 1
 394 383 386 385 386 391 c 0
 386 392 387 394 388 396 c 1
 391 397 395 397 397 396 c 0
 400 393 400 388 397 387 c 1
468 268 m 0
 437 268 414 292 414 319 c 0
 414 346 422 361 437 381 c 0
 444 390 456 399 463 405 c 0
 471 413 474 421 474 421 c 1
 474 421 463 407 446 400 c 0
 433 395 425 393 419 393 c 0
 413 393 409 395 409 399 c 0
 409 407 440 403 465 427 c 0
 471 433 477 451 477 451 c 1
 478 450 497 441 497 421 c 0
 497 390 474 375 474 350 c 0
 474 338 480 331 480 331 c 1
 480 331 480 331 479 331 c 0
 475 331 462 332 453 354 c 0
 448 367 450 377 450 377 c 1
 450 377 428 354 428 326 c 0
 428 299 447 281 470 281 c 0
 494 281 511 297 511 319 c 0
 511 337 501 343 501 345 c 0
 501 345 502 345 503 345 c 0
 517 345 523 329 523 314 c 0
 523 284 497 268 468 268 c 0
EndSplineSet
Validated: 1
Layer: 2
SplineSet
125 138.5 m 128,-1,1
 125 145 125 145 131.5 145 c 128,-1,2
 138 145 138 145 138 138.5 c 128,-1,3
 138 132 138 132 131.5 132 c 128,-1,0
 125 132 125 132 125 138.5 c 128,-1,1
125 158.5 m 128,-1,5
 125 165 125 165 131.5 165 c 128,-1,6
 138 165 138 165 138 158.5 c 128,-1,7
 138 152 138 152 131.5 152 c 128,-1,4
 125 152 125 152 125 158.5 c 128,-1,5
109 172.5 m 128,-1,9
 109 179 109 179 115.5 179 c 128,-1,10
 122 179 122 179 122 172.5 c 128,-1,11
 122 166 122 166 115.5 166 c 128,-1,8
 109 166 109 166 109 172.5 c 128,-1,9
325 158 m 0,12,13
 325 210 325 210 299.5 290.5 c 128,-1,14
 274 371 274 371 274 425 c 0,15,16
 274 494 274 494 327 538 c 1,17,-1
 321 538 l 1,18,-1
 270 534 l 1,19,20
 230 524 230 524 214.5 479.5 c 128,-1,21
 199 435 199 435 199 385 c 128,-1,22
 199 335 199 335 224.5 256.5 c 128,-1,23
 250 178 250 178 250 125 c 0,24,25
 250 56 250 56 197 12 c 1,26,-1
 203 12 l 1,27,-1
 254 16 l 1,28,29
 325 33 325 33 325 158 c 0,12,13
76 71 m 0,30,31
 76 12 76 12 150 12 c 0,32,33
 175 12 175 12 195 32 c 128,-1,34
 215 52 215 52 215 81 c 128,-1,35
 215 110 215 110 207 136 c 1,36,37
 206 108 206 108 193 87.5 c 128,-1,38
 180 67 180 67 165 57 c 128,-1,39
 150 47 150 47 139 47 c 1,40,41
 155 58 155 58 166 71 c 0,42,43
 176 84 176 84 176 116 c 128,-1,44
 176 148 176 148 155 202.5 c 128,-1,45
 134 257 134 257 128.5 288 c 128,-1,46
 123 319 123 319 123 383 c 128,-1,47
 123 447 123 447 159 494 c 128,-1,48
 195 541 195 541 256 550 c 0,49,50
 287 554 287 554 326 554 c 1,51,-1
 408 550 l 1,52,53
 469 541 469 541 469 471 c 0,54,55
 469 449 469 449 456 435.5 c 128,-1,56
 443 422 443 422 426.5 422 c 128,-1,57
 410 422 410 422 400.5 431 c 128,-1,58
 391 440 391 440 391 451.5 c 128,-1,59
 391 463 391 463 400.5 470.5 c 128,-1,60
 410 478 410 478 421.5 478 c 128,-1,61
 433 478 433 478 447 470 c 1,62,63
 448 474 448 474 448 479 c 0,64,65
 448 538 448 538 374 538 c 0,66,67
 349 538 349 538 329 518 c 128,-1,68
 309 498 309 498 309 469 c 128,-1,69
 309 440 309 440 317 414 c 1,70,71
 318 442 318 442 331 462.5 c 128,-1,72
 344 483 344 483 359 493 c 128,-1,73
 374 503 374 503 385 503 c 1,74,75
 369 492 369 492 358 479 c 0,76,77
 348 466 348 466 348 434 c 128,-1,78
 348 402 348 402 368.5 348.5 c 128,-1,79
 389 295 389 295 395 260.5 c 128,-1,80
 401 226 401 226 401 171 c 128,-1,81
 401 116 401 116 378.5 73 c 128,-1,82
 356 30 356 30 317 12 c 1,83,-1
 425 12 l 1,84,-1
 374 -23 l 1,85,86
 380 -28 380 -28 380 -41 c 128,-1,87
 380 -54 380 -54 377 -69 c 128,-1,88
 374 -84 374 -84 365 -94 c 128,-1,89
 356 -104 356 -104 351.5 -104 c 128,-1,90
 347 -104 347 -104 347 -102 c 1,91,92
 357 -86 357 -86 357 -58 c 128,-1,93
 357 -30 357 -30 343.5 -15 c 128,-1,94
 330 0 330 0 296 0 c 2,95,-1
 256 0 l 1,96,-1
 256 -79 l 1,97,-1
 179 -79 l 1,98,-1
 179 0 l 1,99,-1
 130 0 l 2,100,101
 96 0 96 0 82.5 -15 c 128,-1,102
 69 -30 69 -30 69 -50 c 128,-1,103
 69 -70 69 -70 70.5 -79 c 128,-1,104
 72 -88 72 -88 74 -92 c 128,-1,105
 76 -96 76 -96 77.5 -98.5 c 128,-1,106
 79 -101 79 -101 79 -102.5 c 128,-1,107
 79 -104 79 -104 74.5 -104 c 128,-1,108
 70 -104 70 -104 58 -91 c 0,109,110
 46 -77 46 -77 46 -45 c 1,111,-1
 52 -23 l 1,112,-1
 1 12 l 1,113,-1
 87 12 l 1,114,115
 55 29 55 29 55 79 c 0,116,117
 55 101 55 101 68 114.5 c 128,-1,118
 81 128 81 128 97.5 128 c 128,-1,119
 114 128 114 128 123.5 119 c 128,-1,120
 133 110 133 110 133 98.5 c 128,-1,121
 133 87 133 87 123.5 79.5 c 128,-1,122
 114 72 114 72 102.5 72 c 128,-1,123
 91 72 91 72 77 80 c 1,124,125
 76 76 76 76 76 71 c 0,30,31
24.5 258.5 m 128,-1,127
 13 248 13 248 13 232.5 c 128,-1,128
 13 217 13 217 23 205 c 1,129,-1
 21 205 l 2,130,131
 1 205 1 205 1 231.5 c 128,-1,132
 1 258 1 258 17 270 c 128,-1,133
 33 282 33 282 56 282 c 128,-1,134
 79 282 79 282 94.5 267 c 128,-1,135
 110 252 110 252 110 226 c 128,-1,136
 110 200 110 200 87 169 c 0,137,138
 83 164 83 164 61 145 c 1,139,-1
 50 129 l 1,140,141
 61 143 61 143 78.5 150 c 128,-1,142
 96 157 96 157 105.5 157 c 128,-1,143
 115 157 115 157 115 151 c 0,144,145
 115 148 115 148 96 143 c 0,146,147
 77 139 77 139 59 123 c 1,148,-1
 47 99 l 1,149,150
 27 109 27 109 27 127 c 128,-1,151
 27 145 27 145 38.5 166.5 c 128,-1,152
 50 188 50 188 50 199.5 c 128,-1,153
 50 211 50 211 44 219 c 1,154,-1
 45 219 l 2,155,156
 62 219 62 219 71 196 c 1,157,-1
 74 173 l 1,158,159
 96 196 96 196 96 220 c 128,-1,160
 96 244 96 244 84 256.5 c 128,-1,161
 72 269 72 269 54 269 c 128,-1,126
 36 269 36 269 24.5 258.5 c 128,-1,127
399 411 m 0,162,163
 399 403 399 403 392.5 405 c 128,-1,164
 386 407 386 407 386 409.5 c 128,-1,165
 386 412 386 412 388 416 c 1,166,167
 399 420 399 420 399 411 c 0,162,163
413 374 m 1,168,169
 409 368 409 368 405 373 c 128,-1,170
 401 378 401 378 404 383 c 1,171,172
 415 387 415 387 415 378 c 0,173,174
 415 375 415 375 413 374 c 1,168,169
399 391 m 0,175,176
 399 383 399 383 392.5 385 c 128,-1,177
 386 387 386 387 386 389.5 c 128,-1,178
 386 392 386 392 388 396 c 1,179,180
 399 400 399 400 399 391 c 0,175,176
499.5 291.5 m 128,-1,182
 511 302 511 302 511 317.5 c 128,-1,183
 511 333 511 333 501 345 c 1,184,-1
 503 345 l 2,185,186
 523 345 523 345 523 318.5 c 128,-1,187
 523 292 523 292 507 280 c 128,-1,188
 491 268 491 268 468 268 c 128,-1,189
 445 268 445 268 429.5 283 c 128,-1,190
 414 298 414 298 414 324 c 128,-1,191
 414 350 414 350 437 381 c 0,192,193
 441 386 441 386 463 405 c 1,194,-1
 474 421 l 1,195,196
 463 407 463 407 445.5 400 c 128,-1,197
 428 393 428 393 418.5 393 c 128,-1,198
 409 393 409 393 409 399 c 0,199,200
 409 402 409 402 428 407 c 0,201,202
 447 411 447 411 465 427 c 1,203,-1
 477 451 l 1,204,205
 497 439 497 439 497 422 c 128,-1,206
 497 405 497 405 485.5 383.5 c 128,-1,207
 474 362 474 362 474 350.5 c 128,-1,208
 474 339 474 339 480 331 c 1,209,-1
 479 331 l 2,210,211
 462 331 462 331 453 354 c 1,212,-1
 450 377 l 1,213,214
 428 354 428 354 428 330 c 128,-1,215
 428 306 428 306 440 293.5 c 128,-1,216
 452 281 452 281 470 281 c 128,-1,181
 488 281 488 281 499.5 291.5 c 128,-1,182
EndSplineSet
Validated: 3073
Substitution2: "'ss01' Style Set Simple Forms-1" uni0472.simple
Colour: ff00
EndChar

StartChar: uni0405
Encoding: 1029 1029 13
Width: 480
Flags: W
HStem: -91 19<17.7197 38> -7 12<264.46 318.683> 48 9<279.126 309.53> 57 27<98.9702 149.462> 121 10<250.001 260.999> 133 11<243.012 253.987 264.155 284.031> 146 11<248.013 258.988> 162 12<238.722 291.773> 191 26<231.218 252.978> 256 22<204.321 331> 322 26<269.022 290.782> 365 12<230.227 283.278> 382 11<263.012 273.987> 396 10<241.188 256.68 268.053 278.952> 408 10<261.001 271.999> 427 12<342 368 444 470> 482 8<213.24 242.415> 529 21<207.684 316.825>
VStem: -6 14<-59.0471 -11.8639> 36 42<-71.76 -42.0396> 75 63<325.958 478.406> 193 12<339.326 379.269> 198 7<451.095 472.812> 219 12<181.125 194> 227 8<420.998 445.902> 243 11<133.011 143.999 148.583 154.034> 250 11<121.011 130.999 432.509 476.258> 261 11<62.9733 106.696 408.001 417.989> 263 11<382.001 392.989 398.966 403.934> 287 8<93.0977 118.737> 291 12<345 357.875> 317 12<159.516 199.675> 317 7<66.25 87.9048> 368 76<439 499.893> 396 69<60.728 205.477>
DStem2: 36 -3 40 -21 0.20601 0.97855<-16.5703 19.1503>
AnchorPoint: "Yerok" 405 565 basechar 0
AnchorPoint: "Diacritic" 259 575 basechar 0
LayerCount: 3
Fore
SplineSet
261 413 m 0xc8f1f211
 261 416 263 418 266 418 c 0
 269 418 272 416 272 413 c 0
 272 410 269 408 266 408 c 0
 263 408 261 410 261 413 c 0xc8f1f211
268 402 m 0xc8f3f209
 268 405 271 406 274 406 c 0xc8f3f209
 277 406 279 404 279 401 c 0xc8f5f209
 279 398 277 395 274 395 c 0
 271 395 268 399 268 402 c 0xc8f3f209
263 388 m 0
 263 391 265 393 268 393 c 0
 271 393 274 391 274 388 c 0
 274 385 271 382 268 382 c 0xc8f9f209
 265 382 263 385 263 388 c 0
200 324 m 1
 198 327 192 347 192 356 c 0
 192 363 194 369 196 377 c 0
 203 402 226 411 227 434 c 1
 227 446 l 1
 227 446 234 446 235 430 c 0
 236 420 233 415 233 415 c 1
 233 415 253 433 253 456 c 0
 253 471 242 482 227 482 c 0
 218 482 211 479 207 470 c 0
 200 456 210 450 205 451 c 0
 200 452 198 457 198 462 c 0
 198 478 209 491 226 491 c 0
 247 491 261 476 261 455 c 0
 261 419 218 396 217 395 c 2xc8f3f2a3
 217 395 238 401 251 401 c 0
 256 401 260 400 260 397 c 0
 260 390 241 399 221 386 c 0
 209 379 205 370 205 360 c 0
 205 357 206 355 206 352 c 1
 217 367 237 377 256 377 c 0
 279 376 303 366 303 342 c 0
 303 329 293 322 281 322 c 0
 275 322 269 325 269 333 c 0
 269 345 274 348 280 348 c 0
 286 348 291 345 291 345 c 1xc8f5f2a3
 291 359 274 365 257 365 c 0
 223 365 202 338 200 324 c 1
261 126 m 0
 261 123 259 121 256 121 c 0
 253 121 250 123 250 126 c 0
 250 129 253 131 256 131 c 0
 259 131 261 129 261 126 c 0
254 138 m 0xcaf1f241
 254 135 251 133 248 133 c 0xccf1f241
 245 133 243 135 243 138 c 0xcaf1f241
 243 141 245 144 248 144 c 0xccf1f241
 251 144 254 141 254 138 c 0xcaf1f241
259 151 m 0
 259 148 257 146 254 146 c 0
 251 146 248 148 248 151 c 0
 248 154 251 157 254 157 c 0xc9f1f241
 257 157 259 154 259 151 c 0
322 215 m 1
 324 212 330 192 330 183 c 0
 330 176 328 170 326 162 c 0
 319 137 296 128 295 105 c 1
 295 93 l 1
 295 93 288 93 287 109 c 0
 286 119 289 124 289 124 c 1
 289 124 269 106 269 83 c 0
 269 68 280 57 295 57 c 0
 304 57 311 60 315 69 c 0
 322 83 312 89 317 88 c 0
 322 87 324 82 324 77 c 0
 324 61 313 48 296 48 c 0xeaf1f315
 275 48 261 63 261 84 c 0
 261 120 304 143 305 144 c 2xdcf1f315
 305 144 284 138 271 138 c 0
 266 138 262 139 262 142 c 0
 262 149 281 140 301 153 c 0
 313 160 317 169 317 179 c 0
 317 182 316 184 316 187 c 1
 305 172 285 162 266 162 c 0
 243 163 219 173 219 197 c 0
 219 210 229 217 241 217 c 0
 247 217 253 214 253 206 c 0
 253 194 248 191 242 191 c 0
 236 191 231 194 231 194 c 1xcaf1f315
 231 180 248 174 265 174 c 0
 299 174 320 201 322 215 c 1
288 6 m 0
 359 6 394 70 394 131 c 0xd8f5fa0140
 394 188 365 244 308 252 c 0
 244 261 233 250 164 277 c 0
 111 298 75 329 75 404 c 0
 75 411 75 419 76 427 c 0
 84 519 177 550 257 550 c 0
 423 550 444 481 444 439 c 1
 470 439 l 1
 470 427 l 1
 342 427 l 1
 342 439 l 1
 368 439 l 1
 368 499 329 529 257 529 c 0
 177 529 138 464 138 401 c 0xd8f5f60180
 138 372 146 343 163 322 c 0
 207 266 268 287 340 270 c 0
 403 255 465 218 465 141 c 0
 465 24 365 -8 288 -8 c 0
 245 -8 208 1 194 9 c 0
 153 32 147 57 124 57 c 0
 113 57 99 52 76 39 c 0
 50 25 40 -21 40 -21 c 1
 40 -21 36 -13 36 -3 c 0
 36 4 40 16 40 16 c 1
 40 16 23 2 14 -14 c 0
 10 -20 8 -28 8 -36 c 0
 8 -54 18 -72 38 -72 c 1
 38 -72 36 -67 36 -61 c 0
 36 -52 40 -42 58 -42 c 0
 71 -42 79 -48 79 -61 c 0
 79 -74 66 -90 43 -90 c 0
 17 -90 -6 -69 -6 -40 c 0
 -6 9 38 40 70 57 c 0
 100 73 128 84 155 84 c 0xd8f5fa0140
 188 84 220 67 256 19 c 0
 264 9 275 6 288 6 c 0
EndSplineSet
Validated: 1
Layer: 2
SplineSet
261 413 m 128,-1,1
 261 418 261 418 266 418 c 0,2,3
 272 418 272 418 272 413 c 128,-1,4
 272 408 272 408 266.5 408 c 128,-1,0
 261 408 261 408 261 413 c 128,-1,1
268 402 m 0,5,6
 268 406 268 406 274 406 c 0,7,8
 279 406 279 406 279 402 c 0,9,10
 279 396 279 396 273.5 396 c 128,-1,11
 268 396 268 396 268 402 c 0,5,6
263 388 m 0,12,13
 263 393 263 393 268 393 c 0,14,15
 274 393 274 393 274 388 c 0,16,17
 274 382 274 382 268.5 382 c 128,-1,18
 263 382 263 382 263 388 c 0,12,13
291 345 m 1,19,20
 291 365 291 365 255 365 c 0,21,22
 245 365 245 365 237 362 c 0,23,24
 204 349 204 349 200 324 c 1,25,26
 193 340 193 340 193 360.5 c 128,-1,27
 193 381 193 381 210 402 c 128,-1,28
 227 423 227 423 227 434 c 1,29,-1
 227 446 l 1,30,31
 235 446 235 446 235 430 c 1,32,-1
 233 415 l 1,33,34
 253 435 253 435 253 452 c 0,35,36
 253 482 253 482 227 482 c 0,37,38
 212 482 212 482 207 470 c 1,39,40
 202 462 202 462 205 451 c 1,41,42
 198 454 198 454 198 464 c 0,43,44
 199 475 199 475 205 482 c 0,45,46
 212 490 212 490 228 490 c 128,-1,47
 244 490 244 490 254 479.5 c 128,-1,48
 264 469 264 469 261.5 451.5 c 128,-1,49
 259 434 259 434 248 421 c 128,-1,50
 237 408 237 408 227 402 c 2,51,-1
 217 395 l 1,52,53
 240 402 240 402 249 402 c 0,54,55
 259 402 259 402 260 398 c 128,-1,56
 261 394 261 394 254 394 c 0,57,58
 205 394 205 394 205 360 c 0,59,60
 205 356 205 356 206 352 c 1,61,62
 225 377 225 377 249 377 c 0,63,64
 303 377 303 377 303 343 c 0,65,66
 303 325 303 325 286 322 c 128,-1,67
 269 319 269 319 269 334 c 0,68,69
 269 348 269 348 279 348 c 0,70,71
 284 348 284 348 291 345 c 1,19,20
261 126 m 128,-1,73
 261 121 261 121 256 121 c 0,74,75
 250 121 250 121 250 126 c 128,-1,76
 250 131 250 131 255.5 131 c 128,-1,72
 261 131 261 131 261 126 c 128,-1,73
254 138 m 0,77,78
 254 133 254 133 248 133 c 0,79,80
 243 133 243 133 243 138 c 0,81,82
 243 144 243 144 248.5 144 c 128,-1,83
 254 144 254 144 254 138 c 0,77,78
259 151 m 0,84,85
 259 146 259 146 254 146 c 0,86,87
 248 146 248 146 248 151 c 0,88,89
 248 157 248 157 253.5 157 c 128,-1,90
 259 157 259 157 259 151 c 0,84,85
231 194 m 1,91,92
 231 174 231 174 267 174 c 0,93,94
 277 174 277 174 285 177 c 0,95,96
 318 190 318 190 322 215 c 1,97,98
 329 199 329 199 329 179 c 128,-1,99
 329 159 329 159 312 138 c 128,-1,100
 295 117 295 117 295 105 c 1,101,-1
 295 93 l 1,102,103
 287 93 287 93 287 109 c 1,104,-1
 289 124 l 1,105,106
 269 104 269 104 269 88 c 0,107,108
 269 57 269 57 295 57 c 0,109,110
 310 57 310 57 315 69 c 1,111,112
 320 77 320 77 317 88 c 1,113,114
 324 85 324 85 324 76 c 0,115,116
 324 66 324 66 317 57 c 128,-1,117
 310 48 310 48 294 48 c 128,-1,118
 278 48 278 48 268 59 c 128,-1,119
 258 70 258 70 260.5 87.5 c 128,-1,120
 263 105 263 105 274 118.5 c 128,-1,121
 285 132 285 132 295 138 c 2,122,-1
 305 144 l 1,123,124
 282 137 282 137 273 137 c 0,125,126
 263 137 263 137 262 141 c 128,-1,127
 261 145 261 145 268 145 c 0,128,129
 317 145 317 145 317 179 c 0,130,131
 317 183 317 183 316 187 c 1,132,133
 297 162 297 162 273 162 c 0,134,135
 219 162 219 162 219 196 c 0,136,137
 219 214 219 214 236 217 c 128,-1,138
 253 220 253 220 253 205 c 0,139,140
 253 191 253 191 243 191 c 0,141,142
 238 191 238 191 231 194 c 1,91,92
40 16 m 1,143,144
 8 -10 8 -10 8 -33 c 0,145,146
 8 -41 8 -41 11 -50 c 0,147,148
 18 -72 18 -72 38 -72 c 1,149,-1
 36 -60 l 1,150,151
 36 -42 36 -42 55 -42 c 0,152,153
 75 -42 75 -42 78 -52 c 0,154,155
 82 -64 82 -64 74 -77 c 0,156,157
 65 -91 65 -91 46 -91 c 0,158,159
 26 -91 26 -91 10 -77.5 c 128,-1,160
 -6 -64 -6 -64 -6 -40 c 0,161,162
 -6 18 -6 18 70 57 c 0,163,164
 123 84 123 84 147 84 c 0,165,166
 170 84 170 84 198 72 c 0,167,168
 227 59 227 59 256 19 c 0,169,170
 266 5 266 5 285 5 c 0,171,172
 302 5 302 5 325 13 c 0,173,174
 372 30 372 30 389 86 c 0,175,176
 396 109 396 109 396 136 c 0,177,178
 396 164 396 164 382 194 c 0,179,180
 359 243 359 243 308 252 c 0,181,182
 286 256 286 256 250 256 c 128,-1,183
 214 256 214 256 165 277 c 0,184,185
 113 299 113 299 95 326 c 0,186,187
 75 355 75 355 75 402 c 0,188,189
 75 486 75 486 131 518 c 128,-1,190
 187 550 187 550 257 550 c 0,191,192
 444 550 444 550 444 439 c 1,193,-1
 470 439 l 1,194,-1
 470 427 l 1,195,-1
 342 427 l 1,196,-1
 342 439 l 1,197,-1
 368 439 l 1,198,199
 368 529 368 529 257 529 c 0,200,201
 216 529 216 529 186 506 c 0,202,203
 138 469 138 469 138 402 c 0,204,205
 138 353 138 353 160 325 c 0,206,207
 184 296 184 296 209 287 c 128,-1,208
 234 278 234 278 276 278 c 0,209,210
 308 277 308 277 340 270 c 0,211,212
 413 254 413 254 432 223 c 0,213,214
 465 174 465 174 465 145 c 0,215,216
 465 74 465 74 424 38 c 0,217,218
 382 1 382 1 336 -4 c 0,219,220
 310 -7 310 -7 289 -7 c 128,-1,221
 268 -7 268 -7 239.5 -4 c 128,-1,222
 211 -1 211 -1 194 9 c 128,-1,223
 177 19 177 19 161.5 33 c 128,-1,224
 146 47 146 47 140 52 c 128,-1,225
 134 57 134 57 121 57 c 0,226,227
 107 57 107 57 86 45 c 0,228,229
 52 26 52 26 43 -9 c 2,230,-1
 40 -21 l 1,231,232
 36 -13 36 -13 36 -3 c 1,233,-1
 40 16 l 1,143,144
EndSplineSet
Validated: 3073
Substitution2: "'ss01' Style Set Simple Forms-1" uni0405.simple
Colour: ff00
EndChar

StartChar: uni0410
Encoding: 1040 1040 14
Width: 430
Flags: W
HStem: -128 10<34.1125 81.793> -91 35<23 42.8506> 0 12<283 309 385 411> 407 32<174.188 201.996> 422 7<238.148 266.281> 443 11<240.057 286.609> 470 12<200.987 279.032> 488 10<213.001 223.999> 503 10<204.001 214.999> 517 10<212.001 222.999> 538 12<283 309 385 411> 644 10<200.86 235.277>
VStem: 0 23<-112.832 -91> 121 24<-76.6914 2.9834 18 49.5381> 160 14<436 452.375> 177 9<594.75 628.733> 204 11<503.001 512.999> 213 11<488.001 497.999 517.06 526.94> 226 11<557.909 584.344> 247 7<609.265 627.901> 309 76<12 143 154.258 418 437 462.029 465 490.887 495 538>
DStem2: 234 512 233 503 0.982872 -0.184289<-9.48036 32.277>
AnchorPoint: "Yerok" 351 585.8 basechar 0
AnchorPoint: "Diacritic" 347 585 basechar 0
LayerCount: 3
Fore
SplineSet
223 522 m 0xe63f38
 223 519 221 517 218 517 c 0
 215 517 212 519 212 522 c 0
 212 525 215 527 218 527 c 0
 221 527 223 525 223 522 c 0xe63f38
215 508 m 0xe67fb8
 215 505 213 503 210 503 c 0
 207 503 204 505 204 508 c 0
 204 511 207 513 210 513 c 0
 213 513 215 511 215 508 c 0xe67fb8
224 493 m 0xe6bf78
 224 490 221 488 218 488 c 0xe73f78
 215 488 213 490 213 493 c 0xe6bf78
 213 496 215 498 218 498 c 0xe73f78
 221 498 224 496 224 493 c 0xe6bf78
309 162 m 1
 309 418 l 1
 288 390 232 349 195 281 c 0
 151 199 146 60 146 18 c 1
 154 22 172 26 181 31 c 0
 201 43 214 70 219 83 c 0
 234 120 267 150 309 162 c 1
220 654 m 0
 241 654 254 640 254 620 c 0
 254 613 252 608 246 605 c 0
 240 603 252 611 243 629 c 0
 238 639 230 644 218 644 c 0
 201 644 186 631 186 612 c 0
 186 582 230 548 230 548 c 2
 230 548 226 554 226 566 c 0
 226 585 238 587 238 587 c 1
 238 587 237 581 238 572 c 0
 242 543 284 503 309 495 c 1
 309 538 l 1
 283 538 l 1
 283 550 l 1
 411 550 l 1
 411 538 l 1
 385 538 l 1
 385 12 l 1
 411 12 l 1
 411 0 l 1
 283 0 l 1
 283 12 l 1
 309 12 l 1
 309 143 l 1
 300 140 292 136 283 131 c 0
 263 119 246 93 237 72 c 0
 219 31 197 12 145 0 c 1
 145 -102 99 -128 69 -128 c 0
 26 -128 0 -115 0 -85 c 0
 0 -67 10 -56 23 -56 c 0
 33 -56 43 -63 43 -70 c 0
 43 -89 30 -91 26 -91 c 0
 23 -91 l 1
 23 -116 43 -118 55 -118 c 0
 56 -118 58 -118 59 -118 c 0
 133 -118 118 4 123 51 c 1
 123 51 118 34 96 17 c 0
 79 4 65 0 65 0 c 1
 65 0 82 8 87 38 c 0
 91 64 96 174 126 242 c 0
 169 338 233 363 283 409 c 1
 282 411 268 418 267 418 c 0
 261 421 255 422 251 422 c 0
 246 422 243 420 240 420 c 0
 239 420 238 421 238 424 c 0
 238 427 244 429 252 429 c 0xeebf38
 257 429 263 428 269 427 c 0
 278 425 292 417 292 417 c 1
 298 423 300 424 304 428 c 1
 299 432 290 438 278 441 c 0
 262 446 240 442 240 448 c 0
 240 451 249 454 261 454 c 0
 279 454 302 444 309 437 c 1
 309 453 l 1
 295 463 252 470 236 470 c 0
 210 470 174 460 174 436 c 1
 174 436 180 439 187 439 c 0
 194 439 202 436 202 421 c 0
 202 411 195 407 187 407 c 0
 172 407 160 416 160 432 c 0
 160 465 197 482 232 482 c 0
 257 482 293 476 309 465 c 1
 309 479 l 1
 298 485 287 491 284 493 c 0
 261 505 223 500 223 507 c 0
 223 510 229 512 234 512 c 0xf6bf38
 247 512 266 506 266 506 c 1
 266 506 177 560 177 600 c 0
 177 604 176 608 176 611 c 0
 176 622 179 633 186 641 c 0
 195 650 208 654 220 654 c 0
EndSplineSet
Validated: 1
Layer: 2
SplineSet
223 522 m 128,-1,1
 223 517 223 517 217.5 517 c 128,-1,2
 212 517 212 517 212 522 c 128,-1,3
 212 527 212 527 217.5 527 c 128,-1,0
 223 527 223 527 223 522 c 128,-1,1
215 508 m 128,-1,5
 215 503 215 503 209.5 503 c 128,-1,6
 204 503 204 503 204 508 c 128,-1,7
 204 513 204 513 209.5 513 c 128,-1,4
 215 513 215 513 215 508 c 128,-1,5
224 493 m 128,-1,9
 224 488 224 488 218.5 488 c 128,-1,10
 213 488 213 488 213 493 c 128,-1,11
 213 498 213 498 218.5 498 c 128,-1,8
 224 498 224 498 224 493 c 128,-1,9
309 162 m 1,12,-1
 309 418 l 1,13,-1
 263 370 l 2,14,15
 217 322 217 322 195 281 c 0,16,17
 146 190 146 190 146 18 c 1,18,19
 150 20 150 20 163 24 c 128,-1,20
 176 28 176 28 181 31 c 0,21,22
 204 45 204 45 219 83 c 0,23,24
 243 143 243 143 309 162 c 1,12,-1
177 600 m 1,25,-1
 176 611 l 1,26,27
 176 630 176 630 187.5 642 c 128,-1,28
 199 654 199 654 217.5 654 c 128,-1,29
 236 654 236 654 245 644.5 c 128,-1,30
 254 635 254 635 254 622 c 0,31,32
 254 610 254 610 246 605 c 0,33,34
 243 603 243 603 245 608 c 0,35,36
 248 613 248 613 247 616 c 128,-1,37
 246 619 246 619 245.5 622.5 c 128,-1,38
 245 626 245 626 243 629 c 0,39,40
 236 644 236 644 220.5 644 c 128,-1,41
 205 644 205 644 195.5 635 c 128,-1,42
 186 626 186 626 186 612.5 c 128,-1,43
 186 599 186 599 197 583 c 128,-1,44
 208 567 208 567 219 558 c 2,45,-1
 230 548 l 1,46,47
 226 554 226 554 226 568.5 c 128,-1,48
 226 583 226 583 238 587 c 1,49,50
 237 582 237 582 237 579 c 0,51,52
 239 553 239 553 263 528 c 0,53,54
 289 501 289 501 309 495 c 1,55,-1
 309 538 l 1,56,-1
 283 538 l 1,57,-1
 283 550 l 1,58,-1
 411 550 l 1,59,-1
 411 538 l 1,60,-1
 385 538 l 1,61,-1
 385 12 l 1,62,-1
 411 12 l 1,63,-1
 411 0 l 1,64,-1
 283 0 l 1,65,-1
 283 12 l 1,66,-1
 309 12 l 1,67,-1
 309 143 l 1,68,69
 298 139 298 139 276.5 126.5 c 128,-1,70
 255 114 255 114 239 77.5 c 128,-1,71
 223 41 223 41 203 25 c 128,-1,72
 183 9 183 9 145 0 c 1,73,74
 145 -68 145 -68 121.5 -98 c 128,-1,75
 98 -128 98 -128 69 -128 c 0,76,77
 0 -128 0 -128 0 -85 c 0,78,79
 0 -56 0 -56 23 -56 c 0,80,81
 31 -56 31 -56 37 -60.5 c 128,-1,82
 43 -65 43 -65 43 -70 c 0,83,84
 43 -91 43 -91 26 -91 c 2,85,-1
 23 -91 l 1,86,87
 23 -118 23 -118 55 -118 c 2,88,-1
 59 -118 l 2,89,90
 100 -118 100 -118 112 -71 c 0,91,92
 119 -43 119 -43 121 1 c 0,93,94
 123 47 123 47 123 51 c 1,95,96
 113 18 113 18 65 0 c 1,97,98
 79 7 79 7 87 38 c 0,99,100
 88 42 88 42 90 70 c 0,101,102
 94 110 94 110 96 125 c 0,103,104
 113 253 113 253 170 314 c 0,105,106
 197 343 197 343 234 370 c 0,107,108
 270 398 270 398 283 409 c 1,109,110
 282 410 282 410 271.5 416 c 128,-1,111
 261 422 261 422 251 422 c 1,112,-1
 240 420 l 2,113,114
 238 420 238 420 238 424.5 c 128,-1,115
 238 429 238 429 247.5 429 c 128,-1,116
 257 429 257 429 269 427 c 1,117,-1
 292 417 l 1,118,119
 295 420 295 420 298.5 423 c 128,-1,120
 302 426 302 426 304 428 c 1,121,122
 285 442 285 442 262 443 c 0,123,124
 240 445 240 445 240 448 c 0,125,126
 240 454 240 454 266 454 c 128,-1,127
 292 454 292 454 309 437 c 1,128,-1
 309 453 l 1,129,130
 299 460 299 460 274.5 465 c 128,-1,131
 250 470 250 470 231.5 470 c 128,-1,132
 213 470 213 470 193.5 461 c 128,-1,133
 174 452 174 452 174 436 c 1,134,135
 180 439 180 439 187 439 c 0,136,137
 202 439 202 439 202 423 c 128,-1,138
 202 407 202 407 187 407 c 0,139,140
 160 407 160 407 160 431 c 128,-1,141
 160 455 160 455 181.5 468.5 c 128,-1,142
 203 482 203 482 243.5 482 c 128,-1,143
 284 482 284 482 309 465 c 1,144,-1
 309 479 l 1,145,146
 287 491 287 491 280.5 494.5 c 128,-1,147
 274 498 274 498 258.5 500 c 128,-1,148
 243 502 243 502 233 503 c 128,-1,149
 223 504 223 504 223 507 c 0,150,151
 223 512 223 512 234 512 c 1,152,-1
 266 506 l 1,153,154
 231 527 231 527 204 554.5 c 128,-1,155
 177 582 177 582 177 600 c 1,25,-1
EndSplineSet
Validated: 19457
AlternateSubs2: "'salt' Stylistic Alternatives lookup 1-1" uni0410.alt
Substitution2: "'ss01' Style Set Simple Forms-1" uni0410.simple
Colour: ff00
EndChar

StartChar: uni0411
Encoding: 1041 1041 15
Width: 525
Flags: W
HStem: -10 11<187.553 281.967> 72 56<77.4369 123.201> 132 13<125.002 137.998> 152 13<125.002 137.998> 166 13<109.002 121.998> 269 13<29.9133 76.6485> 283 13<321.352 368.087> 397 13<292.002 304.998> 411 13<276.002 288.998> 431 13<276.002 288.998> 455 12<290.005 336.758> 533 17<270 344.578 370 404.846>
VStem: 1 12<210.82 252.055> 55 21<35.0625 79.7801> 96 14<196.159 249.71> 109 13<166.002 178.998> 125 13<132.002 144.998 152.002 164.998> 167 40<79.9407 135.763> 215 36<47.5942 125> 276 13<411.002 423.998 431.002 443.998> 288 14<315.453 366.627 397.7 409.3> 356 36<436.336 529.83> 385 12<312.945 354.18> 396 82<49.2363 209.808> 422 24<444.044 516.062>
AnchorPoint: "Yerok" 445.5 575 basechar 0
AnchorPoint: "Diacritic" 304 575 basechar 0
LayerCount: 3
Fore
SplineSet
289 438 m 0xfffc18
 289 434 286 431 283 431 c 0
 279 431 276 434 276 438 c 0
 276 441 279 444 283 444 c 0
 286 444 289 441 289 438 c 0xfffc18
289 418 m 0
 289 414 286 411 283 411 c 0
 279 411 276 414 276 418 c 0
 276 421 279 424 283 424 c 0
 286 424 289 421 289 418 c 0
305 404 m 0
 305 400 302 397 299 397 c 0
 295 397 292 400 292 404 c 0
 292 407 295 410 299 410 c 0xfffc12
 302 410 305 407 305 404 c 0
125 139 m 0xfffc90
 125 142 128 145 132 145 c 0
 135 145 138 142 138 139 c 0
 138 135 135 132 132 132 c 0
 128 132 125 135 125 139 c 0xfffc90
125 159 m 0
 125 162 128 165 132 165 c 0
 135 165 138 162 138 159 c 0
 138 155 135 152 132 152 c 0
 128 152 125 155 125 159 c 0
109 173 m 0xfffd10
 109 176 112 179 116 179 c 0
 119 179 122 176 122 173 c 0
 122 169 119 166 116 166 c 0
 112 166 109 169 109 173 c 0xfffd10
56 282 m 0
 87 282 110 258 110 231 c 0
 110 204 102 189 87 169 c 0
 80 160 68 151 61 145 c 0
 53 137 50 129 50 129 c 1
 50 129 61 143 78 150 c 0
 91 155 99 157 105 157 c 0
 111 157 115 155 115 151 c 0
 115 143 84 147 59 123 c 0
 53 117 47 99 47 99 c 1
 46 100 27 109 27 129 c 0
 27 160 50 175 50 200 c 0
 50 212 44 219 44 219 c 1
 44 219 44 219 45 219 c 0
 49 219 62 218 71 196 c 0
 76 183 74 173 74 173 c 1
 74 173 96 196 96 224 c 0xfffe10
 96 251 77 269 54 269 c 0
 30 269 13 253 13 231 c 0
 13 213 23 207 23 205 c 0
 23 205 22 205 21 205 c 0
 7 205 1 221 1 236 c 0
 1 266 27 282 56 282 c 0
315 467 m 0
 333 467 352 479 352 501 c 0
 352 515 345 527 333 533 c 1
 333 533 290 533 270 533 c 1
 270 533 290 526 302 513 c 0
 315 499 315 489 305 489 c 0
 299 489 296 499 277 515 c 0
 268 523 250 529 231 533 c 1
 224 501 211 431 211 382 c 0xfffc55
 211 369 211 357 212 345 c 1
 229 319 275 259 347 253 c 0
 426 246 478 227 478 118 c 0
 478 21 404 9 360 1 c 1
 321 -7 282 -10 246 -10 c 0
 191 -10 144 -4 116 0 c 0
 76 6 55 31 55 79 c 0
 55 109 76 128 99 128 c 0
 119 128 133 114 133 98 c 0
 133 82 117 72 103 72 c 0
 89 72 77 80 77 80 c 1
 77 80 76 76 76 71 c 0
 76 57 80 31 106 20 c 0
 118 15 130 12 143 12 c 0
 162 12 182 19 198 35 c 0
 211 48 215 67 215 86 c 0
 215 112 207 136 207 136 c 1
 207 136 206 108 188 80 c 0
 177 62 154 47 139 47 c 0
 137 47 l 0
 137 48 167 57 167 124 c 0xfffc3240
 167 141 165 163 160 189 c 0
 143 274 131 300 131 382 c 0
 131 431 141 501 147 533 c 1
 130 550 l 1
 512 550 l 1
 442 515 l 1
 442 515 446 502 446 486 c 0
 446 458 425 423 411 423 c 0
 408 423 406 425 406 427 c 0
 406 433 422 445 422 471 c 0
 422 496 412 533 384 533 c 2
 370 533 l 1
 384 524 392 503 392 481 c 0
 392 433 347 392 347 356 c 0
 347 344 353 337 353 337 c 1
 353 337 353 337 352 337 c 0xfffc5320
 348 337 335 338 326 360 c 0
 321 373 323 383 323 383 c 1
 323 383 302 367 302 341 c 0
 302 314 321 296 344 296 c 0
 368 296 385 312 385 334 c 0
 385 352 375 358 375 360 c 0
 375 360 376 360 377 360 c 0
 391 360 397 344 397 329 c 0
 397 299 371 283 342 283 c 0
 311 283 288 307 288 334 c 0xfffc1480
 288 361 298 374 310 387 c 0
 318 395 313 396 344 419 c 0
 364 434 364 447 364 447 c 1
 364 447 353 433 336 426 c 0
 323 421 315 419 309 419 c 0
 303 419 299 421 299 424 c 0xfffc12
 299 433 351 428 356 464 c 0
 356 467 357 469 357 472 c 1
 354 466 331 455 310 455 c 0
 291 455 264 470 264 479 c 0
 264 482 266 484 269 484 c 0
 276 484 289 467 315 467 c 0
216 307 m 1
 225 241 244 192 250 125 c 0
 250 119 251 114 251 108 c 0
 251 60 230 39 205 18 c 0
 199 13 193 9 187 6 c 1
 205 5 222 1 242 1 c 0
 270 1 305 8 360 38 c 0
 385 51 396 89 396 128 c 0xfffc1040
 396 179 377 231 343 233 c 0
 282 238 239 278 216 307 c 1
EndSplineSet
Validated: 1
Layer: 2
SplineSet
289 437.5 m 128,-1,1
 289 431 289 431 282.5 431 c 128,-1,2
 276 431 276 431 276 437.5 c 128,-1,3
 276 444 276 444 282.5 444 c 128,-1,0
 289 444 289 444 289 437.5 c 128,-1,1
289 417.5 m 128,-1,5
 289 411 289 411 282.5 411 c 128,-1,6
 276 411 276 411 276 417.5 c 128,-1,7
 276 424 276 424 282.5 424 c 128,-1,4
 289 424 289 424 289 417.5 c 128,-1,5
305 403.5 m 128,-1,9
 305 397 305 397 298.5 397 c 128,-1,10
 292 397 292 397 292 403.5 c 128,-1,11
 292 410 292 410 298.5 410 c 128,-1,8
 305 410 305 410 305 403.5 c 128,-1,9
125 138.5 m 128,-1,13
 125 145 125 145 131.5 145 c 128,-1,14
 138 145 138 145 138 138.5 c 128,-1,15
 138 132 138 132 131.5 132 c 128,-1,12
 125 132 125 132 125 138.5 c 128,-1,13
125 158.5 m 128,-1,17
 125 165 125 165 131.5 165 c 128,-1,18
 138 165 138 165 138 158.5 c 128,-1,19
 138 152 138 152 131.5 152 c 128,-1,16
 125 152 125 152 125 158.5 c 128,-1,17
109 172.5 m 128,-1,21
 109 179 109 179 115.5 179 c 128,-1,22
 122 179 122 179 122 172.5 c 128,-1,23
 122 166 122 166 115.5 166 c 128,-1,20
 109 166 109 166 109 172.5 c 128,-1,21
24.5 258.5 m 128,-1,25
 13 248 13 248 13 232.5 c 128,-1,26
 13 217 13 217 23 205 c 1,27,-1
 21 205 l 2,28,29
 1 205 1 205 1 231.5 c 128,-1,30
 1 258 1 258 17 270 c 128,-1,31
 33 282 33 282 56 282 c 128,-1,32
 79 282 79 282 94.5 267 c 128,-1,33
 110 252 110 252 110 226 c 128,-1,34
 110 200 110 200 87 169 c 0,35,36
 83 164 83 164 61 145 c 1,37,-1
 50 129 l 1,38,39
 61 143 61 143 78.5 150 c 128,-1,40
 96 157 96 157 105.5 157 c 128,-1,41
 115 157 115 157 115 151 c 0,42,43
 115 148 115 148 96 143 c 0,44,45
 77 139 77 139 59 123 c 1,46,-1
 47 99 l 1,47,48
 27 109 27 109 27 127 c 128,-1,49
 27 145 27 145 38.5 166.5 c 128,-1,50
 50 188 50 188 50 199.5 c 128,-1,51
 50 211 50 211 44 219 c 1,52,-1
 45 219 l 2,53,54
 62 219 62 219 71 196 c 1,55,-1
 74 173 l 1,56,57
 96 196 96 196 96 220 c 128,-1,58
 96 244 96 244 84 256.5 c 128,-1,59
 72 269 72 269 54 269 c 128,-1,24
 36 269 36 269 24.5 258.5 c 128,-1,25
137 47 m 1,60,61
 167 67 167 67 167 124 c 0,62,63
 167 160 167 160 154.5 217 c 128,-1,64
 142 274 142 274 136 301 c 0,65,66
 131 327 131 327 131 387.5 c 128,-1,67
 131 448 131 448 147 533 c 1,68,-1
 130 550 l 1,69,-1
 512 550 l 1,70,-1
 442 515 l 1,71,72
 446 502 446 502 446 483.5 c 128,-1,73
 446 465 446 465 434 444 c 128,-1,74
 422 423 422 423 411 423 c 0,75,76
 406 423 406 423 406 425.5 c 128,-1,77
 406 428 406 428 414 441.5 c 128,-1,78
 422 455 422 455 422 474.5 c 128,-1,79
 422 494 422 494 412.5 513.5 c 128,-1,80
 403 533 403 533 384 533 c 2,81,-1
 370 533 l 1,82,83
 392 519 392 519 392 487.5 c 128,-1,84
 392 456 392 456 369.5 414 c 128,-1,85
 347 372 347 372 347 358.5 c 128,-1,86
 347 345 347 345 353 337 c 1,87,-1
 352 337 l 2,88,89
 335 337 335 337 326 360 c 1,90,-1
 323 383 l 1,91,92
 302 367 302 367 302 344 c 128,-1,93
 302 321 302 321 314 308.5 c 128,-1,94
 326 296 326 296 344 296 c 128,-1,95
 362 296 362 296 373.5 306.5 c 128,-1,96
 385 317 385 317 385 332.5 c 128,-1,97
 385 348 385 348 375 360 c 1,98,-1
 377 360 l 2,99,100
 397 360 397 360 397 333.5 c 128,-1,101
 397 307 397 307 381 295 c 128,-1,102
 365 283 365 283 342 283 c 128,-1,103
 319 283 319 283 303.5 298 c 128,-1,104
 288 313 288 313 288 338 c 0,105,106
 288 365 288 365 310 387 c 0,107,108
 312 389 312 389 318 397 c 0,109,110
 324 404 324 404 343 418 c 0,111,112
 362 433 362 433 364 447 c 1,113,114
 353 433 353 433 335.5 426 c 128,-1,115
 318 419 318 419 308.5 419 c 128,-1,116
 299 419 299 419 299 424 c 0,117,118
 299 427 299 427 312 430 c 0,119,120
 356 438 356 438 356 464 c 0,121,122
 356 468 356 468 356 468 c 0,123,124
 357 470 357 470 357 472 c 1,125,126
 354 467 354 467 339.5 461 c 128,-1,127
 325 455 325 455 310.5 455 c 128,-1,128
 296 455 296 455 280 463.5 c 128,-1,129
 264 472 264 472 264 478 c 128,-1,130
 264 484 264 484 267 484 c 128,-1,131
 270 484 270 484 285 475.5 c 128,-1,132
 300 467 300 467 315 467 c 128,-1,133
 330 467 330 467 341 476 c 128,-1,134
 352 485 352 485 352 504.5 c 128,-1,135
 352 524 352 524 333 533 c 1,136,-1
 270 533 l 1,137,138
 290 526 290 526 302 513 c 1,139,140
 316 494 316 494 305 489 c 0,141,142
 304 488 304 488 296 497 c 0,143,144
 289 505 289 505 277 515 c 0,145,146
 264 526 264 526 231 533 c 1,147,148
 211 442 211 442 211 399.5 c 128,-1,149
 211 357 211 357 212 345 c 1,150,151
 268 260 268 260 347 253 c 0,152,153
 414 247 414 247 446 220.5 c 128,-1,154
 478 194 478 194 478 121 c 128,-1,155
 478 48 478 48 434 26 c 0,156,157
 365 -10 365 -10 246 -10 c 1,158,159
 186 -10 186 -10 116 0 c 0,160,161
 55 9 55 9 55 79 c 0,162,163
 55 101 55 101 68 114.5 c 128,-1,164
 81 128 81 128 97.5 128 c 128,-1,165
 114 128 114 128 123.5 119 c 128,-1,166
 133 110 133 110 133 98.5 c 128,-1,167
 133 87 133 87 123.5 79.5 c 128,-1,168
 114 72 114 72 102.5 72 c 128,-1,169
 91 72 91 72 77 80 c 1,170,171
 76 76 76 76 76 71 c 0,172,173
 76 12 76 12 150 12 c 0,174,175
 175 12 175 12 195 32 c 128,-1,176
 215 52 215 52 215 81 c 128,-1,177
 215 110 215 110 207 136 c 1,178,179
 206 108 206 108 193 87.5 c 128,-1,180
 180 67 180 67 165 57 c 128,-1,181
 150 47 150 47 139 47 c 2,182,-1
 137 47 l 1,60,61
187 6 m 1,183,-1
 242 1 l 1,184,185
 292 1 292 1 360 38 c 0,186,187
 396 57 396 57 396 128 c 0,188,189
 396 169 396 169 381.5 200.5 c 128,-1,190
 367 232 367 232 343 233 c 0,191,192
 270 239 270 239 216 307 c 1,193,194
 220 278 220 278 233.5 219.5 c 128,-1,195
 247 161 247 161 250 125 c 2,196,-1
 251 108 l 1,197,198
 251 57 251 57 212 24 c 0,199,200
 196 10 196 10 187 6 c 1,183,-1
EndSplineSet
Validated: 3073
Substitution2: "'ss01' Style Set Simple Forms-1" uni0411.simple
Colour: ff00
EndChar

StartChar: uni0412
Encoding: 1042 1042 16
Width: 455
Flags: W
HStem: -10 15<158.544 272.411> 72 56<77.4369 123.201> 132 13<125.002 137.998> 152 13<125.002 137.998> 166 13<109.002 121.998> 244 12<336.283 354.156> 266 35<385.02 404> 269 13<29.9133 76.6485> 311 11<357.741 398.64> 318 10<330.001 340.999> 334 10<328.001 338.999> 340 10<313.001 323.999> 376 10<237.62 272.504> 388 16<296.969 327.09> 436 35<216.52 263.5> 535 15<246.768 309.706>
VStem: 1 12<210.82 252.055> 55 21<35.0625 79.7801> 96 14<196.159 249.71> 109 13<166.002 178.998> 123 68<338 427.25 428 473.18> 125 13<132.002 144.998 152.002 164.998> 176 31<85.6012 135.78> 214 11<329.065 363.797> 215 35<44.5667 134.703> 288 11<325.314 360.959> 313 11<340.001 349.999> 330 11<318.001 327.999 334.206 343.794> 337 56<409.514 521.798> 377 76<60.1713 182.565> 385 38<266.371 300.811>
DStem2: 225 257.5 128.5 288 0.258489 -0.966014<-35.8893 111.143>
AnchorPoint: "Yerok" 363 575.9 basechar 0
AnchorPoint: "Diacritic" 275 575 basechar 0
LayerCount: 3
Fore
SplineSet
330 323 m 0xf89f80e0
 330 326 332 328 335 328 c 0
 338 328 341 326 341 323 c 0
 341 320 338 318 335 318 c 0
 332 318 330 320 330 323 c 0xf89f80e0
328 339 m 0
 328 342 330 344 333 344 c 0
 336 344 339 342 339 339 c 0
 339 336 336 334 333 334 c 0xf85f80c0
 330 334 328 336 328 339 c 0
313 345 m 0
 313 348 316 350 319 350 c 0
 322 350 324 348 324 345 c 0
 324 342 322 340 319 340 c 0xf83f80c0
 316 340 313 342 313 345 c 0
125 139 m 0xf81f88c0
 125 142 128 145 132 145 c 0
 135 145 138 142 138 139 c 0
 138 135 135 132 132 132 c 0
 128 132 125 135 125 139 c 0xf81f88c0
125 159 m 0
 125 162 128 165 132 165 c 0
 135 165 138 162 138 159 c 0
 138 155 135 152 132 152 c 0
 128 152 125 155 125 159 c 0
109 173 m 0xf81fa0c0
 109 176 112 179 116 179 c 0
 119 179 122 176 122 173 c 0
 122 169 119 166 116 166 c 0
 112 166 109 169 109 173 c 0xf81fa0c0
192 428 m 1
 203 446 235 471 256 471 c 0
 265 471 272 467 275 455 c 0
 282 426 299 404 313 404 c 0
 326 404 337 421 337 462 c 0xf81f80d0
 337 490 329 535 280 535 c 0
 223 535 195 482 192 428 c 1
236 436 m 0
 218 436 200 416 191 401 c 1
 192 379 195 358 200 337 c 1
 210 323 224 300 254 277 c 1
 258 282 272 299 272 314 c 0
 272 324 260 340 259 341 c 1
 259 341 261 342 263 342 c 0
 269 342 278 339 285 325 c 1
 285 325 288 332 288 342 c 0
 288 361 274 376 254 376 c 0
 236 376 225 361 225 346 c 0
 225 345 225 345 225 344 c 0
 228 324 239 326 236 323 c 0
 235 323 233 322 232 322 c 0
 222 322 214 333 214 349 c 0
 214 351 214 352 214 354 c 0
 217 373 236 386 257 386 c 0
 280 386 299 367 299 343 c 0
 299 324 288 306 288 306 c 1
 288 306 309 332 320 332 c 0
 321 332 324 331 324 330 c 0
 324 324 301 310 284 293 c 0
 275 284 263 268 263 268 c 1
 267 264 272 261 272 261 c 1
 287 277 326 302 341 310 c 0
 354 316 370 322 385 322 c 0
 399 322 423 314 423 294 c 0
 423 281 411 266 400 266 c 0
 393 266 385 277 385 284 c 0
 385 297 404 301 404 301 c 0xfd5f92e4
 398 308 391 311 382 311 c 0
 367 311 349 303 335 295 c 0
 327 290 294 268 282 253 c 1
 296 245 l 1
 299 248 304 253 312 261 c 0
 324 273 343 282 349 282 c 0
 351 282 351 281 351 280 c 0
 350 272 333 268 318 254 c 0
 318 254 313 249 305 240 c 1
 320 234 l 1
 321 235 328 243 329 243 c 0
 337 252 345 256 350 256 c 0
 352 256 354 256 355 254 c 0
 358 247 343 248 335 238 c 1
 332 231 l 1
 332 231 453 225 453 114 c 0
 453 18 388 9 345 0 c 0
 309 -7 272 -10 238 -10 c 0
 170 -10 116 0 116 0 c 1
 76 6 55 31 55 79 c 0
 55 109 76 128 99 128 c 0
 119 128 133 114 133 98 c 0
 133 82 117 72 103 72 c 0
 89 72 77 80 77 80 c 1
 77 80 76 76 76 71 c 0
 76 57 80 31 106 20 c 0
 118 15 130 12 143 12 c 0
 162 12 182 19 198 35 c 0
 211 48 215 67 215 86 c 0
 215 112 207 136 207 136 c 1
 207 136 206 108 188 80 c 0
 177 62 154 47 139 47 c 0
 138 47 l 0
 138 49 176 58 176 115 c 0xfb1f8dc8
 176 134 172 158 160 189 c 0
 125 282 123 300 123 382 c 0xfb1f90c0
 123 467 173 545 256 550 c 0
 263 550 270 551 276 551 c 0
 359 551 393 516 393 463 c 0
 393 411 351 388 313 388 c 0
 296 388 280 393 268 401 c 0
 249 414 250 436 236 436 c 0
250 125 m 0xf81f81c8
 250 52 228 22 179 6 c 1
 188 5 199 5 210 5 c 0
 254 5 311 13 355 60 c 0
 369 75 377 102 377 129 c 0
 377 165 362 203 328 211 c 0
 281 222 240 261 213 292 c 1
 230 239 250 186 250 125 c 0xf81f81c8
56 282 m 0xfa1fc0c0
 87 282 110 258 110 231 c 0
 110 204 102 189 87 169 c 0
 80 160 68 151 61 145 c 0
 53 137 50 129 50 129 c 1
 50 129 61 143 78 150 c 0
 91 155 99 157 105 157 c 0
 111 157 115 155 115 151 c 0
 115 143 84 147 59 123 c 0
 53 117 47 99 47 99 c 1
 46 100 27 109 27 129 c 0
 27 160 50 175 50 200 c 0
 50 212 44 219 44 219 c 1
 44 219 44 219 45 219 c 0
 49 219 62 218 71 196 c 0
 76 183 74 173 74 173 c 1
 74 173 96 196 96 224 c 0
 96 251 77 269 54 269 c 0
 30 269 13 253 13 231 c 0
 13 213 23 207 23 205 c 0
 23 205 22 205 21 205 c 0
 7 205 1 221 1 236 c 0
 1 266 27 282 56 282 c 0xfa1fc0c0
EndSplineSet
Validated: 1
Layer: 2
SplineSet
330 323 m 128,-1,1
 330 328 330 328 335.5 328 c 128,-1,2
 341 328 341 328 341 323 c 128,-1,3
 341 318 341 318 335.5 318 c 128,-1,0
 330 318 330 318 330 323 c 128,-1,1
328 339 m 128,-1,5
 328 344 328 344 333.5 344 c 128,-1,6
 339 344 339 344 339 339 c 128,-1,7
 339 334 339 334 333.5 334 c 128,-1,4
 328 334 328 334 328 339 c 128,-1,5
313 345 m 128,-1,9
 313 350 313 350 318.5 350 c 128,-1,10
 324 350 324 350 324 345 c 128,-1,11
 324 340 324 340 318.5 340 c 128,-1,8
 313 340 313 340 313 345 c 128,-1,9
125 138.5 m 128,-1,13
 125 145 125 145 131.5 145 c 128,-1,14
 138 145 138 145 138 138.5 c 128,-1,15
 138 132 138 132 131.5 132 c 128,-1,12
 125 132 125 132 125 138.5 c 128,-1,13
125 158.5 m 128,-1,17
 125 165 125 165 131.5 165 c 128,-1,18
 138 165 138 165 138 158.5 c 128,-1,19
 138 152 138 152 131.5 152 c 128,-1,16
 125 152 125 152 125 158.5 c 128,-1,17
109 172.5 m 128,-1,21
 109 179 109 179 115.5 179 c 128,-1,22
 122 179 122 179 122 172.5 c 128,-1,23
 122 166 122 166 115.5 166 c 128,-1,20
 109 166 109 166 109 172.5 c 128,-1,21
192 428 m 1,24,25
 201 443 201 443 221 457 c 128,-1,26
 241 471 241 471 256 471 c 128,-1,27
 271 471 271 471 275 455 c 0,28,29
 280 433 280 433 291 418.5 c 128,-1,30
 302 404 302 404 313 404 c 0,31,32
 337 404 337 404 337 462 c 0,33,34
 337 535 337 535 280 535 c 0,35,36
 240 535 240 535 217 503.5 c 128,-1,37
 194 472 194 472 192 428 c 1,24,25
76 71 m 0,38,39
 76 12 76 12 150 12 c 0,40,41
 175 12 175 12 195 32 c 128,-1,42
 215 52 215 52 215 81 c 128,-1,43
 215 110 215 110 207 136 c 1,44,45
 206 108 206 108 193 87.5 c 128,-1,46
 180 67 180 67 165 57 c 128,-1,47
 150 47 150 47 139 47 c 1,48,49
 155 58 155 58 166 71 c 0,50,51
 176 84 176 84 176 116 c 128,-1,52
 176 148 176 148 155 202.5 c 128,-1,53
 134 257 134 257 128.5 288 c 128,-1,54
 123 319 123 319 123 383.5 c 128,-1,55
 123 448 123 448 159.5 497 c 128,-1,56
 196 546 196 546 256 550 c 2,57,-1
 276 551 l 1,58,59
 393 551 393 551 393 463 c 0,60,61
 393 427 393 427 369 407.5 c 128,-1,62
 345 388 345 388 316.5 388 c 128,-1,63
 288 388 288 388 273.5 397.5 c 128,-1,64
 259 407 259 407 251 421.5 c 128,-1,65
 243 436 243 436 236 436 c 0,66,67
 212 436 212 436 191 401 c 1,68,69
 192 369 192 369 200 337 c 1,70,71
 229 296 229 296 254 277 c 1,72,73
 272 300 272 300 272 314 c 128,-1,74
 272 328 272 328 259 341 c 1,75,76
 261 342 261 342 263 342 c 0,77,78
 276 342 276 342 285 325 c 1,79,80
 288 332 288 332 288 344 c 128,-1,81
 288 356 288 356 278.5 366 c 128,-1,82
 269 376 269 376 255 376 c 128,-1,83
 241 376 241 376 233 367 c 128,-1,84
 225 358 225 358 225 346 c 2,85,-1
 225 344 l 1,86,87
 227 331 227 331 230 329 c 128,-1,88
 233 327 233 327 235 326 c 0,89,90
 237 324 237 324 236 323 c 2,91,-1
 232 322 l 1,92,93
 214 322 214 322 214 349 c 2,94,-1
 214 354 l 1,95,96
 216 368 216 368 228.5 377 c 128,-1,97
 241 386 241 386 257.5 386 c 128,-1,98
 274 386 274 386 286.5 373.5 c 128,-1,99
 299 361 299 361 299 343 c 0,100,101
 299 324 299 324 288 306 c 1,102,103
 309 332 309 332 320 332 c 0,104,105
 324 332 324 332 324 329.5 c 128,-1,106
 324 327 324 327 318 322 c 128,-1,107
 312 317 312 317 301.5 308.5 c 128,-1,108
 291 300 291 300 284 293 c 2,109,-1
 263 268 l 1,110,-1
 272 261 l 1,111,112
 295 285 295 285 341 310 c 1,113,114
 367 322 367 322 382.5 322 c 128,-1,115
 398 322 398 322 410.5 315 c 128,-1,116
 423 308 423 308 423 296 c 128,-1,117
 423 284 423 284 415.5 275 c 128,-1,118
 408 266 408 266 401.5 266 c 128,-1,119
 395 266 395 266 390 272.5 c 128,-1,120
 385 279 385 279 385 284 c 0,121,122
 385 295 385 295 404 301 c 1,123,124
 395 311 395 311 379 311 c 128,-1,125
 363 311 363 311 329.5 291 c 128,-1,126
 296 271 296 271 282 253 c 1,127,-1
 296 245 l 1,128,-1
 312 261 l 2,129,130
 333 282 333 282 349 282 c 0,131,132
 351 282 351 282 351 280 c 0,133,134
 351 276 351 276 336 267 c 128,-1,135
 321 258 321 258 305 240 c 1,136,-1
 320 234 l 1,137,-1
 329 243 l 2,138,139
 341 256 341 256 347.5 256 c 128,-1,140
 354 256 354 256 355 253.5 c 128,-1,141
 356 251 356 251 353 249 c 128,-1,142
 350 247 350 247 343 244 c 128,-1,143
 336 241 336 241 332 231 c 1,144,145
 347 231 347 231 371 223 c 128,-1,146
 395 215 395 215 411 203.5 c 128,-1,147
 427 192 427 192 440 168.5 c 128,-1,148
 453 145 453 145 453 116 c 128,-1,149
 453 87 453 87 445 66.5 c 128,-1,150
 437 46 437 46 428.5 35.5 c 128,-1,151
 420 25 420 25 400.5 16.5 c 128,-1,152
 381 8 381 8 374 6 c 0,153,154
 297 -10 297 -10 237.5 -10 c 128,-1,155
 178 -10 178 -10 132 -2 c 2,156,-1
 116 0 l 2,157,158
 55 9 55 9 55 79 c 0,159,160
 55 101 55 101 68 114.5 c 128,-1,161
 81 128 81 128 97.5 128 c 128,-1,162
 114 128 114 128 123.5 119 c 128,-1,163
 133 110 133 110 133 98.5 c 128,-1,164
 133 87 133 87 123.5 79.5 c 128,-1,165
 114 72 114 72 102.5 72 c 128,-1,166
 91 72 91 72 77 80 c 1,167,168
 76 76 76 76 76 71 c 0,38,39
179 6 m 1,169,170
 188 5 188 5 210 5 c 0,171,172
 305 5 305 5 355 60 c 0,173,174
 377 84 377 84 377 121 c 0,175,176
 377 199 377 199 328 211 c 0,177,178
 271 225 271 225 213 292 c 1,179,180
 220 276 220 276 225 257.5 c 128,-1,181
 230 239 230 239 234 224 c 0,182,183
 250 172 250 172 250 112 c 0,184,185
 250 28 250 28 179 6 c 1,169,170
24.5 258.5 m 128,-1,187
 13 248 13 248 13 232.5 c 128,-1,188
 13 217 13 217 23 205 c 1,189,-1
 21 205 l 2,190,191
 1 205 1 205 1 231.5 c 128,-1,192
 1 258 1 258 17 270 c 128,-1,193
 33 282 33 282 56 282 c 128,-1,194
 79 282 79 282 94.5 267 c 128,-1,195
 110 252 110 252 110 226 c 128,-1,196
 110 200 110 200 87 169 c 0,197,198
 83 164 83 164 61 145 c 1,199,-1
 50 129 l 1,200,201
 61 143 61 143 78.5 150 c 128,-1,202
 96 157 96 157 105.5 157 c 128,-1,203
 115 157 115 157 115 151 c 0,204,205
 115 148 115 148 96 143 c 0,206,207
 77 139 77 139 59 123 c 1,208,-1
 47 99 l 1,209,210
 27 109 27 109 27 127 c 128,-1,211
 27 145 27 145 38.5 166.5 c 128,-1,212
 50 188 50 188 50 199.5 c 128,-1,213
 50 211 50 211 44 219 c 1,214,-1
 45 219 l 2,215,216
 62 219 62 219 71 196 c 1,217,-1
 74 173 l 1,218,219
 96 196 96 196 96 220 c 128,-1,220
 96 244 96 244 84 256.5 c 128,-1,221
 72 269 72 269 54 269 c 128,-1,186
 36 269 36 269 24.5 258.5 c 128,-1,187
EndSplineSet
Validated: 3073
Substitution2: "'ss01' Style Set Simple Forms-1" uni0412.simple
Colour: ff00
EndChar

StartChar: uni0410.simple
Encoding: 62736 62736 17
Width: 430
GlyphClass: 2
Flags: W
HStem: 0 12<33.6423 71.1716 283 309 385 411> 42 32.5<21.0215 40.7839> 147 19<156 309> 538 12<283 309 385 411>
VStem: -1 22<20.8906 42> 11 30<42.9001 74.358> 90.5 63.5<35.7078 62 84.1366 147 166 233.819> 309 76<12 147 166 418 437 538>
AnchorPoint: "Yerok" 348.5 581 basechar 0
AnchorPoint: "Diacritic" 348 579 basechar 0
LayerCount: 3
Fore
SplineSet
309 166 m 1
 309 418 l 1
 288 390 232 349 195 281 c 0
 167 230 159 195 156 166 c 1
 309 166 l 1
-0 51 m 0
 -0 68 8 77 20 77 c 0
 31 77 41 70 41 63 c 0
 41 44 28 42 24 42 c 0
 21 42 l 1
 21 23 36 14 52 14 c 0
 60 14 68 16 75 20 c 0
 91 29 92 62 92 62 c 1
 92 62 85 55 78 50 c 0
 69 44 59 46 59 46 c 1
 59 46 79 58 88 84 c 0
 90 90 91 98 91 108 c 0
 91 115 91 123 91 132 c 0
 91 158 93 193 112 236 c 0
 144 308 309 437 309 437 c 1
 309 538 l 1
 283 538 l 1
 283 550 l 1
 411 550 l 1
 411 538 l 1
 385 538 l 1
 385 12 l 1
 411 12 l 1
 411 0 l 1
 283 0 l 1
 283 12 l 1
 309 12 l 1
 309 147 l 1
 309 147 156 147 155 147 c 1
 155 135 156 124 156 113 c 0
 156 104 155 95 154 86 c 0
 148 31 98 0 49 0 c 0
 20 0 -0 24 -0 51 c 0
EndSplineSet
Validated: 1
Layer: 2
SplineSet
309 166 m 1,0,-1
 309 418 l 1,1,2
 263 370 l 2,3,4
 168 270 168 270 156 166 c 1,5,-1
 309 166 l 1,0,-1
21 42 m 1,6,7
 21 13 21 13 57 13 c 0,8,9
 65 13 65 13 71 17 c 0,10,11
 90 30 90 30 92 54 c 2,12,-1
 92 62 l 1,13,14
 76 46 76 46 63 46 c 0,15,16
 61 46 61 46 59 46 c 1,17,18
 79 58 79 58 88 84 c 0,19,20
 89 88 89 88 90.5 139.5 c 128,-1,21
 92 191 92 191 109 229.5 c 128,-1,22
 126 268 126 268 175.5 318 c 128,-1,23
 225 368 225 368 267 402 c 2,24,-1
 309 437 l 1,25,-1
 309 538 l 1,26,-1
 283 538 l 1,27,-1
 283 550 l 1,28,-1
 411 550 l 1,29,-1
 411 538 l 1,30,-1
 385 538 l 1,31,-1
 385 12 l 1,32,-1
 411 12 l 1,33,-1
 411 0 l 1,34,-1
 283 0 l 1,35,-1
 283 12 l 1,36,-1
 309 12 l 1,37,-1
 309 147 l 1,38,-1
 155 147 l 1,39,40
 155 93 155 93 154 86 c 0,41,42
 150 47 150 47 119 23.5 c 128,-1,43
 88 0 88 0 57 0 c 0,44,45
 28 0 28 0 13 17 c 0,46,47
 -1 33 -1 33 -1 42 c 0,48,49
 -0 71 -0 71 11 75 c 0,50,51
 23 79 23 79 32.5 74.5 c 128,-1,52
 42 70 42 70 41 60 c 0,53,54
 39 39 39 39 24 42 c 0,55,56
 23 42 23 42 21 42 c 1,6,7
EndSplineSet
Validated: 19457
Colour: ff00
EndChar

StartChar: uni0411.simple
Encoding: 62737 62737 18
Width: 470
GlyphClass: 2
Flags: W
HStem: -9 10<134.33 228.715> 72 56<22.437 70.1715> 282 14<264.411 305> 397 13<237.015 249.986> 411 13<221.015 233.986> 418 9.5<244.548 265.579> 431 13<221.015 233.986> 455 11<236.545 280.435> 533 17<215 289.124 315 349.35>
VStem: 0 21.5<35.0781 79.8398> 76 80<318.1 530.168> 113 39<80.1484 135.885> 160 36<46.9857 135.832> 221 13<411.015 423.998 431.015 443.998> 233 13<317.972 363.936 397.99 408.932> 302 35<436.866 472> 342 81<51.0643 210.191> 367 25<445.527 514.532>
DStem2: 161 307 82 301 0.184107 -0.982906<0 165.755>
AnchorPoint: "Yerok" 391.5 575 basechar 0
AnchorPoint: "Diacritic" 257 575 basechar 0
LayerCount: 3
Fore
SplineSet
234 438 m 0xff98
 234 434 231 431 228 431 c 0
 224 431 221 434 221 438 c 0
 221 441 224 444 228 444 c 0
 231 444 234 441 234 438 c 0xff98
234 418 m 0
 234 414 231 411 228 411 c 0
 224 411 221 414 221 418 c 0
 221 421 224 424 228 424 c 0
 231 424 234 421 234 418 c 0
250 404 m 0
 250 400 247 397 244 397 c 0
 240 397 237 400 237 404 c 0
 237 407 240 410 244 410 c 0xff92
 247 410 250 407 250 404 c 0
260 467 m 0
 278 467 297 479 297 501 c 0
 297 515 290 527 278 533 c 1
 278 533 235 533 215 533 c 1
 215 533 235 526 247 513 c 0
 260 499 260 489 250 489 c 0
 244 489 241 499 222 515 c 0
 213 523 195 529 176 533 c 1
 169 501 156 431 156 382 c 0xffd5
 156 369 156 357 157 345 c 1
 174 319 220 259 292 253 c 0
 371 246 423 227 423 118 c 0
 423 21 349 9 305 1 c 1
 266 -7 227 -10 191 -10 c 0
 136 -10 89 -4 61 0 c 0
 21 6 0 31 0 79 c 0
 0 109 21 128 44 128 c 0
 64 128 78 114 78 98 c 0
 78 82 62 72 48 72 c 0
 34 72 22 80 22 80 c 1
 22 80 21 76 21 71 c 0
 21 57 25 31 51 20 c 0
 63 15 75 12 88 12 c 0
 107 12 127 19 143 35 c 0
 156 48 160 67 160 86 c 0
 160 112 152 136 152 136 c 1
 152 136 151 108 133 80 c 0
 122 62 99 47 84 47 c 0
 82 47 l 0
 82 48 112 57 112 124 c 0xffb240
 112 141 110 163 105 189 c 0
 88 274 76 300 76 382 c 0
 76 431 86 501 92 533 c 1
 75 550 l 1
 457 550 l 1
 387 515 l 1
 387 515 391 502 391 486 c 0
 391 458 370 423 356 423 c 0
 353 423 351 425 351 427 c 0
 351 433 367 445 367 471 c 0
 367 496 357 533 329 533 c 2
 315 533 l 1
 329 524 337 503 337 481 c 0
 337 433 292 392 292 356 c 0
 292 344 298 337 298 337 c 1
 298 337 298 337 297 337 c 0xffd320
 293 337 280 338 271 360 c 0
 266 373 268 383 268 383 c 1
 268 383 247 367 247 341 c 0
 247 314 266 296 289 296 c 0
 313 296 330 312 330 334 c 0
 330 352 320 358 320 360 c 0
 320 360 321 360 322 360 c 0
 336 360 342 344 342 329 c 0
 342 299 316 283 287 283 c 0
 256 283 233 307 233 334 c 0xff9480
 233 361 243 374 255 387 c 0
 263 395 258 396 289 419 c 0
 309 434 309 447 309 447 c 1
 309 447 298 433 281 426 c 0
 268 421 260 419 254 419 c 0
 248 419 244 421 244 424 c 0
 244 433 296 428 301 464 c 0
 301 467 302 469 302 472 c 1
 299 466 276 455 255 455 c 0
 236 455 209 470 209 479 c 0
 209 482 211 484 214 484 c 0
 221 484 234 467 260 467 c 0
161 307 m 1
 170 241 189 192 195 125 c 0
 195 119 196 114 196 108 c 0
 196 60 175 39 150 18 c 0
 144 13 138 9 132 6 c 1
 150 5 167 1 187 1 c 0
 215 1 250 8 305 38 c 0
 330 51 341 89 341 128 c 0xff9040
 341 179 322 231 288 233 c 0
 227 238 184 278 161 307 c 1
EndSplineSet
Validated: 1
Layer: 2
SplineSet
234 438 m 0,0,1
 234 431 234 431 228 431 c 0,2,3
 221 431 221 431 221 437 c 0,4,5
 221 444 221 444 227.5 444 c 128,-1,6
 234 444 234 444 234 438 c 0,0,1
234 418 m 0,7,8
 234 411 234 411 228 411 c 0,9,10
 221 411 221 411 221 417 c 0,11,12
 221 424 221 424 227.5 424 c 128,-1,13
 234 424 234 424 234 418 c 0,7,8
250 404 m 0,14,15
 250 397 250 397 244 397 c 0,16,17
 237 397 237 397 237 403 c 0,18,19
 237 410 237 410 243.5 410 c 128,-1,20
 250 410 250 410 250 404 c 0,14,15
315 533 m 1,21,22
 337 518 337 518 337 477 c 0,23,24
 337 466 337 466 332 454 c 0,25,26
 325 436 325 436 310 407 c 0,27,28
 291 370 291 370 291 358 c 128,-1,29
 291 346 291 346 298 337 c 1,30,31
 297 337 297 337 296 337 c 128,-1,32
 295 337 295 337 294 337 c 128,-1,33
 293 337 293 337 292 337 c 0,34,35
 281 335 281 335 271 360 c 1,36,-1
 268 383 l 1,37,38
 246 361 246 361 246 346 c 128,-1,39
 246 331 246 331 251 321 c 1,40,41
 260 296 260 296 289 296 c 1,42,-1
 305 299 l 1,43,44
 331 311 331 311 331 328 c 128,-1,45
 331 345 331 345 320 359 c 1,46,-1
 322 360 l 1,47,48
 335 360 335 360 340 343 c 128,-1,49
 345 326 345 326 339 313 c 1,50,51
 332 295 332 295 308 286 c 0,52,53
 297 282 297 282 286 282 c 0,54,55
 274 282 274 282 263 288 c 0,56,57
 233 304 233 304 233 332 c 0,58,59
 233 365 233 365 255 387 c 0,60,61
 258 390 258 390 263 397 c 128,-1,62
 268 404 268 404 288 418 c 0,63,64
 307 433 307 433 309 447 c 1,65,66
 299 434 299 434 280 426 c 128,-1,67
 261 418 261 418 254 418 c 0,68,69
 246 418 246 418 244.5 422 c 128,-1,70
 243 426 243 426 248 427.5 c 128,-1,71
 253 429 253 429 261 431 c 128,-1,72
 269 433 269 433 278 436 c 0,73,74
 301 445 301 445 301 464 c 0,75,76
 301 467 301 467 302 468 c 0,77,78
 302 470 302 470 302 472 c 1,79,80
 298 465 298 465 282 460 c 128,-1,81
 266 455 266 455 257 455 c 0,82,83
 220 456 220 456 210 477 c 0,84,85
 208 481 208 481 211 483 c 0,86,87
 215 486 215 486 229 476 c 128,-1,88
 243 466 243 466 259 466 c 0,89,90
 288 467 288 467 296 491 c 0,91,92
 300 504 300 504 294.5 516 c 128,-1,93
 289 528 289 528 278 533 c 1,94,-1
 215 533 l 1,95,96
 235 526 235 526 249.5 510 c 128,-1,97
 264 494 264 494 254 490 c 1,98,99
 252 490 252 490 249 489 c 128,-1,100
 246 488 246 488 239 498 c 0,101,102
 232 507 232 507 221 516.5 c 128,-1,103
 210 526 210 526 176 533 c 1,104,105
 156 442 156 442 156 399.5 c 128,-1,106
 156 357 156 357 157 345 c 1,107,108
 213 260 213 260 286.5 253.5 c 128,-1,109
 360 247 360 247 392 220 c 0,110,111
 423 194 423 194 423 131 c 128,-1,112
 423 68 423 68 394 36 c 0,113,114
 384 25 384 25 364 17 c 0,115,116
 298 -9 298 -9 216 -9 c 0,117,118
 135 -9 135 -9 61 0 c 1,119,120
 0 9 0 9 0 79 c 0,121,122
 0 106 0 106 16 117 c 128,-1,123
 32 128 32 128 41 128 c 128,-1,124
 50 128 50 128 56 126 c 0,125,126
 74 120 74 120 78 104 c 0,127,128
 81 89 81 89 70.5 80.5 c 128,-1,129
 60 72 60 72 48 72 c 128,-1,130
 36 72 36 72 22 80 c 1,131,132
 23 78 23 78 21.5 68 c 128,-1,133
 20 58 20 58 27.5 42.5 c 128,-1,134
 35 27 35 27 53 19 c 128,-1,135
 71 11 71 11 95 11 c 128,-1,136
 119 11 119 11 140 32 c 0,137,138
 160 52 160 52 160 91 c 0,139,140
 160 106 160 106 157 118 c 2,141,-1
 152 136 l 1,142,143
 151 108 151 108 138 87.5 c 128,-1,144
 125 67 125 67 110 57 c 128,-1,145
 95 47 95 47 84 47 c 0,146,147
 82 47 82 47 85 49 c 0,148,149
 113 66 113 66 113 121 c 0,150,151
 113 155 113 155 100 215 c 0,152,153
 90 261 90 261 82 301 c 0,154,155
 76 326 76 326 76 388 c 0,156,157
 76 448 76 448 92 533 c 1,158,-1
 75 550 l 1,159,-1
 457 550 l 1,160,-1
 387 515 l 1,161,162
 392 500 392 500 392 487 c 0,163,164
 392 475 392 475 386 459 c 128,-1,165
 380 443 380 443 370 432 c 128,-1,166
 360 421 360 421 353 424 c 1,167,168
 349 429 349 429 352 432 c 0,169,170
 358 436 358 436 362 447 c 0,171,172
 367 461 367 461 367 468 c 0,173,174
 367 476 367 476 366.5 486.5 c 128,-1,175
 366 497 366 497 356.5 515 c 128,-1,176
 347 533 347 533 329 533 c 2,177,-1
 315 533 l 1,21,22
132 6 m 1,178,-1
 182 1 l 1,179,180
 222 1 222 1 250 12 c 0,181,182
 280 24 280 24 305 38 c 0,183,184
 342 59 342 59 342 131 c 0,185,186
 342 161 342 161 332 189 c 0,187,188
 317 231 317 231 288 233 c 0,189,190
 215 239 215 239 161 307 c 1,191,192
 166 270 166 270 180 212 c 0,193,194
 196 145 196 145 196 112 c 0,195,196
 196 78 196 78 185.5 58.5 c 128,-1,197
 175 39 175 39 158 24.5 c 128,-1,198
 141 10 141 10 132 6 c 1,178,-1
EndSplineSet
Validated: 3073
Colour: ff00
EndChar

StartChar: uni0412.simple
Encoding: 62738 62738 19
Width: 405
GlyphClass: 2
Flags: W
HStem: -10 13<124.072 228.634> 47 1<83.9385 84> 72 56<22.437 70.1715> 389 15<242.922 270.381> 435 36<159.875 208.5> 535 16<190.036 254.706>
VStem: 0 21.5<35.0781 79.8398> 68 68<362.532 425.902 428 474.35> 122 30<86.229 135.291> 160 35<44.8707 162.359> 282 56<410.013 519.705> 320 78<57.2058 214.413>
AnchorPoint: "Yerok" 318 575.9 basechar 0
AnchorPoint: "Diacritic" 210 575 basechar 0
LayerCount: 3
Fore
SplineSet
137 428 m 1xfcc0
 148 446 180 471 201 471 c 0
 210 471 217 467 220 455 c 0
 227 426 244 404 258 404 c 0
 271 404 282 421 282 462 c 0
 282 490 274 535 225 535 c 0
 168 535 140 482 137 428 c 1xfcc0
78 98 m 0
 78 82 62 72 48 72 c 0
 34 72 22 80 22 80 c 1
 22 80 21 76 21 71 c 0
 21 57 25 31 51 20 c 0
 63 15 75 12 88 12 c 0
 107 12 127 19 143 35 c 0
 156 48 160 67 160 86 c 0
 160 112 152 136 152 136 c 1
 152 136 151 108 133 80 c 0
 122 62 99 47 84 47 c 0
 83 47 l 0
 83 49 121 58 121 115 c 0xfda0
 121 134 117 158 105 189 c 0
 70 282 68 300 68 382 c 0
 68 467 118 545 201 550 c 0
 208 550 215 551 221 551 c 0
 304 551 338 516 338 463 c 0xfec0
 338 411 296 388 258 388 c 0
 241 388 225 393 213 401 c 0
 194 414 195 436 181 436 c 0
 175 436 168 433 157 426 c 0
 149 421 145 413 136 401 c 1
 137 379 136 383 141 362 c 1
 141 362 194 275 263 262 c 0
 338 248 398 248 398 131 c 0xfea0
 398 38 333 9 290 0 c 0
 254 -7 217 -10 183 -10 c 0
 115 -10 61 0 61 0 c 0
 21 6 0 31 0 79 c 0
 0 109 21 128 44 128 c 0
 64 128 78 114 78 98 c 0
195 125 m 0
 195 52 173 22 124 6 c 1
 138 5 156 3 175 3 c 0
 219 3 270 12 300 60 c 0
 313 80 320 109 320 137 c 0
 320 184 300 231 259 242 c 0
 210 255 181 286 154 317 c 1
 171 264 195 186 195 125 c 0
EndSplineSet
Validated: 1
Layer: 2
SplineSet
282 458 m 0,0,1
 282 535 282 535 228 535 c 0,2,3
 228 535 228 535 227 535 c 0,4,5
 184 535 184 535 161 502 c 0,6,7
 139 470 139 470 137 428 c 1,8,9
 154 454 154 454 181 466 c 0,10,11
 192 471 192 471 203 471 c 128,-1,12
 214 471 214 471 220 455 c 1,13,14
 227 427 227 427 239 415 c 0,15,16
 250 404 250 404 257 404 c 128,-1,17
 264 404 264 404 270 410 c 0,18,19
 282 422 282 422 282 458 c 0,0,1
141 362 m 1,20,21
 147 352 147 352 157.5 337.5 c 128,-1,22
 168 323 168 323 200 295.5 c 128,-1,23
 232 268 232 268 263 262 c 2,24,-1
 287 258 l 2,25,26
 337 250 337 250 346 243.5 c 128,-1,27
 355 237 355 237 365.5 230 c 128,-1,28
 376 223 376 223 379.5 214.5 c 128,-1,29
 383 206 383 206 391 190 c 0,30,31
 398 175 398 175 398 131 c 0,32,33
 398 23 398 23 290 0 c 0,34,35
 243 -10 243 -10 185 -10 c 0,36,37
 128 -10 128 -10 94 -5 c 2,38,-1
 61 0 l 2,39,40
 0 9 0 9 0 79 c 0,41,42
 0 106 0 106 16 117 c 128,-1,43
 32 128 32 128 41 128 c 128,-1,44
 50 128 50 128 56 126 c 0,45,46
 74 120 74 120 78 104 c 0,47,48
 81 89 81 89 70.5 80.5 c 128,-1,49
 60 72 60 72 48 72 c 128,-1,50
 36 72 36 72 22 80 c 1,51,52
 23 78 23 78 21.5 68 c 128,-1,53
 20 58 20 58 27.5 42.5 c 128,-1,54
 35 27 35 27 53 19 c 128,-1,55
 71 11 71 11 95 11 c 128,-1,56
 119 11 119 11 140 32 c 0,57,58
 160 52 160 52 160 91 c 0,59,60
 160 106 160 106 157 118 c 2,61,-1
 152 136 l 1,62,63
 151 108 151 108 138 87.5 c 128,-1,64
 125 67 125 67 110 57 c 128,-1,65
 95 47 95 47 84 47 c 0,66,67
 82 47 82 47 84 48 c 0,68,69
 122 67 122 67 122 105 c 0,70,71
 122 144 122 144 100.5 200.5 c 128,-1,72
 79 257 79 257 73.5 288 c 128,-1,73
 68 319 68 319 68 383.5 c 128,-1,74
 68 448 68 448 104 497 c 0,75,76
 140 544 140 544 201 550 c 0,77,78
 211 551 211 551 221 551 c 0,79,80
 338 546 338 546 338 463 c 0,81,82
 338 436 338 436 324 418 c 0,83,84
 301 389 301 389 258 389 c 128,-1,85
 215 389 215 389 200 416 c 0,86,87
 192 429 192 429 191 430 c 0,88,89
 186 435 186 435 180 435 c 0,90,91
 172 435 172 435 157 426 c 0,92,93
 153 423 153 423 136 401 c 1,94,95
 137 379 137 379 141 362 c 1,20,21
124 3 m 1,96,-1
 189 3 l 1,97,98
 215 3 215 3 247.5 16 c 128,-1,99
 280 29 280 29 300 60 c 128,-1,100
 320 91 320 91 320 131 c 128,-1,101
 320 171 320 171 305 202.5 c 128,-1,102
 290 234 290 234 259 242 c 0,103,104
 207 256 207 256 154 317 c 1,105,106
 195 189 195 189 195 135 c 0,107,108
 195 86 195 86 184 58 c 0,109,110
 168 18 168 18 124 3 c 1,96,-1
EndSplineSet
Validated: 3073
Colour: ff00
EndChar

StartChar: uni0413
Encoding: 1043 1043 20
Width: 525
Flags: W
HStem: -2 14<108.595 177.43> 72 56<77.4369 123.201> 132 13<125.002 137.998> 152 13<125.002 137.998> 166 13<109.002 121.998> 257 13<302.352 349.087> 269 13<29.9133 76.6485> 397 13<292.002 304.998> 411 13<276.002 288.998> 431 13<276.002 288.998> 455 12<290.005 336.758> 533 17<270 344.578 370 404.846>
VStem: 1 12<210.82 252.055> 55 21<35.666 79.7801> 96 14<196.159 249.71> 109 13<166.002 178.998> 125 13<132.002 144.998 152.002 164.998> 131 80<224.617 530.257> 167 40<79.9407 135.763> 215 36<46.8135 125> 269 14<289.29 343.183> 276 13<411.002 423.998 431.002 443.998> 292 13<397.002 409.998> 299 30<336.808 427> 356 36<436.336 529.821> 366 12<286.945 328.18> 422 24<444.044 516.062>
AnchorPoint: "Yerok" 421.5 575.8 basechar 0
AnchorPoint: "Diacritic" 314 575 basechar 0
LayerCount: 3
Fore
SplineSet
289 438 m 0xf9fc1420
 289 434 286 431 283 431 c 0xf9fc1820
 279 431 276 434 276 438 c 0xf9fc1420
 276 441 279 444 283 444 c 0xf9fc1820
 286 444 289 441 289 438 c 0xf9fc1420
289 418 m 0xf9fc1420
 289 414 286 411 283 411 c 0xf9fc1820
 279 411 276 414 276 418 c 0xf9fc1420
 276 421 279 424 283 424 c 0xf9fc1820
 286 424 289 421 289 418 c 0xf9fc1420
305 404 m 0xf9fc1220
 305 400 302 397 299 397 c 0xf9fc1120
 295 397 292 400 292 404 c 0xf9fc1220
 292 407 295 410 299 410 c 0xf9fc1120
 302 410 305 407 305 404 c 0xf9fc1220
125 139 m 0xf9fc9020
 125 142 128 145 132 145 c 0
 135 145 138 142 138 139 c 0
 138 135 135 132 132 132 c 0
 128 132 125 135 125 139 c 0xf9fc9020
125 159 m 0
 125 162 128 165 132 165 c 0
 135 165 138 162 138 159 c 0
 138 155 135 152 132 152 c 0
 128 152 125 155 125 159 c 0
109 173 m 0xf9fd1020
 109 176 112 179 116 179 c 0
 119 179 122 176 122 173 c 0
 122 169 119 166 116 166 c 0
 112 166 109 169 109 173 c 0xf9fd1020
56 282 m 0xfbfe1020
 87 282 110 258 110 231 c 0
 110 204 102 189 87 169 c 0
 80 160 68 151 61 145 c 0
 53 137 50 129 50 129 c 1
 50 129 61 143 78 150 c 0
 91 155 99 157 105 157 c 0
 111 157 115 155 115 151 c 0
 115 143 84 147 59 123 c 0
 53 117 47 99 47 99 c 1
 46 100 27 109 27 129 c 0
 27 160 50 175 50 200 c 0
 50 212 44 219 44 219 c 1
 44 219 44 219 45 219 c 0
 49 219 62 218 71 196 c 0
 76 183 74 173 74 173 c 1
 74 173 96 196 96 224 c 0
 96 251 77 269 54 269 c 0
 30 269 13 253 13 231 c 0
 13 213 23 207 23 205 c 0
 23 205 22 205 21 205 c 0
 7 205 1 221 1 236 c 0
 1 266 27 282 56 282 c 0xfbfe1020
315 467 m 0
 333 467 352 479 352 501 c 0
 352 515 345 527 333 533 c 1
 333 533 290 533 270 533 c 1
 270 533 290 526 302 513 c 0
 315 499 315 489 305 489 c 0
 299 489 296 499 277 515 c 0
 268 523 250 529 231 533 c 1
 224 501 211 431 211 382 c 0xfdfc5aa0
 211 273 242 216 250 125 c 0
 250 119 251 114 251 108 c 0
 251 60 230 39 205 18 c 0
 186 2 165 -2 144 -2 c 0
 87 -2 55 20 55 79 c 0
 55 109 76 128 99 128 c 0
 119 128 133 114 133 98 c 0
 133 82 117 72 103 72 c 0
 89 72 77 80 77 80 c 1
 77 80 76 76 76 71 c 0
 76 57 80 31 106 20 c 0
 118 15 130 12 143 12 c 0
 162 12 182 19 198 35 c 0
 211 48 215 67 215 86 c 0
 215 112 207 136 207 136 c 1
 207 136 206 108 188 80 c 0
 177 62 154 47 139 47 c 0
 137 47 l 0
 137 48 167 57 167 124 c 0xfdfc3020
 167 141 165 163 160 189 c 0
 143 274 131 300 131 382 c 0
 131 431 141 501 147 533 c 1
 130 550 l 1
 512 550 l 1
 442 515 l 1
 442 515 446 502 446 486 c 0
 446 458 425 423 411 423 c 0
 408 423 406 425 406 427 c 0
 406 433 422 445 422 471 c 0
 422 496 412 533 384 533 c 2
 370 533 l 1
 384 524 392 503 392 481 c 0
 392 429 329 377 329 339 c 0xfdfc51a0
 329 327 335 320 335 320 c 1
 335 320 335 320 334 320 c 0
 330 320 317 321 308 343 c 0
 303 356 305 366 305 366 c 1
 305 366 283 343 283 315 c 0
 283 288 302 270 325 270 c 0
 349 270 366 286 366 308 c 0
 366 326 356 332 356 334 c 0
 356 334 357 334 358 334 c 0
 372 334 378 318 378 303 c 0
 378 273 352 257 323 257 c 0
 292 257 269 281 269 308 c 0
 269 335 277 350 292 370 c 0xfdfc1a60
 299 379 313 396 344 419 c 0
 364 434 364 447 364 447 c 1
 364 447 353 433 336 426 c 0
 323 421 315 419 309 419 c 0
 303 419 299 421 299 424 c 0
 299 433 351 428 356 464 c 0
 356 467 357 469 357 472 c 1
 354 466 331 455 310 455 c 0
 291 455 264 470 264 479 c 0
 264 482 266 484 269 484 c 0xfdfc1920
 276 484 289 467 315 467 c 0
EndSplineSet
Validated: 1
Layer: 2
SplineSet
289 437.5 m 128,-1,1
 289 431 289 431 282.5 431 c 128,-1,2
 276 431 276 431 276 437.5 c 128,-1,3
 276 444 276 444 282.5 444 c 128,-1,0
 289 444 289 444 289 437.5 c 128,-1,1
289 417.5 m 128,-1,5
 289 411 289 411 282.5 411 c 128,-1,6
 276 411 276 411 276 417.5 c 128,-1,7
 276 424 276 424 282.5 424 c 128,-1,4
 289 424 289 424 289 417.5 c 128,-1,5
305 403.5 m 128,-1,9
 305 397 305 397 298.5 397 c 128,-1,10
 292 397 292 397 292 403.5 c 128,-1,11
 292 410 292 410 298.5 410 c 128,-1,8
 305 410 305 410 305 403.5 c 128,-1,9
125 138.5 m 128,-1,13
 125 145 125 145 131.5 145 c 128,-1,14
 138 145 138 145 138 138.5 c 128,-1,15
 138 132 138 132 131.5 132 c 128,-1,12
 125 132 125 132 125 138.5 c 128,-1,13
125 158.5 m 128,-1,17
 125 165 125 165 131.5 165 c 128,-1,18
 138 165 138 165 138 158.5 c 128,-1,19
 138 152 138 152 131.5 152 c 128,-1,16
 125 152 125 152 125 158.5 c 128,-1,17
109 172.5 m 128,-1,21
 109 179 109 179 115.5 179 c 128,-1,22
 122 179 122 179 122 172.5 c 128,-1,23
 122 166 122 166 115.5 166 c 128,-1,20
 109 166 109 166 109 172.5 c 128,-1,21
24.5 258.5 m 128,-1,25
 13 248 13 248 13 232.5 c 128,-1,26
 13 217 13 217 23 205 c 1,27,-1
 21 205 l 2,28,29
 1 205 1 205 1 231.5 c 128,-1,30
 1 258 1 258 17 270 c 128,-1,31
 33 282 33 282 56 282 c 128,-1,32
 79 282 79 282 94.5 267 c 128,-1,33
 110 252 110 252 110 226 c 128,-1,34
 110 200 110 200 87 169 c 0,35,36
 83 164 83 164 61 145 c 1,37,-1
 50 129 l 1,38,39
 61 143 61 143 78.5 150 c 128,-1,40
 96 157 96 157 105.5 157 c 128,-1,41
 115 157 115 157 115 151 c 0,42,43
 115 148 115 148 96 143 c 0,44,45
 77 139 77 139 59 123 c 1,46,-1
 47 99 l 1,47,48
 27 109 27 109 27 127 c 128,-1,49
 27 145 27 145 38.5 166.5 c 128,-1,50
 50 188 50 188 50 199.5 c 128,-1,51
 50 211 50 211 44 219 c 1,52,-1
 45 219 l 2,53,54
 62 219 62 219 71 196 c 1,55,-1
 74 173 l 1,56,57
 96 196 96 196 96 220 c 128,-1,58
 96 244 96 244 84 256.5 c 128,-1,59
 72 269 72 269 54 269 c 128,-1,24
 36 269 36 269 24.5 258.5 c 128,-1,25
137 47 m 1,60,61
 167 67 167 67 167 124 c 0,62,63
 167 160 167 160 154.5 217 c 128,-1,64
 142 274 142 274 136 301 c 0,65,66
 131 327 131 327 131 387.5 c 128,-1,67
 131 448 131 448 147 533 c 1,68,-1
 130 550 l 1,69,-1
 512 550 l 1,70,-1
 442 515 l 1,71,72
 446 502 446 502 446 483.5 c 128,-1,73
 446 465 446 465 434 444 c 128,-1,74
 422 423 422 423 411 423 c 0,75,76
 406 423 406 423 406 425.5 c 128,-1,77
 406 428 406 428 414 441.5 c 128,-1,78
 422 455 422 455 422 474.5 c 128,-1,79
 422 494 422 494 412.5 513.5 c 128,-1,80
 403 533 403 533 384 533 c 2,81,-1
 370 533 l 1,82,83
 392 519 392 519 392 486 c 128,-1,84
 392 453 392 453 360.5 404.5 c 128,-1,85
 329 356 329 356 329 342 c 128,-1,86
 329 328 329 328 335 320 c 1,87,-1
 334 320 l 2,88,89
 317 320 317 320 308 343 c 1,90,-1
 305 366 l 1,91,92
 283 343 283 343 283 319 c 128,-1,93
 283 295 283 295 295 282.5 c 128,-1,94
 307 270 307 270 325 270 c 128,-1,95
 343 270 343 270 354.5 280.5 c 128,-1,96
 366 291 366 291 366 306.5 c 128,-1,97
 366 322 366 322 356 334 c 1,98,-1
 358 334 l 2,99,100
 378 334 378 334 378 307.5 c 128,-1,101
 378 281 378 281 362 269 c 128,-1,102
 346 257 346 257 323 257 c 128,-1,103
 300 257 300 257 284.5 272 c 128,-1,104
 269 287 269 287 269 313 c 128,-1,105
 269 339 269 339 290 367 c 128,-1,106
 311 395 311 395 344 419 c 0,107,108
 362 433 362 433 364 447 c 1,109,110
 353 433 353 433 335.5 426 c 128,-1,111
 318 419 318 419 308.5 419 c 128,-1,112
 299 419 299 419 299 424 c 0,113,114
 299 427 299 427 312 430 c 0,115,116
 356 438 356 438 356 464 c 0,117,118
 356 468 356 468 356 468 c 0,119,120
 357 470 357 470 357 472 c 1,121,122
 354 467 354 467 339.5 461 c 128,-1,123
 325 455 325 455 310.5 455 c 128,-1,124
 296 455 296 455 280 463.5 c 128,-1,125
 264 472 264 472 264 478 c 128,-1,126
 264 484 264 484 267 484 c 128,-1,127
 270 484 270 484 285 475.5 c 128,-1,128
 300 467 300 467 315 467 c 128,-1,129
 330 467 330 467 341 476 c 128,-1,130
 352 485 352 485 352 504.5 c 128,-1,131
 352 524 352 524 333 533 c 1,132,-1
 270 533 l 1,133,134
 290 526 290 526 302 513 c 1,135,136
 316 494 316 494 305 489 c 0,137,138
 304 488 304 488 296 497 c 0,139,140
 289 505 289 505 277 515 c 0,141,142
 264 526 264 526 231 533 c 1,143,144
 211 442 211 442 211 381.5 c 128,-1,145
 211 321 211 321 229 240 c 128,-1,146
 247 159 247 159 250 125 c 2,147,-1
 251 108 l 1,148,149
 251 75 251 75 239.5 56 c 128,-1,150
 228 37 228 37 204.5 17.5 c 128,-1,151
 181 -2 181 -2 144 -2 c 0,152,153
 55 -2 55 -2 55 79 c 0,154,155
 55 101 55 101 68 114.5 c 128,-1,156
 81 128 81 128 97.5 128 c 128,-1,157
 114 128 114 128 123.5 119 c 128,-1,158
 133 110 133 110 133 98.5 c 128,-1,159
 133 87 133 87 123.5 79.5 c 128,-1,160
 114 72 114 72 102.5 72 c 128,-1,161
 91 72 91 72 77 80 c 1,162,163
 76 76 76 76 76 71 c 0,164,165
 76 12 76 12 150 12 c 0,166,167
 175 12 175 12 195 32 c 128,-1,168
 215 52 215 52 215 81 c 128,-1,169
 215 110 215 110 207 136 c 1,170,171
 206 108 206 108 193 87.5 c 128,-1,172
 180 67 180 67 165 57 c 128,-1,173
 150 47 150 47 139 47 c 2,174,-1
 137 47 l 1,60,61
EndSplineSet
Validated: 3073
Substitution2: "'ss01' Style Set Simple Forms-1" uni0413.simple
Colour: ff00
EndChar

StartChar: uni0413.simple
Encoding: 62739 62739 21
Width: 470
GlyphClass: 2
Flags: W
HStem: -2 13<57.09 120.451> 72 56<22.437 70.1715> 256 14<245.411 286> 397 13<237.015 249.986> 411 13<221.015 233.986> 418 9.5<244.548 265.579> 431 13<221.015 233.986> 455 11<236.545 280.435> 533 17<215 289.124 315 349.35>
VStem: 0 21.5<35.5469 79.8398> 76 80<225.742 530.257> 113 39<80.1484 135.885> 160 36<52.8994 135.371> 214 14<289.029 341.162> 221 13<411.015 423.998 431.015 443.998> 237 13<397.015 409.998> 302 35<436.866 472> 367 25<445.527 514.532>
AnchorPoint: "Yerok" 367.5 575.8 basechar 0
AnchorPoint: "Diacritic" 238 575 basechar 0
LayerCount: 3
Fore
SplineSet
234 438 m 0xff9420
 234 434 231 431 228 431 c 0xff9820
 224 431 221 434 221 438 c 0xff9420
 221 441 224 444 228 444 c 0xff9820
 231 444 234 441 234 438 c 0xff9420
234 418 m 0xff9420
 234 414 231 411 228 411 c 0xff9820
 224 411 221 414 221 418 c 0xff9420
 221 421 224 424 228 424 c 0xff9820
 231 424 234 421 234 418 c 0xff9420
250 404 m 0xff9220
 250 400 247 397 244 397 c 0xff9120
 240 397 237 400 237 404 c 0xff9220
 237 407 240 410 244 410 c 0xff9120
 247 410 250 407 250 404 c 0xff9220
260 467 m 0
 278 467 297 479 297 501 c 0
 297 515 290 527 278 533 c 1
 278 533 235 533 215 533 c 1
 215 533 235 526 247 513 c 0
 260 499 260 489 250 489 c 0
 244 489 241 499 222 515 c 0
 213 523 195 529 176 533 c 1
 169 501 156 431 156 382 c 0xffdaa0
 156 273 187 216 195 125 c 0
 195 119 196 114 196 108 c 0
 196 60 175 39 150 18 c 0
 131 2 110 -2 89 -2 c 0
 32 -2 0 20 0 79 c 0
 0 109 21 128 44 128 c 0
 64 128 78 114 78 98 c 0
 78 82 62 72 48 72 c 0
 34 72 22 80 22 80 c 1
 22 80 21 76 21 71 c 0
 21 57 25 31 51 20 c 0
 63 15 75 12 88 12 c 0
 107 12 127 19 143 35 c 0
 156 48 160 67 160 86 c 0
 160 112 152 136 152 136 c 1
 152 136 151 108 133 80 c 0
 122 62 99 47 84 47 c 0
 82 47 l 0
 82 48 112 57 112 124 c 0xffb020
 112 141 110 163 105 189 c 0
 88 274 76 300 76 382 c 0
 76 431 86 501 92 533 c 1
 75 550 l 1
 457 550 l 1
 387 515 l 1
 387 515 391 502 391 486 c 0
 391 458 370 423 356 423 c 0
 353 423 351 425 351 427 c 0
 351 433 367 445 367 471 c 0
 367 496 357 533 329 533 c 2
 315 533 l 1
 329 524 337 503 337 481 c 0
 337 429 274 377 274 339 c 0xffd1a0
 274 327 280 320 280 320 c 1
 280 320 280 320 279 320 c 0
 275 320 262 321 253 343 c 0
 248 356 250 366 250 366 c 1
 250 366 228 343 228 315 c 0
 228 288 247 270 270 270 c 0
 294 270 311 286 311 308 c 0
 311 326 301 332 301 334 c 0
 301 334 302 334 303 334 c 0
 317 334 323 318 323 303 c 0
 323 273 297 257 268 257 c 0
 237 257 214 281 214 308 c 0
 214 335 222 350 237 370 c 0xff9a60
 244 379 258 396 289 419 c 0
 309 434 309 447 309 447 c 1
 309 447 298 433 281 426 c 0
 268 421 260 419 254 419 c 0
 248 419 244 421 244 424 c 0
 244 433 296 428 301 464 c 0
 301 467 302 469 302 472 c 1
 299 466 276 455 255 455 c 0
 236 455 209 470 209 479 c 0
 209 482 211 484 214 484 c 0xff9920
 221 484 234 467 260 467 c 0
EndSplineSet
Validated: 1
Layer: 2
SplineSet
234 438 m 0,0,1
 234 431 234 431 228 431 c 0,2,3
 221 431 221 431 221 437 c 0,4,5
 221 444 221 444 227.5 444 c 128,-1,6
 234 444 234 444 234 438 c 0,0,1
234 418 m 0,7,8
 234 411 234 411 228 411 c 0,9,10
 221 411 221 411 221 417 c 0,11,12
 221 424 221 424 227.5 424 c 128,-1,13
 234 424 234 424 234 418 c 0,7,8
250 404 m 0,14,15
 250 397 250 397 244 397 c 0,16,17
 237 397 237 397 237 403 c 0,18,19
 237 410 237 410 243.5 410 c 128,-1,20
 250 410 250 410 250 404 c 0,14,15
315 533 m 1,21,22
 337 518 337 518 337 478 c 0,23,24
 337 466 337 466 332 452 c 0,25,26
 326 437 326 437 300 396 c 0,27,28
 273 353 273 353 273 341 c 128,-1,29
 273 329 273 329 280 320 c 1,30,31
 279 320 279 320 278 320 c 128,-1,32
 277 320 277 320 276 320 c 128,-1,33
 275 320 275 320 274 320 c 0,34,35
 263 318 263 318 253 343 c 1,36,-1
 250 366 l 1,37,38
 236 352 236 352 233 340 c 128,-1,39
 230 328 230 328 228 316.5 c 128,-1,40
 226 305 226 305 232 295 c 1,41,42
 241 270 241 270 270 270 c 1,43,-1
 286 273 l 1,44,45
 312 285 312 285 312 302 c 128,-1,46
 312 319 312 319 301 333 c 1,47,-1
 303 334 l 1,48,49
 316 334 316 334 321 317 c 128,-1,50
 326 300 326 300 320 287 c 1,51,52
 314 270 314 270 288 260 c 0,53,54
 278 256 278 256 267 256 c 0,55,56
 255 256 255 256 244 262 c 0,57,58
 214 278 214 278 214 308 c 0,59,60
 214 364 214 364 289 419 c 0,61,62
 307 432 307 432 309 447 c 1,63,64
 299 434 299 434 280 426 c 128,-1,65
 261 418 261 418 254 418 c 0,66,67
 246 418 246 418 244.5 422 c 128,-1,68
 243 426 243 426 248 427.5 c 128,-1,69
 253 429 253 429 261 431 c 128,-1,70
 269 433 269 433 278 436 c 0,71,72
 301 445 301 445 301 464 c 0,73,74
 301 467 301 467 302 468 c 0,75,76
 302 470 302 470 302 472 c 1,77,78
 298 465 298 465 282 460 c 128,-1,79
 266 455 266 455 257 455 c 0,80,81
 220 456 220 456 210 477 c 0,82,83
 208 481 208 481 211 483 c 0,84,85
 215 486 215 486 229 476 c 128,-1,86
 243 466 243 466 259 466 c 0,87,88
 288 467 288 467 296 491 c 0,89,90
 300 504 300 504 294.5 516 c 128,-1,91
 289 528 289 528 278 533 c 1,92,-1
 215 533 l 1,93,94
 235 526 235 526 249.5 510 c 128,-1,95
 264 494 264 494 254 490 c 1,96,97
 252 490 252 490 249 489 c 128,-1,98
 246 488 246 488 239 498 c 0,99,100
 232 507 232 507 221 516.5 c 128,-1,101
 210 526 210 526 176 533 c 1,102,103
 156 442 156 442 156 381.5 c 128,-1,104
 156 321 156 321 176 232 c 128,-1,105
 196 143 196 143 196 111 c 0,106,107
 196 78 196 78 186 58 c 0,108,109
 177 43 177 43 150 19 c 0,110,111
 126 -2 126 -2 88 -2 c 0,112,113
 74 -2 74 -2 59 0 c 0,114,115
 0 10 0 10 0 79 c 0,116,117
 0 106 0 106 16 117 c 128,-1,118
 32 128 32 128 41 128 c 128,-1,119
 50 128 50 128 56 126 c 0,120,121
 74 120 74 120 78 104 c 0,122,123
 81 89 81 89 70.5 80.5 c 128,-1,124
 60 72 60 72 48 72 c 128,-1,125
 36 72 36 72 22 80 c 1,126,127
 23 78 23 78 21.5 68 c 128,-1,128
 20 58 20 58 27.5 42.5 c 128,-1,129
 35 27 35 27 53 19 c 128,-1,130
 71 11 71 11 95 11 c 128,-1,131
 119 11 119 11 140 32 c 0,132,133
 160 52 160 52 160 91 c 0,134,135
 160 106 160 106 157 118 c 2,136,-1
 152 136 l 1,137,138
 151 108 151 108 138 87.5 c 128,-1,139
 125 67 125 67 110 57 c 128,-1,140
 95 47 95 47 84 47 c 0,141,142
 82 47 82 47 85 49 c 0,143,144
 113 66 113 66 113 121 c 0,145,146
 113 155 113 155 100 215 c 0,147,148
 90 261 90 261 82 301 c 0,149,150
 76 326 76 326 76 388 c 0,151,152
 76 448 76 448 92 533 c 1,153,-1
 75 550 l 1,154,-1
 457 550 l 1,155,-1
 387 515 l 1,156,157
 392 500 392 500 392 487 c 0,158,159
 392 475 392 475 386 459 c 128,-1,160
 380 443 380 443 370 432 c 128,-1,161
 360 421 360 421 353 424 c 1,162,163
 349 429 349 429 352 432 c 0,164,165
 358 436 358 436 362 447 c 0,166,167
 367 461 367 461 367 468 c 0,168,169
 367 476 367 476 366.5 486.5 c 128,-1,170
 366 497 366 497 356.5 515 c 128,-1,171
 347 533 347 533 329 533 c 2,172,-1
 315 533 l 1,21,22
EndSplineSet
Validated: 3073
Colour: ff00
EndChar

StartChar: uni0414
Encoding: 1044 1044 22
Width: 530
Flags: W
HStem: 0 12<95.5078 120.75 149 359> 42 35<71 90.8413> 407 32<224.188 251.996> 422 7<288.148 316.281> 444.5 9.5<290.406 332.7> 470 12<250.987 329.032> 488 10<263.001 273.999> 503 10<254.001 264.999> 517 10<262.001 272.999> 538 12<333 359 435 461> 644 10<250.86 285.277>
VStem: 46 23<-90.1074 -23 24.0923 42> 141 65<53.3879 235.493> 210 14<436 452.375> 227 9<594.75 628.733> 254 11<503.001 512.999> 263 11<488.001 497.999 517.06 526.94> 276 11<557.909 584.344> 297 7<609.265 627.901> 359 76<12 418 437 462.029 465 490.887 495 538> 457 23<-89.4839 -20.2906>
DStem2: 284 512 283 503 0.982872 -0.184289<-9.48036 32.277>
AnchorPoint: "Yerok" 399 587.2 basechar 0
AnchorPoint: "Diacritic" 400 588 basechar 0
LayerCount: 3
Fore
SplineSet
273 522 m 0xcc739c
 273 519 271 517 268 517 c 0
 265 517 262 519 262 522 c 0
 262 525 265 527 268 527 c 0
 271 527 273 525 273 522 c 0xcc739c
265 508 m 0xccf3dc
 265 505 263 503 260 503 c 0
 257 503 254 505 254 508 c 0
 254 511 257 513 260 513 c 0
 263 513 265 511 265 508 c 0xccf3dc
274 493 m 0xcd73bc
 274 490 271 488 268 488 c 0xce73bc
 265 488 263 490 263 493 c 0xcd73bc
 263 496 265 498 268 498 c 0xce73bc
 271 498 274 496 274 493 c 0xcd73bc
206 115 m 0
 206 61 186 29 149 12 c 1
 359 12 l 1
 359 418 l 1
 338 390 282 349 244 281 c 1
 209 216 205 178 205 145 c 0
 205 135 206 125 206 115 c 0
270 654 m 0
 291 654 304 640 304 620 c 0
 304 613 302 608 296 605 c 0
 290 603 302 611 293 629 c 0
 288 639 280 644 268 644 c 0
 251 644 236 631 236 612 c 0
 236 582 280 548 280 548 c 2
 280 548 276 554 276 566 c 0
 276 585 288 587 288 587 c 1
 288 587 287 581 288 572 c 0
 292 543 334 503 359 495 c 1
 359 538 l 1
 333 538 l 1
 333 550 l 1
 461 550 l 1
 461 538 l 1
 435 538 l 1
 435 12 l 1
 525 12 l 1
 474 -23 l 1
 474 -23 480 -28 480 -45 c 0xed779d
 480 -51 479 -59 477 -69 c 0
 472 -92 456 -104 450 -104 c 0
 449 -104 447 -103 447 -102 c 0xed739e
 447 -99 457 -93 457 -58 c 0
 457 -23 444 0 396 0 c 2
 130 0 l 2
 82 0 69 -23 69 -58 c 0xed779d
 69 -93 79 -99 79 -102 c 0xed7b9c
 79 -103 77 -104 76 -104 c 0
 70 -104 54 -92 49 -69 c 0
 47 -59 46 -51 46 -45 c 0
 46 -28 52 -23 52 -23 c 2
 0 12 l 1
 68 12 l 1
 56 22 50 36 50 52 c 0
 50 69 59 77 70 77 c 0
 81 77 91 70 91 63 c 0
 91 44 78 42 74 42 c 0
 71 42 l 1
 71 23 86 13 102 13 c 0
 110 13 118 15 125 20 c 0
 140 31 142 62 142 62 c 1
 142 62 135 55 128 50 c 0
 119 44 109 46 109 46 c 1
 109 46 129 58 138 84 c 0
 141 91 141 101 141 113 c 0
 141 118 141 124 141 131 c 0
 141 160 143 197 162 236 c 0
 197 308 283 363 333 409 c 1
 332 411 318 418 317 418 c 0
 311 421 305 422 301 422 c 0
 296 422 293 420 290 420 c 0
 289 420 288 421 288 424 c 0
 288 427 294 429 302 429 c 0xdd779c
 307 429 313 428 319 427 c 0
 328 425 342 417 342 417 c 1
 348 423 350 424 354 428 c 1
 349 432 340 438 328 441 c 0
 312 445 290 442 290 448 c 0
 290 451 299 454 312 454 c 0
 330 454 352 444 359 437 c 1
 359 453 l 1
 345 463 302 470 286 470 c 0
 260 470 224 460 224 436 c 1
 224 436 230 439 237 439 c 0
 244 439 252 436 252 421 c 0
 252 411 245 407 237 407 c 0
 222 407 210 416 210 432 c 0
 210 465 247 482 282 482 c 0
 307 482 343 476 359 465 c 1
 359 479 l 1
 348 485 337 491 334 493 c 0
 311 505 273 500 273 507 c 0
 273 510 279 512 284 512 c 0xed779c
 297 512 316 506 316 506 c 1
 316 506 227 560 227 600 c 0
 227 604 226 608 226 611 c 0
 226 622 229 633 236 641 c 0
 245 650 258 654 270 654 c 0
EndSplineSet
Validated: 1
Layer: 2
SplineSet
273 522 m 128,-1,1
 273 517 273 517 267.5 517 c 128,-1,2
 262 517 262 517 262 522 c 128,-1,3
 262 527 262 527 267.5 527 c 128,-1,0
 273 527 273 527 273 522 c 128,-1,1
265 508 m 128,-1,5
 265 503 265 503 259.5 503 c 128,-1,6
 254 503 254 503 254 508 c 128,-1,7
 254 513 254 513 259.5 513 c 128,-1,4
 265 513 265 513 265 508 c 128,-1,5
274 493 m 128,-1,9
 274 488 274 488 268.5 488 c 128,-1,10
 263 488 263 488 263 493 c 128,-1,11
 263 498 263 498 268.5 498 c 128,-1,8
 274 498 274 498 274 493 c 128,-1,9
205 145 m 1,12,-1
 206 115 l 1,13,14
 206 38 206 38 149 12 c 1,15,-1
 359 12 l 1,16,-1
 359 418 l 1,17,18
 272 331 272 331 244 281 c 0,19,20
 205 211 205 211 205 145 c 1,12,-1
227 600 m 1,21,-1
 226 611 l 1,22,23
 226 630 226 630 237.5 642 c 128,-1,24
 249 654 249 654 267.5 654 c 128,-1,25
 286 654 286 654 295 644.5 c 128,-1,26
 304 635 304 635 304 622 c 0,27,28
 304 610 304 610 296 605 c 0,29,30
 293 603 293 603 295 608 c 0,31,32
 298 613 298 613 297 616 c 128,-1,33
 296 619 296 619 295.5 622.5 c 128,-1,34
 295 626 295 626 293 629 c 0,35,36
 286 644 286 644 270.5 644 c 128,-1,37
 255 644 255 644 245.5 635 c 128,-1,38
 236 626 236 626 236 612.5 c 128,-1,39
 236 599 236 599 247 583 c 128,-1,40
 258 567 258 567 269 558 c 2,41,-1
 280 548 l 1,42,43
 276 554 276 554 276 568.5 c 128,-1,44
 276 583 276 583 288 587 c 1,45,46
 287 582 287 582 287 579 c 0,47,48
 289 553 289 553 313 528 c 0,49,50
 339 501 339 501 359 495 c 1,51,-1
 359 538 l 1,52,-1
 333 538 l 1,53,-1
 333 550 l 1,54,-1
 461 550 l 1,55,-1
 461 538 l 1,56,-1
 435 538 l 1,57,-1
 435 12 l 1,58,-1
 525 12 l 1,59,-1
 474 -23 l 1,60,61
 480 -28 480 -28 480 -41 c 128,-1,62
 480 -54 480 -54 477 -69 c 128,-1,63
 474 -84 474 -84 465 -94 c 128,-1,64
 456 -104 456 -104 451.5 -104 c 128,-1,65
 447 -104 447 -104 447 -102 c 1,66,67
 457 -86 457 -86 457 -58 c 128,-1,68
 457 -30 457 -30 443.5 -15 c 128,-1,69
 430 0 430 0 396 0 c 2,70,-1
 130 0 l 2,71,72
 96 0 96 0 82.5 -15 c 128,-1,73
 69 -30 69 -30 69 -50 c 128,-1,74
 69 -70 69 -70 70.5 -79 c 128,-1,75
 72 -88 72 -88 74 -92 c 128,-1,76
 76 -96 76 -96 77.5 -98.5 c 128,-1,77
 79 -101 79 -101 79 -102.5 c 128,-1,78
 79 -104 79 -104 74.5 -104 c 128,-1,79
 70 -104 70 -104 58 -91 c 0,80,81
 46 -77 46 -77 46 -45 c 1,82,-1
 52 -23 l 1,83,-1
 0 12 l 1,84,-1
 68 12 l 1,85,86
 50 27 50 27 50 52 c 128,-1,87
 50 77 50 77 70 77 c 0,88,89
 78 77 78 77 84.5 72.5 c 128,-1,90
 91 68 91 68 91 63 c 0,91,92
 91 42 91 42 74 42 c 2,93,-1
 71 42 l 1,94,95
 71 28 71 28 80 20.5 c 128,-1,96
 89 13 89 13 102 13 c 0,97,98
 114 13 114 13 126 21 c 128,-1,99
 138 29 138 29 142 62 c 1,100,101
 126 46 126 46 113 46 c 0,102,103
 111 46 111 46 109 46 c 1,104,105
 141 65 141 65 141 113 c 2,106,-1
 141 131 l 2,107,108
 141 193 141 193 159.5 230.5 c 128,-1,109
 178 268 178 268 206.5 298 c 128,-1,110
 235 328 235 328 279 364 c 128,-1,111
 323 400 323 400 333 409 c 1,112,113
 332 410 332 410 321.5 416 c 128,-1,114
 311 422 311 422 301 422 c 1,115,-1
 290 420 l 2,116,117
 288 420 288 420 288 424.5 c 128,-1,118
 288 429 288 429 297.5 429 c 128,-1,119
 307 429 307 429 319 427 c 1,120,-1
 342 417 l 1,121,122
 345 420 345 420 348.5 423 c 128,-1,123
 352 426 352 426 354 428 c 1,124,125
 335 442 335 442 318 443 c 128,-1,126
 301 444 301 444 295.5 444.5 c 128,-1,127
 290 445 290 445 290 448 c 0,128,129
 290 454 290 454 316 454 c 128,-1,130
 342 454 342 454 359 437 c 1,131,-1
 359 453 l 1,132,133
 349 460 349 460 324.5 465 c 128,-1,134
 300 470 300 470 281.5 470 c 128,-1,135
 263 470 263 470 243.5 461 c 128,-1,136
 224 452 224 452 224 436 c 1,137,138
 230 439 230 439 237 439 c 0,139,140
 252 439 252 439 252 423 c 128,-1,141
 252 407 252 407 237 407 c 0,142,143
 210 407 210 407 210 431 c 128,-1,144
 210 455 210 455 231.5 468.5 c 128,-1,145
 253 482 253 482 293.5 482 c 128,-1,146
 334 482 334 482 359 465 c 1,147,-1
 359 479 l 1,148,149
 337 491 337 491 330.5 494.5 c 128,-1,150
 324 498 324 498 308.5 500 c 128,-1,151
 293 502 293 502 283 503 c 128,-1,152
 273 504 273 504 273 507 c 0,153,154
 273 512 273 512 284 512 c 1,155,-1
 316 506 l 1,156,157
 281 527 281 527 254 554.5 c 128,-1,158
 227 582 227 582 227 600 c 1,21,-1
EndSplineSet
Validated: 3073
Substitution2: "'ss01' Style Set Simple Forms-1" uni0414.simple
Colour: ff00
EndChar

StartChar: uni0415
Encoding: 1045 1045 23
Width: 475
Flags: W
HStem: -5 17<104.728 277.945> 72 56<77.4369 123.201> 132 35<411.159 431> 132 13<125.002 137.998> 152 13<125.002 137.998> 166 13<109.002 121.998> 195 14<376.978 421.033> 242 43<305.005 341.706> 269 13<29.9133 76.6485> 309 19<269.436 331.96> 380 21<313.5 345.742> 535 16<270 326.188>
VStem: 1 12<210.82 252.055> 55 21<35.1289 79.7801> 96 14<196.159 249.71> 109 13<166.002 178.998> 123 76<268.383 473.329> 125 13<132.002 144.998 152.002 164.998> 176 31<85.6012 135.78> 215 35<47.4513 135.539> 273 65<402.055 454.139> 305 56<23.7229 155.143 251.799 281.24> 342 19<281 300.009> 364 46<426.344 516.7> 431 21<167 187.264>
AnchorPoint: "Yerok" 383.5 574.4 basechar 0
AnchorPoint: "Diacritic" 275 575 basechar 0
LayerCount: 3
Fore
SplineSet
125 139 m 0xd27c5180
 125 142 128 145 132 145 c 0
 135 145 138 142 138 139 c 0
 138 135 135 132 132 132 c 0
 128 132 125 135 125 139 c 0xd27c5180
125 159 m 0
 125 162 128 165 132 165 c 0
 135 165 138 162 138 159 c 0
 138 155 135 152 132 152 c 0xca7c5180
 128 152 125 155 125 159 c 0
109 173 m 0xc67d1180
 109 176 112 179 116 179 c 0
 119 179 122 176 122 173 c 0
 122 169 119 166 116 166 c 0
 112 166 109 169 109 173 c 0xc67d1180
56 282 m 0xd2fe1180
 87 282 110 258 110 231 c 0
 110 204 102 189 87 169 c 0
 80 160 68 151 61 145 c 0
 53 137 50 129 50 129 c 1
 50 129 61 143 78 150 c 0
 91 155 99 157 105 157 c 0
 111 157 115 155 115 151 c 0
 115 143 84 147 59 123 c 0
 53 117 47 99 47 99 c 1
 46 100 27 109 27 129 c 0
 27 160 50 175 50 200 c 0
 50 212 44 219 44 219 c 1
 44 219 44 219 45 219 c 0
 49 219 62 218 71 196 c 0
 76 183 74 173 74 173 c 1
 74 173 96 196 96 224 c 0
 96 251 77 269 54 269 c 0
 30 269 13 253 13 231 c 0
 13 213 23 207 23 205 c 0
 23 205 22 205 21 205 c 0
 7 205 1 221 1 236 c 0
 1 266 27 282 56 282 c 0xd2fe1180
361 277 m 0xe27c9580
 361 255 343 242 325 242 c 0
 314 242 305 247 305 260 c 0xe37c9580
 305 280 315 285 325 285 c 0
 333 285 342 281 342 281 c 1xe37c1380
 342 300 323 309 304 309 c 0
 257 309 237 263 230 238 c 1
 241 204 250 169 250 125 c 0
 250 56 228 31 190 8 c 1
 196 8 203 8 209 8 c 0
 212 8 215 8 218 8 c 0
 245 8 267 9 281 20 c 0
 301 36 305 50 305 67 c 0
 305 81 302 97 302 116 c 0
 302 124 302 132 304 141 c 0
 311 180 354 209 403 209 c 0
 432 209 452 185 452 158 c 0
 452 141 444 132 432 132 c 0xd37c1580
 421 132 411 139 411 146 c 0
 411 165 424 167 428 167 c 0
 431 167 l 1
 431 186 416 195 400 195 c 0
 392 195 384 193 377 189 c 0
 361 180 360 147 360 147 c 1
 360 147 367 154 374 159 c 0
 383 165 393 163 393 163 c 1
 393 163 373 151 364 125 c 0
 362 119 361 114 361 108 c 0
 361 96 364 85 364 71 c 0
 364 63 363 54 359 44 c 0
 344 5 265 -5 198 -5 c 0
 114 -5 55 -4 55 79 c 0
 55 109 76 128 99 128 c 0
 119 128 133 114 133 98 c 0
 133 82 117 72 103 72 c 0
 89 72 77 80 77 80 c 1
 77 80 76 76 76 71 c 0
 76 57 80 31 106 20 c 0
 118 15 130 12 143 12 c 0
 162 12 182 19 198 35 c 0
 211 48 215 67 215 86 c 0
 215 112 207 136 207 136 c 1
 207 136 206 108 188 80 c 0
 177 62 154 47 139 47 c 0
 138 47 l 0
 138 49 176 58 176 115 c 0xe27c7580
 176 134 172 158 160 189 c 0
 125 282 123 300 123 382 c 0
 123 467 173 545 256 550 c 0
 267 551 277 551 287 551 c 0
 366 551 410 528 410 448 c 0
 410 408 373 380 332 380 c 0
 301 380 273 395 273 426 c 0
 273 449 289 466 306 466 c 0
 324 466 338 456 338 438 c 0xe27c9980
 338 436 338 433 337 430 c 0
 332 402 313 401 313 401 c 1
 313 401 362 401 364 451 c 0
 364 453 364 455 364 457 c 0
 364 501 342 535 284 535 c 0
 280 535 275 534 270 534 c 0
 215 529 199 433 199 384 c 0
 199 339 210 303 221 267 c 1
 233 301 266 328 310 328 c 0
 340 328 361 303 361 277 c 0xe27c9580
EndSplineSet
Validated: 1
Layer: 2
SplineSet
125 138.5 m 128,-1,1
 125 145 125 145 131.5 145 c 128,-1,2
 138 145 138 145 138 138.5 c 128,-1,3
 138 132 138 132 131.5 132 c 128,-1,0
 125 132 125 132 125 138.5 c 128,-1,1
125 158.5 m 128,-1,5
 125 165 125 165 131.5 165 c 128,-1,6
 138 165 138 165 138 158.5 c 128,-1,7
 138 152 138 152 131.5 152 c 128,-1,4
 125 152 125 152 125 158.5 c 128,-1,5
109 172.5 m 128,-1,9
 109 179 109 179 115.5 179 c 128,-1,10
 122 179 122 179 122 172.5 c 128,-1,11
 122 166 122 166 115.5 166 c 128,-1,8
 109 166 109 166 109 172.5 c 128,-1,9
24.5 258.5 m 128,-1,13
 13 248 13 248 13 232.5 c 128,-1,14
 13 217 13 217 23 205 c 1,15,-1
 21 205 l 2,16,17
 1 205 1 205 1 231.5 c 128,-1,18
 1 258 1 258 17 270 c 128,-1,19
 33 282 33 282 56 282 c 128,-1,20
 79 282 79 282 94.5 267 c 128,-1,21
 110 252 110 252 110 226 c 128,-1,22
 110 200 110 200 87 169 c 0,23,24
 83 164 83 164 61 145 c 1,25,-1
 50 129 l 1,26,27
 61 143 61 143 78.5 150 c 128,-1,28
 96 157 96 157 105.5 157 c 128,-1,29
 115 157 115 157 115 151 c 0,30,31
 115 148 115 148 96 143 c 0,32,33
 77 139 77 139 59 123 c 1,34,-1
 47 99 l 1,35,36
 27 109 27 109 27 127 c 128,-1,37
 27 145 27 145 38.5 166.5 c 128,-1,38
 50 188 50 188 50 199.5 c 128,-1,39
 50 211 50 211 44 219 c 1,40,-1
 45 219 l 2,41,42
 62 219 62 219 71 196 c 1,43,-1
 74 173 l 1,44,45
 96 196 96 196 96 220 c 128,-1,46
 96 244 96 244 84 256.5 c 128,-1,47
 72 269 72 269 54 269 c 128,-1,12
 36 269 36 269 24.5 258.5 c 128,-1,13
76 71 m 0,48,49
 76 12 76 12 150 12 c 0,50,51
 175 12 175 12 195 32 c 128,-1,52
 215 52 215 52 215 81 c 128,-1,53
 215 110 215 110 207 136 c 1,54,55
 206 108 206 108 193 87.5 c 128,-1,56
 180 67 180 67 165 57 c 128,-1,57
 150 47 150 47 139 47 c 1,58,59
 155 58 155 58 166 71 c 0,60,61
 176 84 176 84 176 116 c 128,-1,62
 176 148 176 148 155 202.5 c 128,-1,63
 134 257 134 257 128.5 288 c 128,-1,64
 123 319 123 319 123 383.5 c 128,-1,65
 123 448 123 448 159.5 497 c 128,-1,66
 196 546 196 546 256 550 c 0,67,68
 267 551 267 551 287 551 c 0,69,70
 350 551 350 551 380 528 c 128,-1,71
 410 505 410 505 410 448 c 0,72,73
 410 419 410 419 387 399.5 c 128,-1,74
 364 380 364 380 335.5 380 c 128,-1,75
 307 380 307 380 290 392 c 128,-1,76
 273 404 273 404 273 423.5 c 128,-1,77
 273 443 273 443 283 454.5 c 128,-1,78
 293 466 293 466 306 466 c 0,79,80
 338 466 338 466 338 438 c 0,81,82
 338 422 338 422 330.5 412.5 c 128,-1,83
 323 403 323 403 313 401 c 1,84,85
 344 401 344 401 358 426 c 0,86,87
 363 437 363 437 364 451 c 1,88,-1
 364 457 l 2,89,90
 364 535 364 535 284 535 c 1,91,-1
 270 534 l 2,92,93
 251 532 251 532 236 515.5 c 128,-1,94
 221 499 221 499 210 464 c 128,-1,95
 199 429 199 429 199 384 c 128,-1,96
 199 339 199 339 221 267 c 1,97,98
 230 294 230 294 254 311 c 128,-1,99
 278 328 278 328 305 328 c 128,-1,100
 332 328 332 328 346.5 312.5 c 128,-1,101
 361 297 361 297 361 279 c 128,-1,102
 361 261 361 261 350 251.5 c 128,-1,103
 339 242 339 242 325 242 c 0,104,105
 305 242 305 242 305 263.5 c 128,-1,106
 305 285 305 285 325 285 c 1,107,-1
 342 281 l 1,108,109
 342 294 342 294 331 301.5 c 128,-1,110
 320 309 320 309 304 309 c 0,111,112
 250 309 250 309 230 238 c 1,113,114
 250 176 250 176 250 126.5 c 128,-1,115
 250 77 250 77 235.5 52 c 128,-1,116
 221 27 221 27 190 8 c 1,117,-1
 218 8 l 2,118,119
 305 8 305 8 305 67 c 1,120,-1
 302 116 l 2,121,122
 302 132 302 132 304 141 c 0,123,124
 309 170 309 170 337.5 189.5 c 128,-1,125
 366 209 366 209 395 209 c 128,-1,126
 424 209 424 209 438 194 c 128,-1,127
 452 179 452 179 452 155.5 c 128,-1,128
 452 132 452 132 432 132 c 0,129,130
 424 132 424 132 417.5 136.5 c 128,-1,131
 411 141 411 141 411 146 c 0,132,133
 411 167 411 167 428 167 c 2,134,-1
 431 167 l 1,135,136
 431 180 431 180 422 187.5 c 128,-1,137
 413 195 413 195 400 195 c 0,138,139
 363 195 363 195 360 147 c 1,140,141
 376 163 376 163 389 163 c 0,142,143
 391 163 391 163 393 163 c 1,144,145
 373 151 373 151 364 125 c 0,146,147
 361 116 361 116 361 108 c 2,148,-1
 364 71 l 1,149,150
 364 57 364 57 359 44 c 0,151,152
 340 -5 340 -5 198 -5 c 0,153,154
 102 -5 102 -5 78 15 c 0,155,156
 55 35 55 35 55 79 c 0,157,158
 55 101 55 101 68 114.5 c 128,-1,159
 81 128 81 128 97.5 128 c 128,-1,160
 114 128 114 128 123.5 119 c 128,-1,161
 133 110 133 110 133 98.5 c 128,-1,162
 133 87 133 87 123.5 79.5 c 128,-1,163
 114 72 114 72 102.5 72 c 128,-1,164
 91 72 91 72 77 80 c 1,165,166
 76 76 76 76 76 71 c 0,48,49
EndSplineSet
Validated: 3073
Substitution2: "'ss01' Style Set Simple Forms-1" uni0415.simple
Colour: ff00
EndChar

StartChar: uni0416
Encoding: 1046 1046 24
Width: 600
Flags: W
HStem: 0 12<31.5396 72.3608 232 258 334 360 521.948 557.543> 40 35<20 39.8413 552.415 572> 224 32<20.0332 43.9814 548.167 571.967> 225 8<82.8373 98.1488 488.391 509.734> 246 11<79.2036 111.69> 252 7<495.571 515.689> 278 9<40.4734 81.5391 500.284 557.042> 296 11<71.0013 81.9987 510.001 520.999> 306 11<86.0549 105.733 481.942 504.902> 312 11<67.0013 77.9987 514.001 524.999> 324 10<78.0013 88.9987 503.001 513.999> 447 10<91.2121 126.414 463.221 503.405> 453 20<180.601 246.249 345.751 411.399> 538 12<82 108 159 185 232 258 334 360 407 433 484 510>
VStem: 0 40<40 74.9725 226.507 256> 0 20<19.7357 40> 67 11<312.001 322.999 381.78 435.058> 78 11<324.001 333.999> 86 31<307.301 369> 105 16<363.375 380.929> 108 51<483.331 538> 258 76<12 332 351 471 474.984 538> 433 51<80.0018 226.42 483.331 538> 471 17<352 382.98> 503 11<324.001 333.999> 510 11<296.001 306.999> 514 11<312.001 322.999 382.685 437.074> 552 41<42.0051 76.9901 228.806 257.996> 572 21<21.7357 42>
AnchorPoint: "Yerok" 461.5 576 basechar 0
AnchorPoint: "Diacritic" 299 575 basechar 0
LayerCount: 3
Fore
SplineSet
108 447 m 0xefa0a0
 91 447 76 434 76 413 c 0
 76 385 103 350 103 350 c 1
 103 350 101 357 104 368 c 0
 110 386 121 385 121 385 c 1
 121 385 117 375 117 367 c 0xefa120
 117 345 136 309 156 287 c 1
 204 342 258 351 258 351 c 1
 258 471 l 1
 247 462 229 453 205 453 c 0
 193 453 180 456 165 461 c 0
 113 481 108 517 108 532 c 0
 108 538 l 1
 82 538 l 1
 82 550 l 1
 185 550 l 1
 185 538 l 1
 159 538 l 1
 159 538 159 536 159 533 c 0
 159 520 162 482 200 475 c 0
 208 473 214 473 220 473 c 0
 241 473 252 481 258 486 c 1
 258 538 l 1
 232 538 l 1
 232 550 l 1
 360 550 l 1
 360 538 l 1
 334 538 l 1
 334 486 l 1
 340 481 351 473 372 473 c 0
 378 473 384 473 392 475 c 0
 430 482 433 520 433 533 c 0
 433 538 l 1
 407 538 l 1
 407 550 l 1
 510 550 l 1
 510 538 l 1
 484 538 l 1
 484 538 484 536 484 532 c 0xcf60b1
 484 517 479 481 427 461 c 0
 412 456 399 453 387 453 c 0
 363 453 345 462 334 471 c 1
 334 353 l 1
 334 353 388 344 436 289 c 1
 456 311 475 347 475 369 c 0xcf6024
 475 377 471 387 471 387 c 1
 471 387 482 388 488 370 c 0
 491 359 489 352 489 352 c 1
 489 352 516 387 516 415 c 0
 516 436 501 449 484 449 c 0xcf6030
 468 449 458 440 456 427 c 0
 451 407 465 402 459 402 c 0
 449 402 446 415 446 426 c 0
 446 449 463 459 485 459 c 0
 513 459 528 436 528 411 c 0
 528 370 465 302 465 302 c 2
 465 302 489 317 500 317 c 0
 503 317 506 316 506 313 c 0
 506 306 456 299 445 278 c 1
 449 274 455 265 455 265 c 1
 481 280 506 287 535 287 c 0
 559 287 588 279 588 251 c 0
 588 237 573 226 562 226 c 0
 554 226 548 233 548 243 c 0
 548 256 560 258 567 258 c 0
 572 258 l 1xef602c20
 567 274 550 278 531 278 c 0
 523 278 514 277 506 276 c 0
 497 274 476 267 460 256 c 1
 461 254 466 245 466 245 c 0
 477 253 493 259 508 259 c 0
 513 259 516 258 516 257 c 0
 516 250 492 251 477 242 c 1xdf202c20
 477 242 473 239 470 237 c 1
 476 225 l 2
 477 225 478 226 479 226 c 0
 488 231 497 233 503 233 c 0xef2022
 508 233 510 232 510 229 c 0
 510 223 501 230 483 218 c 2
 483 218 482 217 480 216 c 1
 503 162 497 106 505 84 c 0
 514 58 534 46 534 46 c 1
 534 46 524 44 515 50 c 0
 508 55 501 62 501 62 c 1
 501 62 502 29 518 20 c 0
 525 16 533 14 541 14 c 0
 557 14 572 23 572 42 c 1xef202120
 572 42 571 42 569 42 c 0
 565 42 552 44 552 63 c 0
 552 70 562 77 573 77 c 0
 585 77 593 68 593 51 c 0
 593 24 573 0 544 0 c 0
 495 0 446 31 439 86 c 0
 432 143 436 192 420 239 c 0
 393 317 334 334 334 334 c 1
 334 12 l 1
 360 12 l 1
 360 0 l 1
 232 0 l 1
 232 12 l 1
 258 12 l 1
 258 332 l 1
 258 332 199 315 172 237 c 0
 156 190 160 141 153 84 c 0
 146 29 97 0 48 0 c 0
 19 0 0 22 0 49 c 0
 0 66 7 75 19 75 c 0
 30 75 40 68 40 61 c 0xef302040
 40 42 27 40 23 40 c 0
 20 40 l 1
 20 21 35 12 51 12 c 0
 59 12 67 14 74 18 c 0
 90 27 91 60 91 60 c 1
 91 60 84 53 77 48 c 0
 68 42 58 44 58 44 c 1
 58 44 78 56 87 82 c 0
 96 107 86 143 108 203 c 0
 109 207 112 214 112 214 c 1
 110 215 109 216 109 216 c 2
 91 228 82 221 82 227 c 0
 82 230 84 231 89 231 c 0xef2aa0
 95 231 104 229 113 224 c 0
 114 224 115 223 116 223 c 2
 122 235 l 1
 119 237 115 240 115 240 c 1
 100 248 76 248 76 255 c 0
 76 256 79 257 84 257 c 0
 97 257 115 251 126 243 c 1
 132 254 l 1
 116 264 95 272 86 274 c 0
 78 275 69 276 61 276 c 0
 42 276 25 272 20 256 c 1
 20 256 22 256 25 256 c 0
 32 256 44 254 44 241 c 0
 44 231 38 224 30 224 c 0
 19 224 4 235 4 249 c 0
 4 277 33 285 57 285 c 0
 86 285 111 278 137 263 c 1
 137 263 143 272 147 276 c 1
 134 295 86 306 86 311 c 0
 86 314 89 315 92 315 c 0
 103 315 127 300 127 300 c 1
 127 300 64 368 64 409 c 0
 64 434 79 457 106 457 c 0
 129 457 146 446 146 422 c 0
 146 412 142 403 133 402 c 0
 127 401 141 405 136 425 c 0xefa960
 134 438 124 447 108 447 c 0xefa0a0
510 302 m 0xcf2021
 510 305 512 307 515 307 c 0
 518 307 521 305 521 302 c 0
 521 299 518 296 515 296 c 0
 512 296 510 299 510 302 c 0xcf2021
514 318 m 0xcf202080
 514 321 517 323 520 323 c 0
 523 323 525 321 525 318 c 0
 525 315 523 312 520 312 c 0
 517 312 514 315 514 318 c 0xcf202080
503 329 m 0xcf2022
 503 332 505 334 508 334 c 0
 511 334 514 332 514 329 c 0
 514 326 511 324 508 324 c 0
 505 324 503 326 503 329 c 0xcf2022
82 302 m 0
 82 299 80 296 77 296 c 0
 74 296 71 299 71 302 c 0
 71 305 74 307 77 307 c 0
 80 307 82 305 82 302 c 0
78 318 m 0xcf2420
 78 315 75 312 72 312 c 0
 69 312 67 315 67 318 c 0
 67 321 69 323 72 323 c 0
 75 323 78 321 78 318 c 0xcf2420
89 329 m 0xcf2220
 89 326 87 324 84 324 c 0
 81 324 78 326 78 329 c 0
 78 332 81 334 84 334 c 0
 87 334 89 332 89 329 c 0xcf2220
EndSplineSet
Validated: 1
Layer: 2
SplineSet
57 0 m 0,0,1
 0 0 0 0 0 52 c 0,2,3
 0 75 0 75 19 75 c 0,4,5
 27 75 27 75 33.5 70.5 c 128,-1,6
 40 66 40 66 40 61 c 0,7,8
 40 40 40 40 23 40 c 2,9,-1
 20 40 l 1,10,11
 20 27 20 27 29 19.5 c 128,-1,12
 38 12 38 12 51 12 c 128,-1,13
 64 12 64 12 72 17 c 0,14,15
 89 27 89 27 91 60 c 1,16,17
 75 44 75 44 61 44 c 0,18,19
 60 44 60 44 58 44 c 1,20,21
 78 56 78 56 87 82 c 0,22,23
 90 90 90 90 92.5 129.5 c 128,-1,24
 95 169 95 169 108 203 c 2,25,-1
 112 214 l 1,26,27
 101 221 101 221 91.5 223 c 128,-1,28
 82 225 82 225 82 227 c 0,29,30
 82 231 82 231 91 231 c 128,-1,31
 100 231 100 231 106.5 227.5 c 128,-1,32
 113 224 113 224 116 223 c 1,33,-1
 122 235 l 1,34,35
 112 242 112 242 94 246 c 0,36,37
 76 251 76 251 76 255 c 0,38,39
 76 257 76 257 91.5 257 c 128,-1,40
 107 257 107 257 126 243 c 1,41,-1
 132 254 l 1,42,43
 97 276 97 276 61.5 276 c 128,-1,44
 26 276 26 276 20 256 c 1,45,-1
 25 256 l 2,46,47
 44 256 44 256 44 241 c 0,48,49
 44 224 44 224 30 224 c 0,50,51
 21 224 21 224 12.5 231.5 c 128,-1,52
 4 239 4 239 4 249 c 0,53,54
 4 285 4 285 51.5 285 c 128,-1,55
 99 285 99 285 137 263 c 1,56,57
 143 272 143 272 147 276 c 1,58,59
 136 291 136 291 111 300 c 128,-1,60
 86 309 86 309 86 311 c 0,61,62
 86 315 86 315 94 315 c 0,63,64
 103 315 103 315 127 300 c 1,65,66
 64 368 64 368 64 409 c 0,67,68
 64 429 64 429 75.5 443 c 128,-1,69
 87 457 87 457 106 457 c 0,70,71
 146 457 146 457 146 422 c 0,72,73
 146 402 146 402 133 402 c 0,74,75
 131 402 131 402 132 403 c 0,76,77
 140 411 140 411 136 425 c 1,78,79
 133 447 133 447 108 447 c 0,80,81
 95 447 95 447 85.5 437.5 c 128,-1,82
 76 428 76 428 76 409 c 0,83,84
 76 389 76 389 96 360 c 2,85,-1
 103 350 l 1,86,87
 101 357 101 357 105 370 c 128,-1,88
 109 383 109 383 121 385 c 1,89,90
 117 375 117 375 117 363 c 128,-1,91
 117 351 117 351 128.5 327.5 c 128,-1,92
 140 304 140 304 156 287 c 1,93,94
 177 311 177 311 202.5 327 c 128,-1,95
 228 343 228 343 243 347 c 2,96,-1
 258 351 l 1,97,-1
 258 471 l 1,98,99
 236 453 236 453 212.5 453 c 128,-1,100
 189 453 189 453 165 461 c 1,101,102
 108 483 108 483 108 532 c 2,103,-1
 108 538 l 1,104,-1
 82 538 l 1,105,-1
 82 550 l 1,106,-1
 185 550 l 1,107,-1
 185 538 l 1,108,-1
 159 538 l 1,109,-1
 159 533 l 2,110,111
 159 473 159 473 220 473 c 0,112,113
 242 473 242 473 258 486 c 1,114,-1
 258 538 l 1,115,-1
 232 538 l 1,116,-1
 232 550 l 1,117,-1
 360 550 l 1,118,-1
 360 538 l 1,119,-1
 334 538 l 1,120,-1
 334 486 l 1,121,122
 350 473 350 473 372 473 c 0,123,124
 433 473 433 473 433 533 c 2,125,-1
 433 538 l 1,126,-1
 407 538 l 1,127,-1
 407 550 l 1,128,-1
 510 550 l 1,129,-1
 510 538 l 1,130,-1
 484 538 l 1,131,-1
 484 532 l 2,132,133
 484 483 484 483 427 461 c 1,134,135
 403 453 403 453 379.5 453 c 128,-1,136
 356 453 356 453 334 471 c 1,137,-1
 334 353 l 1,138,139
 388 344 388 344 436 289 c 1,140,141
 452 306 452 306 463.5 329.5 c 128,-1,142
 475 353 475 353 475 369 c 1,143,-1
 471 387 l 1,144,145
 482 388 482 388 488 370 c 1,146,-1
 489 352 l 1,147,148
 516 387 516 387 516 408.5 c 128,-1,149
 516 430 516 430 506.5 439.5 c 128,-1,150
 497 449 497 449 484 449 c 0,151,152
 459 449 459 449 456 427 c 0,153,154
 454 418 454 418 456 411.5 c 128,-1,155
 458 405 458 405 460 404 c 128,-1,156
 462 403 462 403 459 402 c 1,157,158
 446 402 446 402 446 426 c 0,159,160
 446 459 446 459 485 459 c 0,161,162
 505 459 505 459 516.5 445 c 128,-1,163
 528 431 528 431 528 412 c 128,-1,164
 528 393 528 393 512 365.5 c 128,-1,165
 496 338 496 338 480 320 c 2,166,-1
 465 302 l 1,167,168
 489 317 489 317 497.5 317 c 128,-1,169
 506 317 506 317 506 313.5 c 128,-1,170
 506 310 506 310 493 306 c 0,171,172
 454 294 454 294 445 278 c 1,173,-1
 455 265 l 1,174,175
 493 287 493 287 540.5 287 c 128,-1,176
 588 287 588 287 588 251 c 0,177,178
 588 241 588 241 579.5 233.5 c 128,-1,179
 571 226 571 226 562 226 c 0,180,181
 548 226 548 226 548 243 c 0,182,183
 548 258 548 258 567 258 c 2,184,-1
 572 258 l 1,185,186
 566 278 566 278 531 278 c 0,187,188
 522 278 522 278 506 276 c 1,189,190
 481 270 481 270 460 256 c 1,191,-1
 466 245 l 1,192,193
 485 259 485 259 500.5 259 c 128,-1,194
 516 259 516 259 516 256.5 c 128,-1,195
 516 254 516 254 509.5 252 c 128,-1,196
 503 250 503 250 493 248 c 128,-1,197
 483 246 483 246 478 242.5 c 128,-1,198
 473 239 473 239 470 237 c 1,199,-1
 476 225 l 1,200,-1
 485 230 l 2,201,202
 492 233 492 233 501 233 c 128,-1,203
 510 233 510 233 510 230 c 128,-1,204
 510 227 510 227 501 225 c 0,205,206
 491 223 491 223 486.5 220 c 128,-1,207
 482 217 482 217 480 216 c 1,208,209
 493 184 493 184 498 136.5 c 128,-1,210
 503 89 503 89 506 80 c 0,211,212
 513 61 513 61 534 46 c 1,213,214
 524 44 524 44 515 50 c 1,215,-1
 501 62 l 1,216,217
 502 14 502 14 541 14 c 0,218,219
 554 14 554 14 563 21.5 c 128,-1,220
 572 29 572 29 572 42 c 1,221,-1
 569 42 l 2,222,223
 552 42 552 42 552 63 c 0,224,225
 552 68 552 68 558.5 72.5 c 128,-1,226
 565 77 565 77 573 77 c 0,227,228
 593 77 593 77 593 53.5 c 128,-1,229
 593 30 593 30 579 15 c 128,-1,230
 565 0 565 0 535 0 c 128,-1,231
 505 0 505 0 474 23 c 0,232,233
 443 47 443 47 439 86 c 0,234,235
 437 105 437 105 434 156 c 128,-1,236
 431 207 431 207 419.5 240.5 c 128,-1,237
 408 274 408 274 386.5 297.5 c 128,-1,238
 365 321 365 321 350 328 c 2,239,-1
 334 334 l 1,240,-1
 334 12 l 1,241,-1
 360 12 l 1,242,-1
 360 0 l 1,243,-1
 232 0 l 1,244,-1
 232 12 l 1,245,-1
 258 12 l 1,246,-1
 258 332 l 1,247,248
 251 330 251 330 240.5 325 c 128,-1,249
 230 320 230 320 207 296 c 128,-1,250
 184 272 184 272 174.5 244 c 128,-1,251
 165 216 165 216 162 192 c 128,-1,252
 159 168 159 168 157 136 c 128,-1,253
 155 104 155 104 153 84 c 0,254,255
 148 45 148 45 117.5 22.5 c 128,-1,256
 87 0 87 0 57 0 c 0,0,1
510 301.5 m 128,-1,258
 510 307 510 307 515.5 307 c 128,-1,259
 521 307 521 307 521 301.5 c 128,-1,260
 521 296 521 296 515.5 296 c 128,-1,257
 510 296 510 296 510 301.5 c 128,-1,258
514 317.5 m 128,-1,262
 514 323 514 323 519.5 323 c 128,-1,263
 525 323 525 323 525 317.5 c 128,-1,264
 525 312 525 312 519.5 312 c 128,-1,261
 514 312 514 312 514 317.5 c 128,-1,262
503 329 m 128,-1,266
 503 334 503 334 508.5 334 c 128,-1,267
 514 334 514 334 514 329 c 128,-1,268
 514 324 514 324 508.5 324 c 128,-1,265
 503 324 503 324 503 329 c 128,-1,266
82 301.5 m 128,-1,270
 82 296 82 296 76.5 296 c 128,-1,271
 71 296 71 296 71 301.5 c 128,-1,272
 71 307 71 307 76.5 307 c 128,-1,269
 82 307 82 307 82 301.5 c 128,-1,270
78 317.5 m 128,-1,274
 78 312 78 312 72.5 312 c 128,-1,275
 67 312 67 312 67 317.5 c 128,-1,276
 67 323 67 323 72.5 323 c 128,-1,273
 78 323 78 323 78 317.5 c 128,-1,274
89 329 m 128,-1,278
 89 324 89 324 83.5 324 c 128,-1,279
 78 324 78 324 78 329 c 128,-1,280
 78 334 78 334 83.5 334 c 128,-1,277
 89 334 89 334 89 329 c 128,-1,278
EndSplineSet
Validated: 3073
Substitution2: "'ss01' Style Set Simple Forms-1" uni0416.simple
Colour: ff00
EndChar

StartChar: uni0417
Encoding: 1047 1047 25
Width: 480
Flags: W
HStem: -90 18<17.4178 38> -4 9<267.771 311.43> 48 9<279.236 309.521> 57 27<98.8759 181> 121 10<250.001 260.999> 133 11<243.001 253.999 266.297 279.979> 146 11<248.001 258.999> 162 12<237.473 290.989> 191 26<231 252.997> 235 66<200.798 255.023> 322 26<231.156 252.997> 365 12<237.473 290.989> 382 11<248.001 258.999> 394 7<262.003 290.608> 395 11<243.001 253.999> 408 10<250.001 260.999> 427 12<52 78 154 180> 482 9<280.356 309.832> 529 21<204.146 315.938>
VStem: -6 14<-59.88 -12.5> 36 43<-71.812 -42.0046> 78 76<439 499.893> 191 65<272 291.202> 219 12<180.081 194 345 358.919> 243 11<133.001 143.999 395.001 405.999> 248 11<121.206 130.794 146.001 156.999 382.001 392.999 408.206 417.794> 261 8<68.9656 102.406 436.371 469.554> 287 8<93.0977 119.161 420.465 445.626> 317 13<70.7859 82.8438 160.754 213.122 352.055 378.125> 384 62<329.743 477.741> 391 73<54.9093 199.338>
DStem2: 36 -3 40 -21 0.20601 0.97855<-16.5703 19.1503>
AnchorPoint: "Yerok" 417 568 basechar 0
AnchorPoint: "Diacritic" 257 575 basechar 0
LayerCount: 3
Fore
SplineSet
261 413 m 0xc8f8f88c
 261 410 259 408 256 408 c 0
 253 408 250 410 250 413 c 0
 250 416 253 418 256 418 c 0
 259 418 261 416 261 413 c 0xc8f8f88c
254 402 m 0xc8f9f82c
 254 399 251 395 248 395 c 0xc8f9f81c
 245 395 243 399 243 402 c 0xc8f9f82c
 243 405 245 406 248 406 c 0xc8f9f81c
 251 406 254 405 254 402 c 0xc8f9f82c
259 388 m 0
 259 385 257 382 254 382 c 0xc8fcf82c
 251 382 248 385 248 388 c 0xc8fcf81c
 248 391 251 393 254 393 c 0xc8fcf82c
 257 393 259 391 259 388 c 0
296 491 m 0
 313 491 324 478 324 462 c 0xc8f9f80e
 324 457 322 452 317 451 c 0xc8f9f80d
 312 450 322 456 315 470 c 0xc8f9f80e
 311 479 304 482 295 482 c 0
 280 482 269 471 269 456 c 0
 269 433 289 415 289 415 c 1
 289 415 287 420 287 430 c 0
 287 446 295 446 295 446 c 1
 295 434 l 1
 295 411 319 402 326 377 c 0
 328 369 330 363 330 356 c 0
 330 347 323 327 322 324 c 1
 320 338 299 365 265 365 c 0
 248 365 231 359 231 345 c 1
 231 345 236 348 242 348 c 0
 248 348 253 345 253 333 c 0
 253 325 247 322 241 322 c 0
 229 322 219 329 219 342 c 0
 219 366 243 377 266 377 c 0
 285 377 305 367 316 352 c 1
 316 355 317 357 317 360 c 0
 317 370 313 379 301 386 c 0
 281 399 262 390 262 397 c 0
 262 400 266 401 271 401 c 0xc8faf84d
 284 401 305 395 305 395 c 2xc8f9f84d
 304 396 261 419 261 455 c 0
 261 476 275 491 296 491 c 0
261 126 m 0
 261 123 259 121 256 121 c 0
 253 121 250 123 250 126 c 0
 250 129 253 131 256 131 c 0xc8f8f88c
 259 131 261 129 261 126 c 0
254 138 m 0xcaf8f82c
 254 135 251 133 248 133 c 0xccf8f81c
 245 133 243 135 243 138 c 0xcaf8f82c
 243 141 245 144 248 144 c 0xccf8f81c
 251 144 254 141 254 138 c 0xcaf8f82c
259 151 m 0
 259 148 257 146 254 146 c 0xc9f8f82c
 251 146 248 148 248 151 c 0xc9f8f81c
 248 154 251 157 254 157 c 0xc9f8f82c
 257 157 259 154 259 151 c 0
224 301 m 0
 240 301 256 289 256 272 c 1
 280 278 326 280 359 322 c 0
 376 343 384 373 384 402 c 0
 384 465 345 529 265 529 c 0
 193 529 154 499 154 439 c 1
 180 439 l 1
 180 427 l 1
 52 427 l 1
 52 439 l 1
 78 439 l 1
 78 481 99 550 265 550 c 0
 345 550 446 535 446 427 c 0xd8f8f98c80
 446 335 414 303 358 277 c 0
 352 274 346 272 340 270 c 1
 409 254 464 196 464 124 c 0
 464 23 358 -4 277 -4 c 0
 239 -4 207 2 194 9 c 0
 153 32 147 57 124 57 c 0
 113 57 99 52 76 39 c 0
 50 25 40 -21 40 -21 c 1
 40 -21 36 -13 36 -3 c 0
 36 4 40 16 40 16 c 1xd8f8fa0c40
 40 16 23 2 14 -14 c 0
 10 -20 8 -28 8 -36 c 0
 8 -54 18 -72 38 -72 c 1
 38 -72 36 -67 36 -61 c 0
 36 -52 40 -42 58 -42 c 0
 71 -42 79 -48 79 -61 c 0
 79 -74 66 -90 43 -90 c 0
 17 -90 -6 -69 -6 -40 c 0
 -6 9 38 40 70 57 c 0
 100 73 128 84 155 84 c 0
 188 84 220 67 256 19 c 0
 264 9 276 5 289 5 c 0
 301 5 314 9 325 13 c 0
 370 31 391 75 391 121 c 0
 391 174 362 230 308 252 c 0
 286 261 268 264 257 264 c 1
 255 248 241 235 224 235 c 0
 205 235 191 250 191 268 c 0xd8f8fc8c40
 191 287 206 301 224 301 c 0
322 215 m 1
 324 212 330 192 330 183 c 0xcaf8f84d
 330 176 328 170 326 162 c 0
 319 137 295 128 295 105 c 1
 295 93 l 1
 295 93 287 93 287 109 c 0
 287 119 289 124 289 124 c 1
 289 124 269 106 269 83 c 0
 269 68 280 57 295 57 c 0
 304 57 311 60 315 69 c 0xeaf8f80e
 322 83 312 89 317 88 c 0xeaf8f80d
 322 87 324 82 324 77 c 0
 324 61 313 48 296 48 c 0xeaf8f80e
 275 48 261 63 261 84 c 0
 261 120 304 143 305 144 c 2xdcf8f80e
 305 144 284 138 271 138 c 0
 266 138 262 139 262 142 c 0
 262 149 281 140 301 153 c 0
 313 160 317 169 317 179 c 0
 317 182 316 184 316 187 c 1
 305 172 285 162 266 162 c 0
 243 162 219 173 219 197 c 0
 219 210 229 217 241 217 c 0
 247 217 253 214 253 206 c 0
 253 194 248 191 242 191 c 0
 236 191 231 194 231 194 c 1xcaf8f84d
 231 180 248 174 265 174 c 0
 299 174 320 201 322 215 c 1
EndSplineSet
Validated: 1
Layer: 2
SplineSet
261 413 m 128,-1,1
 261 408 261 408 255.5 408 c 128,-1,2
 250 408 250 408 250 413 c 128,-1,3
 250 418 250 418 255.5 418 c 128,-1,0
 261 418 261 418 261 413 c 128,-1,1
248.5 395 m 128,-1,5
 243 395 243 395 243 400.5 c 128,-1,6
 243 406 243 406 248.5 406 c 128,-1,7
 254 406 254 406 254 400.5 c 128,-1,4
 254 395 254 395 248.5 395 c 128,-1,5
259 387.5 m 128,-1,9
 259 382 259 382 253.5 382 c 128,-1,10
 248 382 248 382 248 387.5 c 128,-1,11
 248 393 248 393 253.5 393 c 128,-1,8
 259 393 259 393 259 387.5 c 128,-1,9
219 342 m 0,12,13
 219 377 219 377 272 377 c 0,14,15
 298 377 298 377 316 352 c 1,16,-1
 317 360 l 1,17,18
 317 377 317 377 301 386 c 1,19,20
 289 394 289 394 275.5 394 c 128,-1,21
 262 394 262 394 262 397.5 c 128,-1,22
 262 401 262 401 271 401 c 1,23,-1
 305 395 l 1,24,25
 261 421 261 421 261 455 c 0,26,27
 261 471 261 471 270.5 481 c 128,-1,28
 280 491 280 491 294 491 c 128,-1,29
 308 491 308 491 316 482.5 c 128,-1,30
 324 474 324 474 324 463 c 128,-1,31
 324 452 324 452 317 451 c 0,32,33
 315 451 315 451 317 457 c 128,-1,34
 319 463 319 463 315 470 c 1,35,36
 310 482 310 482 297 482 c 128,-1,37
 284 482 284 482 276.5 474.5 c 128,-1,38
 269 467 269 467 269 451 c 128,-1,39
 269 435 269 435 289 415 c 1,40,41
 287 420 287 420 287 432 c 128,-1,42
 287 444 287 444 295 446 c 1,43,-1
 295 434 l 2,44,45
 295 422 295 422 312 401 c 0,46,47
 330 380 330 380 330 364 c 128,-1,48
 330 348 330 348 322 324 c 1,49,50
 320 337 320 337 304 351 c 128,-1,51
 288 365 288 365 259.5 365 c 128,-1,52
 231 365 231 365 231 345 c 1,53,54
 236 348 236 348 242 348 c 0,55,56
 253 348 253 348 253 335 c 128,-1,57
 253 322 253 322 241 322 c 0,58,59
 219 322 219 322 219 342 c 0,12,13
261 126 m 128,-1,61
 261 121 261 121 255.5 121 c 128,-1,62
 250 121 250 121 250 126 c 128,-1,63
 250 131 250 131 255.5 131 c 128,-1,60
 261 131 261 131 261 126 c 128,-1,61
254 138.5 m 128,-1,65
 254 133 254 133 248.5 133 c 128,-1,66
 243 133 243 133 243 138.5 c 128,-1,67
 243 144 243 144 248.5 144 c 128,-1,64
 254 144 254 144 254 138.5 c 128,-1,65
259 151.5 m 128,-1,69
 259 146 259 146 253.5 146 c 128,-1,70
 248 146 248 146 248 151.5 c 128,-1,71
 248 157 248 157 253.5 157 c 128,-1,68
 259 157 259 157 259 151.5 c 128,-1,69
40 16 m 1,72,73
 8 -10 8 -10 8 -36 c 0,74,75
 8 -51 8 -51 16 -61.5 c 128,-1,76
 24 -72 24 -72 38 -72 c 1,77,78
 36 -67 36 -67 36 -61 c 0,79,80
 36 -42 36 -42 57.5 -42 c 128,-1,81
 79 -42 79 -42 79 -61 c 0,82,83
 79 -72 79 -72 69 -81 c 128,-1,84
 59 -90 59 -90 41 -90 c 128,-1,85
 23 -90 23 -90 8.5 -75.5 c 128,-1,86
 -6 -61 -6 -61 -6 -40 c 0,87,88
 -6 17 -6 17 70 57 c 0,89,90
 121 84 121 84 155 84 c 0,91,92
 207 84 207 84 256 19 c 0,93,94
 267 5 267 5 285 5 c 128,-1,95
 303 5 303 5 330 15.5 c 128,-1,96
 357 26 357 26 374 55.5 c 128,-1,97
 391 85 391 85 391 124 c 128,-1,98
 391 163 391 163 369 199.5 c 128,-1,99
 347 236 347 236 313 250 c 128,-1,100
 279 264 279 264 257 264 c 1,101,102
 255 252 255 252 246 243.5 c 128,-1,103
 237 235 237 235 223.5 235 c 128,-1,104
 210 235 210 235 200.5 244.5 c 128,-1,105
 191 254 191 254 191 268 c 128,-1,106
 191 282 191 282 200.5 291.5 c 128,-1,107
 210 301 210 301 223 301 c 128,-1,108
 236 301 236 301 246 292.5 c 128,-1,109
 256 284 256 284 256 272 c 1,110,111
 259 273 259 273 272 276 c 0,112,113
 333 287 333 287 359 322 c 1,114,115
 384 353 384 353 384 403 c 128,-1,116
 384 453 384 453 353 491 c 128,-1,117
 322 529 322 529 265 529 c 0,118,119
 154 529 154 529 154 439 c 1,120,-1
 180 439 l 1,121,-1
 180 427 l 1,122,-1
 52 427 l 1,123,-1
 52 439 l 1,124,-1
 78 439 l 1,125,126
 78 550 78 550 262 550 c 128,-1,127
 446 550 446 550 446 427 c 0,128,129
 446 362 446 362 422 326 c 0,130,131
 398 289 398 289 340 270 c 1,132,133
 393 258 393 258 428.5 217.5 c 128,-1,134
 464 177 464 177 464 124 c 0,135,136
 464 56 464 56 407.5 26 c 128,-1,137
 351 -4 351 -4 284.5 -4 c 128,-1,138
 218 -4 218 -4 196.5 7.5 c 128,-1,139
 175 19 175 19 155.5 38 c 128,-1,140
 136 57 136 57 122 57 c 128,-1,141
 108 57 108 57 86 45 c 0,142,143
 52 26 52 26 43 -9 c 2,144,-1
 40 -21 l 1,145,146
 36 -13 36 -13 36 -3 c 1,147,-1
 40 16 l 1,72,73
322 215 m 1,148,149
 330 203 330 203 330 190.5 c 128,-1,150
 330 178 330 178 326.5 164.5 c 128,-1,151
 323 151 323 151 309 134 c 128,-1,152
 295 117 295 117 295 105 c 2,153,-1
 295 93 l 1,154,155
 287 93 287 93 287 109 c 1,156,-1
 289 124 l 1,157,158
 269 106 269 106 269 89 c 0,159,160
 269 57 269 57 295 57 c 0,161,162
 310 57 310 57 315 69 c 1,163,164
 320 77 320 77 317 88 c 1,165,166
 324 87 324 87 324 76 c 128,-1,167
 324 65 324 65 316 56.5 c 128,-1,168
 308 48 308 48 294 48 c 128,-1,169
 280 48 280 48 270.5 58 c 128,-1,170
 261 68 261 68 261 79.5 c 128,-1,171
 261 91 261 91 263.5 98.5 c 128,-1,172
 266 106 266 106 270 112 c 0,173,174
 281 130 281 130 305 144 c 1,175,176
 284 138 284 138 273 138 c 128,-1,177
 262 138 262 138 262 141.5 c 128,-1,178
 262 145 262 145 275.5 145 c 128,-1,179
 289 145 289 145 301 153 c 1,180,181
 317 162 317 162 317 179 c 0,182,183
 317 181 317 181 316.5 183.5 c 128,-1,184
 316 186 316 186 316 187 c 1,185,186
 298 162 298 162 272 162 c 0,187,188
 219 162 219 162 219 197 c 0,189,190
 219 217 219 217 241 217 c 0,191,192
 253 217 253 217 253 204 c 128,-1,193
 253 191 253 191 242 191 c 1,194,-1
 231 194 l 1,195,196
 231 174 231 174 259.5 174 c 128,-1,197
 288 174 288 174 304 188 c 128,-1,198
 320 202 320 202 322 215 c 1,148,149
EndSplineSet
Validated: 3073
Substitution2: "'ss01' Style Set Simple Forms-1" uni0417.simple
Colour: ff00
EndChar

StartChar: uni0414.simple
Encoding: 62740 62740 26
Width: 530
GlyphClass: 2
Flags: W
HStem: 0 12<96.5078 122.286 150 360> 42 35<72 91.8413> 538 12<334 360 436 462>
VStem: 47 23<-89.5156 -23 24.0923 42> 142 65<53.2993 236.953> 360 76<12 418 437 538> 458 23<-89.4839 -20.2906>
AnchorPoint: "Yerok" 400 576.6 basechar 0
AnchorPoint: "Diacritic" 400 576 basechar 0
LayerCount: 3
Fore
SplineSet
207 115 m 0xe6
 207 61 187 29 150 12 c 1
 360 12 l 1
 360 418 l 1
 339 390 283 349 245 281 c 1
 210 216 206 178 206 145 c 0
 206 135 207 125 207 115 c 0xe6
51 52 m 0
 51 69 60 77 71 77 c 0
 82 77 92 70 92 63 c 0
 92 44 79 42 75 42 c 0
 72 42 l 1
 72 23 87 13 103 13 c 0
 111 13 119 15 126 20 c 0
 141 31 143 62 143 62 c 1
 143 62 136 55 129 50 c 0
 120 44 110 46 110 46 c 1
 110 46 130 58 139 84 c 0
 141 90 142 99 142 110 c 0
 142 117 142 126 142 135 c 0
 142 163 144 199 163 236 c 0
 226 359 360 437 360 437 c 1
 360 538 l 1
 334 538 l 1
 334 550 l 1
 462 550 l 1
 462 538 l 1
 436 538 l 1
 436 12 l 1
 526 12 l 1
 475 -23 l 1
 475 -23 481 -28 481 -45 c 0xee80
 481 -51 480 -59 478 -69 c 0
 473 -92 457 -104 451 -104 c 0
 450 -104 448 -103 448 -102 c 0xe7
 448 -99 458 -93 458 -58 c 0
 458 -23 445 0 397 0 c 2
 131 0 l 2
 83 0 70 -23 70 -58 c 0xee80
 70 -93 80 -99 80 -102 c 0xf6
 80 -103 78 -104 77 -104 c 0
 71 -104 55 -92 50 -69 c 0
 48 -59 47 -51 47 -45 c 0xee
 47 -28 53 -23 53 -23 c 2
 0 12 l 1
 69 12 l 1
 57 22 51 36 51 52 c 0
EndSplineSet
Validated: 1
Layer: 2
SplineSet
206 145 m 1,0,-1
 207 115 l 1,1,2
 207 38 207 38 150 12 c 1,3,-1
 360 12 l 1,4,-1
 360 418 l 1,5,6
 273 331 273 331 245 281 c 0,7,8
 206 211 206 211 206 145 c 1,0,-1
448 -102 m 1,9,10
 458 -86 458 -86 458 -58 c 128,-1,11
 458 -30 458 -30 444.5 -15 c 128,-1,12
 431 0 431 0 397 0 c 2,13,-1
 131 0 l 2,14,15
 97 0 97 0 83.5 -15 c 128,-1,16
 70 -30 70 -30 70 -50 c 128,-1,17
 70 -70 70 -70 71.5 -79 c 128,-1,18
 73 -88 73 -88 75 -92 c 128,-1,19
 77 -96 77 -96 78.5 -98.5 c 128,-1,20
 80 -101 80 -101 80 -102.5 c 128,-1,21
 80 -104 80 -104 75.5 -104 c 128,-1,22
 71 -104 71 -104 62 -94 c 0,23,24
 47 -77 47 -77 47 -45 c 1,25,-1
 53 -23 l 1,26,-1
 0 12 l 1,27,-1
 69 12 l 1,28,29
 51 27 51 27 51 52 c 128,-1,30
 51 77 51 77 71 77 c 0,31,32
 79 77 79 77 85.5 72.5 c 128,-1,33
 92 68 92 68 92 63 c 0,34,35
 92 42 92 42 75 42 c 2,36,-1
 72 42 l 1,37,38
 72 28 72 28 81 20.5 c 128,-1,39
 90 13 90 13 103 13 c 0,40,41
 115 13 115 13 124 19 c 0,42,43
 139 29 139 29 143 62 c 1,44,45
 127 46 127 46 113 46 c 0,46,47
 112 46 112 46 110 46 c 1,48,49
 142 65 142 65 142 110 c 2,50,-1
 142 135 l 2,51,52
 142 195 142 195 166.5 243 c 128,-1,53
 191 291 191 291 240.5 341 c 128,-1,54
 290 391 290 391 325 414 c 2,55,-1
 360 437 l 1,56,-1
 360 538 l 1,57,-1
 334 538 l 1,58,-1
 334 550 l 1,59,-1
 462 550 l 1,60,-1
 462 538 l 1,61,-1
 436 538 l 1,62,-1
 436 12 l 1,63,-1
 526 12 l 1,64,-1
 475 -23 l 1,65,66
 481 -28 481 -28 481 -41 c 128,-1,67
 481 -54 481 -54 478 -69 c 128,-1,68
 475 -84 475 -84 466 -94 c 128,-1,69
 457 -104 457 -104 452.5 -104 c 128,-1,70
 448 -104 448 -104 448 -102 c 1,9,10
EndSplineSet
Validated: 3073
Colour: ff00
EndChar

StartChar: uni0415.simple
Encoding: 62741 62741 27
Width: 420
GlyphClass: 2
Flags: W
HStem: -5 13<69.3552 209.759> 72 56<22.4369 68.2014> 132 35<356.159 376> 195 14<323.088 366.033> 242 43<250.005 286.706> 309 19<214.436 276.96> 380 21<258.5 290.134> 535 16<195.427 271.188>
VStem: 0 21<35.1383 79.7801> 68 76<268.383 473.371> 121 31<85.6012 135.78> 160 35<47.3848 135.54> 218 65<402.055 454.139> 250 56<23.7229 155.143 251.799 281.24> 287 19<281 300.009> 309 46<409.162 516.7> 376 21<167 187.264>
AnchorPoint: "Yerok" 333.5 575.4 basechar 0
AnchorPoint: "Diacritic" 226 575 basechar 0
LayerCount: 3
Fore
SplineSet
306 277 m 0xffd580
 306 255 288 242 270 242 c 0
 259 242 250 247 250 260 c 0xffd580
 250 280 260 285 270 285 c 0
 278 285 287 281 287 281 c 1xff9380
 287 300 268 309 249 309 c 0
 202 309 182 263 175 238 c 1
 186 204 195 169 195 125 c 0
 195 56 173 31 135 8 c 1
 142 8 148 8 154 8 c 0
 157 8 160 8 163 8 c 0
 190 8 212 9 226 20 c 0
 246 36 250 50 250 67 c 0
 250 81 247 97 247 116 c 0
 247 124 247 132 249 141 c 0
 256 180 299 209 348 209 c 0
 377 209 397 185 397 158 c 0
 397 141 389 132 377 132 c 0
 366 132 356 139 356 146 c 0
 356 165 369 167 373 167 c 0
 376 167 l 1
 376 186 361 195 345 195 c 0
 337 195 329 193 322 189 c 0
 306 180 305 147 305 147 c 1
 305 147 312 154 319 159 c 0
 328 165 338 163 338 163 c 1
 338 163 318 151 309 125 c 0
 307 119 306 114 306 108 c 0
 306 96 309 85 309 71 c 0
 309 63 308 54 304 44 c 0
 289 5 210 -5 143 -5 c 0
 59 -5 0 -4 0 79 c 0
 0 109 21 128 44 128 c 0
 64 128 78 114 78 98 c 0
 78 82 62 72 48 72 c 0
 34 72 22 80 22 80 c 1
 22 80 21 76 21 71 c 0
 21 57 25 31 51 20 c 0
 63 15 75 12 88 12 c 0
 107 12 127 19 143 35 c 0
 156 48 160 67 160 86 c 0
 160 112 152 136 152 136 c 1
 152 136 151 108 133 80 c 0
 122 62 99 47 84 47 c 0
 83 47 l 0
 83 49 121 58 121 115 c 0xffb580
 121 134 117 158 105 189 c 0
 70 282 68 300 68 382 c 0
 68 467 118 545 201 550 c 0
 212 551 222 551 232 551 c 0
 311 551 355 528 355 448 c 0
 355 408 318 380 277 380 c 0
 246 380 218 395 218 426 c 0
 218 449 234 466 251 466 c 0
 269 466 283 456 283 438 c 0xffd980
 283 436 283 433 282 430 c 0
 277 402 258 401 258 401 c 1
 258 401 307 401 309 451 c 0
 309 453 309 455 309 457 c 0
 309 501 287 535 229 535 c 0
 225 535 220 534 215 534 c 0
 160 529 144 433 144 384 c 0
 144 339 155 303 166 267 c 1
 178 301 211 328 255 328 c 0
 285 328 306 303 306 277 c 0xffd580
EndSplineSet
Validated: 1
Layer: 2
SplineSet
229 535 m 1,0,-1
 215 534 l 2,1,2
 196 532 196 532 181 515.5 c 128,-1,3
 166 499 166 499 158 475 c 0,4,5
 144 429 144 429 144 384 c 128,-1,6
 144 339 144 339 166 267 c 1,7,8
 175 294 175 294 199 311 c 128,-1,9
 223 328 223 328 250 328 c 128,-1,10
 277 328 277 328 291.5 312.5 c 128,-1,11
 306 297 306 297 306 279 c 128,-1,12
 306 261 306 261 295 251.5 c 128,-1,13
 284 242 284 242 270 242 c 0,14,15
 250 242 250 242 250 263.5 c 128,-1,16
 250 285 250 285 270 285 c 1,17,-1
 287 281 l 1,18,19
 287 294 287 294 276 301.5 c 128,-1,20
 265 309 265 309 249 309 c 0,21,22
 195 309 195 309 175 238 c 1,23,24
 195 176 195 176 195 126.5 c 128,-1,25
 195 77 195 77 180.5 52 c 128,-1,26
 166 27 166 27 135 8 c 1,27,-1
 163 8 l 2,28,29
 250 8 250 8 250 67 c 1,30,-1
 247 116 l 2,31,32
 247 132 247 132 249 141 c 0,33,34
 254 170 254 170 282.5 189.5 c 128,-1,35
 311 209 311 209 340 209 c 128,-1,36
 369 209 369 209 383 194 c 128,-1,37
 397 179 397 179 397 155.5 c 128,-1,38
 397 132 397 132 377 132 c 0,39,40
 369 132 369 132 362.5 136.5 c 128,-1,41
 356 141 356 141 356 146 c 0,42,43
 356 167 356 167 373 167 c 2,44,-1
 376 167 l 1,45,46
 376 180 376 180 367 187.5 c 128,-1,47
 358 195 358 195 345 195 c 128,-1,48
 332 195 332 195 324 190 c 0,49,50
 307 180 307 180 305 147 c 1,51,52
 321 163 321 163 335 163 c 0,53,54
 336 163 336 163 338 163 c 1,55,56
 318 151 318 151 309 125 c 0,57,58
 306 116 306 116 306 108 c 2,59,-1
 309 71 l 1,60,61
 309 57 309 57 304 44 c 0,62,63
 285 -5 285 -5 143 -5 c 0,64,65
 47 -5 47 -5 25 14 c 0,66,67
 0 35 0 35 0 79 c 0,68,69
 0 101 0 101 13 114.5 c 128,-1,70
 26 128 26 128 42.5 128 c 128,-1,71
 59 128 59 128 68.5 119 c 128,-1,72
 78 110 78 110 78 98.5 c 128,-1,73
 78 87 78 87 68.5 79.5 c 128,-1,74
 59 72 59 72 47.5 72 c 128,-1,75
 36 72 36 72 22 80 c 1,76,77
 21 76 21 76 21 71 c 0,78,79
 21 33 21 33 51 20 c 0,80,81
 70 12 70 12 95 12 c 128,-1,82
 120 12 120 12 140 32 c 128,-1,83
 160 52 160 52 160 86 c 0,84,85
 160 110 160 110 152 136 c 1,86,87
 151 108 151 108 138 87.5 c 128,-1,88
 125 67 125 67 110 57 c 128,-1,89
 95 47 95 47 84 47 c 1,90,91
 101 59 101 59 107 66 c 0,92,93
 121 83 121 83 121 116 c 0,94,95
 121 148 121 148 100 202.5 c 128,-1,96
 79 257 79 257 73.5 288 c 128,-1,97
 68 319 68 319 68 383.5 c 128,-1,98
 68 448 68 448 104.5 497 c 128,-1,99
 141 546 141 546 201 550 c 0,100,101
 212 551 212 551 232 551 c 0,102,103
 295 551 295 551 325 528 c 128,-1,104
 355 505 355 505 355 448 c 0,105,106
 355 419 355 419 332 399.5 c 128,-1,107
 309 380 309 380 280.5 380 c 128,-1,108
 252 380 252 380 235 392 c 128,-1,109
 218 404 218 404 218 423.5 c 128,-1,110
 218 443 218 443 228 454.5 c 128,-1,111
 238 466 238 466 251 466 c 0,112,113
 283 466 283 466 283 438 c 0,114,115
 283 422 283 422 275.5 412.5 c 128,-1,116
 268 403 268 403 258 401 c 1,117,118
 289 401 289 401 302 426 c 0,119,120
 308 437 308 437 309 451 c 1,121,-1
 309 457 l 2,122,123
 309 535 309 535 229 535 c 1,0,-1
EndSplineSet
Validated: 3073
Colour: ff00
EndChar

StartChar: uni0416.simple
Encoding: 62742 62742 28
Width: 600
GlyphClass: 2
Flags: W
HStem: 0 12<32.6423 70.1579 232 258 334 360 531.156 558.299> 42 32.5<20.0425 39.7839 552.332 571.968> 493 57<85.8013 97.8086 494.191 506.199> 494 24<98.0447 112.236 479.758 493.955> 538 12<232 258 334 360>
VStem: -2 22<20.8906 42> 12 28<42.8696 74.358> 81.5 31<493.61 517.969> 152 47<418.175 534.746> 258 76<12 359 378 388 398 538> 391 49<415.94 533.623> 479 31.5<493.096 517.996> 572 22<20.1393 42.439>
AnchorPoint: "Yerok" 469.5 577 basechar 0
AnchorPoint: "Diacritic" 300 575 basechar 0
LayerCount: 3
Fore
SplineSet
98 492 m 0
 89 492 82 498 82 511 c 0
 82 531 97 550 119 550 c 0
 162 550 192 535 199 501 c 0
 206 467 195 451 213 427 c 0
 228 407 243 401 258 398 c 1
 258 538 l 1
 232 538 l 1
 232 550 l 1
 360 550 l 1
 360 538 l 1
 334 538 l 1
 334 398 l 1
 349 401 364 407 379 427 c 0
 397 451 386 467 393 501 c 0
 400 535 430 550 473 550 c 0
 495 550 510 531 510 511 c 0
 510 498 503 492 494 492 c 0
 487 492 479 496 479 502 c 0
 479 521 494 518 494 518 c 1
 494 532 482 539 470 539 c 0
 464 539 459 538 454 535 c 0
 442 527 441 503 441 503 c 1
 451 513 457 517 466 515 c 1
 466 515 451 506 444 487 c 0
 437 467 443 451 435 432 c 0
 419 395 367 388 334 388 c 1
 334 378 l 1
 334 378 446 304 484 205 c 0
 507 146 496 109 505 84 c 0
 514 58 534 46 534 46 c 1
 534 46 524 44 515 50 c 0
 508 55 501 62 501 62 c 1
 501 62 502 29 518 20 c 0
 525 16 533 14 541 14 c 0
 557 14 572 23 572 42 c 1
 572 42 571 42 569 42 c 0
 565 42 552 44 552 63 c 0
 552 70 562 77 573 77 c 0
 585 77 593 68 593 51 c 0
 593 24 573 0 544 0 c 0
 495 0 446 31 439 86 c 0
 432 143 436 192 420 239 c 0
 393 317 334 359 334 359 c 1
 334 12 l 1
 360 12 l 1
 360 0 l 1
 232 0 l 1
 232 12 l 1
 258 12 l 1
 258 359 l 1
 258 359 199 317 172 239 c 0
 156 192 160 143 153 86 c 0
 146 31 97 0 48 0 c 0
 19 0 0 24 0 51 c 0
 0 68 7 77 19 77 c 0
 30 77 40 70 40 63 c 0
 40 44 27 42 23 42 c 0
 20 42 l 1
 20 23 35 14 51 14 c 0
 59 14 67 16 74 20 c 0
 90 29 91 62 91 62 c 1
 91 62 84 55 77 50 c 0
 68 44 58 46 58 46 c 1
 58 46 78 58 87 84 c 0
 96 109 85 146 108 205 c 0
 146 304 258 378 258 378 c 1
 258 388 l 1
 225 388 173 395 157 432 c 0
 149 451 155 467 148 487 c 0
 141 506 126 515 126 515 c 1
 139 519 147 505 151 503 c 1
 151 503 149 528 137 536 c 0
 132 539 127 540 121 540 c 0
 109 540 98 532 98 518 c 1
 100 516 109 523 113 502 c 1
 113 496 105 492 98 492 c 0
EndSplineSet
Validated: 1
Layer: 2
SplineSet
20 42 m 1,0,1
 20 13 20 13 56 13 c 0,2,3
 64 13 64 13 70 17 c 0,4,5
 89 30 89 30 90 54 c 2,6,-1
 91 62 l 1,7,8
 75 46 75 46 61 46 c 0,9,10
 60 46 60 46 58 46 c 1,11,12
 78 58 78 58 87 84 c 0,13,14
 90 92 90 92 92.5 131.5 c 128,-1,15
 95 171 95 171 110 210 c 128,-1,16
 125 249 125 249 162.5 292.5 c 128,-1,17
 200 336 200 336 229 357 c 2,18,-1
 258 378 l 1,19,-1
 258 388 l 1,20,21
 176 388 176 388 157 432 c 0,22,23
 153 442 153 442 152 459.5 c 128,-1,24
 151 477 151 477 147 490 c 0,25,26
 142 503 142 503 126 515 c 1,27,28
 134 517 134 517 141 512 c 2,29,-1
 151 503 l 1,30,31
 150 527 150 527 138.5 535 c 128,-1,32
 127 543 127 543 112.5 538 c 128,-1,33
 98 533 98 533 98 518 c 1,34,35
 99 517 99 517 101.5 518 c 128,-1,36
 104 519 104 519 108 515 c 128,-1,37
 112 511 112 511 112.5 504 c 128,-1,38
 113 497 113 497 106 493.5 c 128,-1,39
 99 490 99 490 91 493 c 128,-1,40
 83 496 83 496 81.5 509 c 128,-1,41
 80 522 80 522 91 536 c 128,-1,42
 102 550 102 550 119 550 c 0,43,44
 190 550 190 550 199 501 c 0,45,46
 201 490 201 490 201 466 c 0,47,48
 201 443 201 443 216 423 c 128,-1,49
 231 403 231 403 258 398 c 1,50,-1
 258 538 l 1,51,-1
 232 538 l 1,52,-1
 232 550 l 1,53,-1
 360 550 l 1,54,-1
 360 538 l 1,55,-1
 334 538 l 1,56,-1
 334 398 l 1,57,58
 361 403 361 403 376 423 c 128,-1,59
 391 443 391 443 391 464 c 2,60,-1
 391 474 l 2,61,62
 391 491 391 491 393 501 c 0,63,64
 403 550 403 550 473 550 c 0,65,66
 490 550 490 550 501 536 c 128,-1,67
 512 522 512 522 510.5 509 c 128,-1,68
 509 496 509 496 501 493 c 128,-1,69
 493 490 493 490 486 494 c 0,70,71
 478 497 478 497 479 503 c 0,72,73
 482 518 482 518 490 518 c 2,74,-1
 494 518 l 1,75,76
 494 533 494 533 480 538 c 0,77,78
 464 543 464 543 454 535 c 0,79,80
 443 526 443 526 441 503 c 1,81,82
 456 518 456 518 466 515 c 1,83,84
 442 501 442 501 440 460 c 0,85,86
 439 442 439 442 435 432 c 0,87,88
 417 388 417 388 334 388 c 1,89,-1
 334 378 l 1,90,91
 348 370 348 370 371 350 c 0,92,93
 455 278 455 278 480 215 c 0,94,95
 498 169 498 169 500 132 c 0,96,97
 502 92 502 92 507 76 c 0,98,99
 513 61 513 61 534 46 c 1,100,101
 524 44 524 44 515 50 c 1,102,-1
 501 62 l 1,103,104
 512 25 512 25 538 14 c 1,105,106
 572 14 572 14 572 42 c 1,107,108
 571 43 571 43 567 42 c 128,-1,109
 563 41 563 41 558 46 c 128,-1,110
 553 51 553 51 552 60.5 c 128,-1,111
 551 70 551 70 560.5 74.5 c 128,-1,112
 570 79 570 79 582 75 c 128,-1,113
 594 71 594 71 594 52 c 128,-1,114
 594 33 594 33 580.5 16.5 c 128,-1,115
 567 0 567 0 536 0 c 128,-1,116
 505 0 505 0 474 23 c 0,117,118
 443 47 443 47 439 86 c 0,119,120
 437 105 437 105 434 156 c 128,-1,121
 431 207 431 207 419.5 240.5 c 128,-1,122
 408 274 408 274 386.5 304 c 128,-1,123
 365 334 365 334 350 346 c 2,124,-1
 334 359 l 1,125,-1
 334 12 l 1,126,-1
 360 12 l 1,127,-1
 360 0 l 1,128,-1
 232 0 l 1,129,-1
 232 12 l 1,130,-1
 258 12 l 1,131,-1
 258 359 l 1,132,133
 251 354 251 354 240.5 345 c 128,-1,134
 230 336 230 336 207 305 c 128,-1,135
 184 274 184 274 174.5 246 c 128,-1,136
 165 218 165 218 162 194 c 128,-1,137
 159 170 159 170 157 138 c 128,-1,138
 155 106 155 106 153 86 c 0,139,140
 148 46 148 46 117.5 23 c 128,-1,141
 87 0 87 0 56 0 c 0,142,143
 27 0 27 0 12 17 c 0,144,145
 -2 33 -2 33 -2 42 c 0,146,147
 -1 70 -1 70 12 76 c 1,148,149
 22 79 22 79 31.5 74.5 c 128,-1,150
 41 70 41 70 40 60 c 0,151,152
 38 39 38 39 23 42 c 0,153,154
 22 42 22 42 20 42 c 1,0,1
EndSplineSet
Validated: 19457
Colour: ff00
EndChar

StartChar: uni0417.simple
Encoding: 62743 62743 29
Width: 480
GlyphClass: 2
Flags: W
HStem: -91 19<17.7197 38> -3 7<269.663 310.8> 57 27<98.9702 149.462> 235 66<201.313 245.718> 264 8<256.204 275.833> 427 12<52 78 154 180> 529 21<204.146 315.288>
VStem: -6 14<-59.0471 -11.8639> 36 42<-71.76 -42.0396> 78 76<439 499.893> 191 65<272 291.718> 384 62<329.995 478.194> 392 72<56.4902 197.862>
DStem2: 36 -3 40 -21 0.20601 0.97855<-16.5703 19.1503>
AnchorPoint: "Yerok" 418 575 basechar 0
AnchorPoint: "Diacritic" 266 575 basechar 0
LayerCount: 3
Fore
SplineSet
224 301 m 0xff28
 240 301 256 289 256 272 c 1
 280 278 326 280 359 322 c 0
 376 343 384 373 384 402 c 0
 384 465 345 529 265 529 c 0
 193 529 154 499 154 439 c 1
 180 439 l 1
 180 427 l 1
 52 427 l 1
 52 439 l 1
 78 439 l 1
 78 481 99 550 265 550 c 0
 345 550 446 535 446 427 c 0xfe70
 446 335 414 303 358 277 c 0
 352 274 346 272 340 270 c 1
 409 254 464 196 464 124 c 0
 464 23 358 -4 277 -4 c 0
 239 -4 207 2 194 9 c 0
 153 32 147 57 124 57 c 0
 113 57 99 52 76 39 c 0
 50 25 40 -21 40 -21 c 1
 40 -21 36 -13 36 -3 c 0
 36 4 40 16 40 16 c 1xfea8
 40 16 23 2 14 -14 c 0
 10 -20 8 -28 8 -36 c 0
 8 -54 18 -72 38 -72 c 1
 38 -72 36 -67 36 -61 c 0
 36 -52 40 -42 58 -42 c 0
 71 -42 79 -48 79 -61 c 0
 79 -74 66 -90 43 -90 c 0
 17 -90 -6 -69 -6 -40 c 0
 -6 9 38 40 70 57 c 0
 100 73 128 84 155 84 c 0
 188 84 220 67 256 19 c 0
 264 9 276 5 289 5 c 0
 301 5 314 9 325 13 c 0
 370 31 391 75 391 121 c 0
 391 174 362 230 308 252 c 0
 286 261 268 264 257 264 c 1
 255 248 241 235 224 235 c 0
 205 235 191 250 191 268 c 0
 191 287 206 301 224 301 c 0xff28
EndSplineSet
Validated: 1
Layer: 2
SplineSet
40 16 m 1,0,1
 8 -10 8 -10 8 -33 c 0,2,3
 8 -41 8 -41 11 -50 c 0,4,5
 18 -72 18 -72 38 -72 c 1,6,-1
 36 -60 l 1,7,8
 36 -42 36 -42 55 -42 c 0,9,10
 75 -42 75 -42 78 -52 c 0,11,12
 82 -64 82 -64 74 -77 c 0,13,14
 65 -91 65 -91 46 -91 c 0,15,16
 26 -91 26 -91 10 -77.5 c 128,-1,17
 -6 -64 -6 -64 -6 -40 c 0,18,19
 -6 18 -6 18 70 57 c 0,20,21
 123 84 123 84 147 84 c 0,22,23
 170 84 170 84 198 72 c 0,24,25
 226 59 226 59 256 19 c 0,26,27
 267 4 267 4 285 4 c 0,28,29
 305 4 305 4 324 12 c 0,30,31
 392 40 392 40 392 127 c 0,32,33
 392 152 392 152 378 183 c 0,34,35
 357 233 357 233 308 252 c 0,36,37
 277 264 277 264 257 264 c 1,38,39
 255 251 255 251 246 243 c 128,-1,40
 237 235 237 235 223 235 c 128,-1,41
 209 235 209 235 200 245 c 128,-1,42
 191 255 191 255 191 269 c 128,-1,43
 191 283 191 283 201 292 c 128,-1,44
 211 301 211 301 225 301 c 128,-1,45
 239 301 239 301 247.5 292 c 128,-1,46
 256 283 256 283 256 272 c 1,47,48
 257 272 257 272 276 276 c 0,49,50
 384 297 384 297 384 402 c 0,51,52
 384 469 384 469 336 506 c 0,53,54
 307 529 307 529 265 529 c 0,55,56
 154 529 154 529 154 439 c 1,57,-1
 180 439 l 1,58,-1
 180 427 l 1,59,-1
 52 427 l 1,60,-1
 52 439 l 1,61,-1
 78 439 l 1,62,63
 78 550 78 550 262 550 c 128,-1,64
 446 550 446 550 446 427 c 0,65,66
 446 362 446 362 422 326 c 0,67,68
 398 289 398 289 340 270 c 1,69,70
 393 258 393 258 428.5 217.5 c 128,-1,71
 464 177 464 177 464 124.5 c 128,-1,72
 464 72 464 72 427.5 40.5 c 128,-1,73
 391 9 391 9 349 3 c 0,74,75
 308 -3 308 -3 286 -3 c 128,-1,76
 264 -3 264 -3 237.5 -1.5 c 128,-1,77
 211 -0 211 -0 194 9.5 c 128,-1,78
 177 19 177 19 161.5 33 c 128,-1,79
 146 47 146 47 140 52 c 128,-1,80
 134 57 134 57 121 57 c 0,81,82
 107 57 107 57 86 45 c 0,83,84
 52 26 52 26 43 -9 c 2,85,-1
 40 -21 l 1,86,87
 36 -13 36 -13 36 -3 c 1,88,-1
 40 16 l 1,0,1
EndSplineSet
Validated: 19457
Colour: ff00
EndChar

StartChar: uni0418
Encoding: 1048 1048 30
Width: 525
Flags: W
HStem: -2 14<108.595 177.43 358.595 427.43> 72 56<77.4369 123.201 327.437 373.201> 132 13<125.002 137.998> 152 13<125.002 137.998> 166 13<109.002 121.998> 269 13<29.9133 76.6485> 534 20<235.908 249 485.908 507.359>
VStem: 1 12<210.82 252.055> 55 21<35.666 79.7801> 96 14<196.159 249.71> 109 13<166.002 178.998> 125 13<132.002 144.998 152.002 164.998> 131 80<261.191 518.698> 167 40<79.9407 135.763> 215 36<46.8135 125> 266 64<349.955 409.045> 305 21<35.666 79.7801> 381 80<224.617 489.839> 417 40<79.9407 135.763> 465 36<46.8135 125>
AnchorPoint: "Yerok" 460.5 575.4 basechar 0
AnchorPoint: "Diacritic" 327 575 basechar 0
LayerCount: 3
Fore
SplineSet
125 139 m 0xff9210
 125 142 128 145 132 145 c 0
 135 145 138 142 138 139 c 0
 138 135 135 132 132 132 c 0
 128 132 125 135 125 139 c 0xff9210
125 159 m 0
 125 162 128 165 132 165 c 0
 135 165 138 162 138 159 c 0
 138 155 135 152 132 152 c 0
 128 152 125 155 125 159 c 0
109 173 m 0xffa210
 109 176 112 179 116 179 c 0
 119 179 122 176 122 173 c 0
 122 169 119 166 116 166 c 0
 112 166 109 169 109 173 c 0xffa210
56 282 m 0
 87 282 110 258 110 231 c 0
 110 204 102 189 87 169 c 0
 80 160 68 151 61 145 c 0
 53 137 50 129 50 129 c 1
 50 129 61 143 78 150 c 0
 91 155 99 157 105 157 c 0
 111 157 115 155 115 151 c 0
 115 143 84 147 59 123 c 0
 53 117 47 99 47 99 c 1
 46 100 27 109 27 129 c 0
 27 160 50 175 50 200 c 0
 50 201 l 0
 50 213 44 219 44 219 c 1
 44 219 44 219 45 219 c 0
 49 219 62 218 71 196 c 0
 76 183 74 173 74 173 c 1
 74 173 96 196 96 224 c 0xffc210
 96 251 77 269 54 269 c 0
 30 269 13 253 13 231 c 0
 13 213 23 207 23 205 c 0
 23 205 22 205 21 205 c 0
 7 205 1 221 1 236 c 0
 1 266 27 282 56 282 c 0
290 349 m 1
 280 353 266 362 266 377 c 0
 266 383 268 388 271 395 c 0
 282 423 297 439 320 455 c 0
 343 472 374 478 391 480 c 1
 397 506 405 526 412 536 c 0
 423 550 445 554 464 554 c 0
 490 554 508 552 508 541 c 0
 508 534 503 534 498 534 c 0
 474 534 461 419 461 382 c 0xff8b50
 461 273 492 216 500 125 c 0
 500 119 501 114 501 108 c 0
 501 60 480 39 455 18 c 0
 436 2 415 -2 394 -2 c 0
 337 -2 305 20 305 79 c 0
 305 109 326 128 349 128 c 0
 369 128 383 114 383 98 c 0
 383 82 367 72 353 72 c 0
 339 72 327 80 327 80 c 1
 327 80 326 76 326 71 c 0
 326 57 330 31 356 20 c 0
 368 15 380 12 393 12 c 0
 412 12 432 19 448 35 c 0
 461 48 465 67 465 86 c 0
 465 112 457 136 457 136 c 1
 457 136 456 108 438 80 c 0
 427 62 404 47 389 47 c 0
 387 47 l 0
 387 48 417 57 417 124 c 0xff82b0
 417 141 415 163 410 189 c 0
 393 274 381 300 381 382 c 0
 381 410 384 438 388 463 c 1
 372 460 353 453 335 443 c 0
 315 431 311 418 306 410 c 1
 316 406 330 397 330 382 c 0
 330 377 328 372 325 364 c 0
 310 320 266 290 221 281 c 1
 230 227 245 183 250 125 c 0
 250 119 251 114 251 108 c 0
 251 60 230 39 205 18 c 0
 186 2 165 -2 144 -2 c 0
 87 -2 55 20 55 79 c 0
 55 109 76 128 99 128 c 0
 119 128 133 114 133 98 c 0
 133 82 117 72 103 72 c 0
 89 72 77 80 77 80 c 1
 77 80 76 76 76 71 c 0
 76 57 80 31 106 20 c 0
 118 15 130 12 143 12 c 0
 162 12 182 19 198 35 c 0
 211 48 215 67 215 86 c 0
 215 112 207 136 207 136 c 1
 207 136 206 108 188 80 c 0
 177 62 154 47 139 47 c 0
 137 47 l 0
 137 48 167 57 167 124 c 0xff8750
 167 141 165 163 160 189 c 0
 143 274 131 300 131 382 c 0
 131 447 146 516 162 536 c 0
 173 550 195 554 214 554 c 0
 233 554 249 550 249 550 c 1
 264 545 258 532 250 534 c 0
 248 534 l 0
 224 534 211 419 211 382 c 0xff8a10
 211 350 214 322 218 297 c 1
 231 301 246 307 261 316 c 0
 281 328 285 341 290 349 c 1
EndSplineSet
Validated: 1
Layer: 2
SplineSet
125 138.5 m 128,-1,1
 125 145 125 145 131.5 145 c 128,-1,2
 138 145 138 145 138 138.5 c 128,-1,3
 138 132 138 132 131.5 132 c 128,-1,0
 125 132 125 132 125 138.5 c 128,-1,1
125 158.5 m 128,-1,5
 125 165 125 165 131.5 165 c 128,-1,6
 138 165 138 165 138 158.5 c 128,-1,7
 138 152 138 152 131.5 152 c 128,-1,4
 125 152 125 152 125 158.5 c 128,-1,5
109 172.5 m 128,-1,9
 109 179 109 179 115.5 179 c 128,-1,10
 122 179 122 179 122 172.5 c 128,-1,11
 122 166 122 166 115.5 166 c 128,-1,8
 109 166 109 166 109 172.5 c 128,-1,9
24.5 258.5 m 128,-1,13
 13 248 13 248 13 232.5 c 128,-1,14
 13 217 13 217 23 205 c 1,15,-1
 21 205 l 2,16,17
 1 205 1 205 1 231.5 c 128,-1,18
 1 258 1 258 17 270 c 128,-1,19
 33 282 33 282 56 282 c 128,-1,20
 79 282 79 282 94.5 267 c 128,-1,21
 110 252 110 252 110 226 c 128,-1,22
 110 200 110 200 87 169 c 0,23,24
 83 164 83 164 61 145 c 1,25,-1
 50 129 l 1,26,27
 61 143 61 143 78.5 150 c 128,-1,28
 96 157 96 157 105.5 157 c 128,-1,29
 115 157 115 157 115 151 c 0,30,31
 115 148 115 148 96 143 c 0,32,33
 77 139 77 139 59 123 c 1,34,-1
 47 99 l 1,35,36
 27 109 27 109 27 127 c 128,-1,37
 27 145 27 145 38.5 166.5 c 128,-1,38
 50 188 50 188 50 200 c 2,39,-1
 50 201 l 2,40,41
 50 211 50 211 44 219 c 1,42,-1
 45 219 l 2,43,44
 62 219 62 219 71 196 c 1,45,-1
 74 173 l 1,46,47
 96 196 96 196 96 220 c 128,-1,48
 96 244 96 244 84 256.5 c 128,-1,49
 72 269 72 269 54 269 c 128,-1,12
 36 269 36 269 24.5 258.5 c 128,-1,13
387 47 m 1,50,51
 417 67 417 67 417 124 c 0,52,53
 417 160 417 160 404.5 217 c 128,-1,54
 392 274 392 274 386 301 c 0,55,56
 381 327 381 327 381 373 c 128,-1,57
 381 419 381 419 388 463 c 1,58,59
 333 452 333 452 315 425 c 0,60,61
 313 422 313 422 310 416.5 c 128,-1,62
 307 411 307 411 306 410 c 1,63,64
 330 400 330 400 330 382 c 0,65,66
 330 377 330 377 325 364 c 0,67,68
 314 332 314 332 285 310 c 128,-1,69
 256 288 256 288 221 281 c 1,70,71
 224 265 224 265 235.5 212 c 128,-1,72
 247 159 247 159 250 125 c 2,73,-1
 251 108 l 1,74,75
 251 75 251 75 239.5 56 c 128,-1,76
 228 37 228 37 204.5 17.5 c 128,-1,77
 181 -2 181 -2 144 -2 c 0,78,79
 55 -2 55 -2 55 79 c 0,80,81
 55 101 55 101 68 114.5 c 128,-1,82
 81 128 81 128 97.5 128 c 128,-1,83
 114 128 114 128 123.5 119 c 128,-1,84
 133 110 133 110 133 98.5 c 128,-1,85
 133 87 133 87 123.5 79.5 c 128,-1,86
 114 72 114 72 102.5 72 c 128,-1,87
 91 72 91 72 77 80 c 1,88,89
 76 76 76 76 76 71 c 0,90,91
 76 12 76 12 150 12 c 0,92,93
 175 12 175 12 195 32 c 128,-1,94
 215 52 215 52 215 81 c 128,-1,95
 215 110 215 110 207 136 c 1,96,97
 206 108 206 108 193 87.5 c 128,-1,98
 180 67 180 67 165 57 c 128,-1,99
 150 47 150 47 139 47 c 2,100,-1
 137 47 l 1,101,102
 167 67 167 67 167 124 c 0,103,104
 167 160 167 160 154.5 217 c 128,-1,105
 142 274 142 274 136 301 c 0,106,107
 131 327 131 327 131 378.5 c 128,-1,108
 131 430 131 430 140.5 475.5 c 128,-1,109
 150 521 150 521 163 537.5 c 128,-1,110
 176 554 176 554 214 554 c 1,111,-1
 249 550 l 1,112,113
 263 545 263 545 259 539 c 128,-1,114
 255 533 255 533 250 534 c 1,115,-1
 248 534 l 2,116,117
 232 534 232 534 221.5 477.5 c 128,-1,118
 211 421 211 421 211 381 c 128,-1,119
 211 341 211 341 218 297 c 1,120,121
 266 312 266 312 281 334 c 0,122,123
 283 337 283 337 286 342.5 c 128,-1,124
 289 348 289 348 290 349 c 1,125,126
 266 359 266 359 266 377 c 0,127,128
 266 383 266 383 271 395 c 0,129,130
 285 431 285 431 320 455 c 1,131,132
 347 475 347 475 391 480 c 1,133,134
 400 519 400 519 413 536.5 c 128,-1,135
 426 554 426 554 467 554 c 128,-1,136
 508 554 508 554 508 541 c 0,137,138
 508 534 508 534 498 534 c 0,139,140
 482 534 482 534 471.5 477.5 c 128,-1,141
 461 421 461 421 461 371 c 128,-1,142
 461 321 461 321 479 240 c 128,-1,143
 497 159 497 159 500 125 c 2,144,-1
 501 108 l 1,145,146
 501 75 501 75 489.5 56 c 128,-1,147
 478 37 478 37 454.5 17.5 c 128,-1,148
 431 -2 431 -2 394 -2 c 0,149,150
 305 -2 305 -2 305 79 c 0,151,152
 305 101 305 101 318 114.5 c 128,-1,153
 331 128 331 128 347.5 128 c 128,-1,154
 364 128 364 128 373.5 119 c 128,-1,155
 383 110 383 110 383 98.5 c 128,-1,156
 383 87 383 87 373.5 79.5 c 128,-1,157
 364 72 364 72 352.5 72 c 128,-1,158
 341 72 341 72 327 80 c 1,159,160
 326 76 326 76 326 71 c 0,161,162
 326 12 326 12 400 12 c 0,163,164
 425 12 425 12 445 32 c 128,-1,165
 465 52 465 52 465 81 c 128,-1,166
 465 110 465 110 457 136 c 1,167,168
 456 108 456 108 443 87.5 c 128,-1,169
 430 67 430 67 415 57 c 128,-1,170
 400 47 400 47 389 47 c 2,171,-1
 387 47 l 1,50,51
EndSplineSet
Validated: 3073
Substitution2: "'ss01' Style Set Simple Forms-1" uni0418.simple
Colour: ff00
EndChar

StartChar: uni041B
Encoding: 1051 1051 31
Width: 430
Flags: W
HStem: 0 12<33.6423 71.1579 283 309 385 411> 42 32.5<21.0215 40.6992> 408 31<174.126 201.815> 420 9<238.248 273.312> 443 12<240.035 284.997> 470 11<196.385 275.672> 488 10<213.001 223.999> 503 10<204.001 214.999 223.962 255.87> 517 10<212.001 222.999> 538 12<283 309 385 411> 644 10<200.271 235.718>
VStem: -1 22<20.8906 42> 90 65<36.4517 233.909> 160 14<436 453.93> 175 11<592.953 630.653> 204 11<503.011 512.999> 213 11<488.011 497.999 517.02 526.94> 226 11<557.909 584.344> 309 76<12 418 437 461.855 465 490.931 495 538>
DStem2: 292 417 309 418 0.691905 0.721988<0 12.4844>
AnchorPoint: "Yerok" 347.5 577.6 basechar 0
AnchorPoint: "Diacritic" 348.5 578 basechar 0
LayerCount: 3
Fore
SplineSet
223 522 m 0xcc7f38
 223 519 221 517 218 517 c 0
 215 517 212 519 212 522 c 0
 212 525 215 527 218 527 c 0
 221 527 223 525 223 522 c 0xcc7f38
215 508 m 0xccffb8
 215 505 213 503 210 503 c 0
 207 503 204 505 204 508 c 0
 204 511 207 513 210 513 c 0
 213 513 215 511 215 508 c 0xccffb8
224 493 m 0xcd7f78
 224 490 221 488 218 488 c 0xce7f78
 215 488 213 490 213 493 c 0xcd7f78
 213 496 215 498 218 498 c 0xce7f78
 221 498 224 496 224 493 c 0xcd7f78
-0 51 m 0
 -0 68 8 77 20 77 c 0
 31 77 41 70 41 63 c 0
 41 44 28 42 24 42 c 0
 21 42 l 1
 21 23 36 14 52 14 c 0
 60 14 68 16 75 20 c 0
 91 29 92 62 92 62 c 1
 92 62 85 55 78 50 c 0
 69 44 59 46 59 46 c 1
 59 46 79 58 88 84 c 0
 91 91 91 101 91 113 c 0
 91 118 91 124 91 131 c 0
 91 160 93 197 112 236 c 0
 147 308 233 363 283 409 c 1
 282 411 268 418 267 418 c 0
 261 421 255 422 251 422 c 0
 246 422 243 420 240 420 c 0
 239 420 238 421 238 424 c 0
 238 427 244 429 252 429 c 0xdd7f38
 257 429 263 428 269 427 c 0
 278 425 292 417 292 417 c 1
 298 423 300 424 304 428 c 1
 299 432 290 438 278 441 c 0
 262 445 240 442 240 448 c 0
 240 451 249 454 262 454 c 0
 280 454 302 444 309 437 c 1
 309 453 l 1
 295 463 252 470 236 470 c 0
 210 470 174 460 174 436 c 1
 174 436 180 439 187 439 c 0
 194 439 202 436 202 421 c 0
 202 411 195 407 187 407 c 0
 172 407 160 416 160 432 c 0
 160 465 197 482 232 482 c 0
 257 482 293 476 309 465 c 1
 309 479 l 1
 298 485 287 491 284 493 c 0
 261 505 223 500 223 507 c 0
 223 510 229 512 234 512 c 0xed7f38
 247 512 266 506 266 506 c 1
 266 506 177 560 177 600 c 0
 177 604 176 608 176 611 c 0
 176 622 179 633 186 641 c 0
 195 650 208 654 220 654 c 0
 241 654 254 640 254 620 c 0
 254 613 252 608 246 605 c 0
 240 603 252 611 243 629 c 0
 238 639 230 644 218 644 c 0
 201 644 186 631 186 612 c 0
 186 582 230 548 230 548 c 2
 230 548 226 554 226 566 c 0
 226 585 238 587 238 587 c 1
 238 587 237 581 238 572 c 0
 242 543 284 503 309 495 c 1
 309 538 l 1
 283 538 l 1
 283 550 l 1
 411 550 l 1
 411 538 l 1
 385 538 l 1
 385 12 l 1
 411 12 l 1
 411 0 l 1
 283 0 l 1
 283 12 l 1
 309 12 l 1
 309 418 l 1
 288 390 232 349 195 281 c 0
 159 214 156 175 156 140 c 0
 156 133 156 125 156 118 c 0
 156 108 154 97 154 86 c 0
 154 31 98 0 49 0 c 0
 20 0 -0 24 -0 51 c 0
EndSplineSet
Validated: 1
Layer: 2
SplineSet
223 522 m 128,-1,1
 223 517 223 517 218 517 c 0,2,3
 212 517 212 517 212 522 c 128,-1,4
 212 527 212 527 217.5 527 c 128,-1,0
 223 527 223 527 223 522 c 128,-1,1
215 508 m 128,-1,6
 215 503 215 503 210 503 c 0,7,8
 204 503 204 503 204 508 c 128,-1,9
 204 513 204 513 209.5 513 c 128,-1,5
 215 513 215 513 215 508 c 128,-1,6
224 493 m 128,-1,11
 224 488 224 488 218 488 c 0,12,13
 213 488 213 488 213 493 c 128,-1,14
 213 498 213 498 218.5 498 c 128,-1,10
 224 498 224 498 224 493 c 128,-1,11
90 111 m 1,15,-1
 90 132 l 1,16,17
 90 192 90 192 109 230 c 128,-1,18
 128 268 128 268 156.5 298 c 128,-1,19
 185 328 185 328 229 364 c 128,-1,20
 273 400 273 400 283 409 c 1,21,22
 278 414 278 414 268 418 c 128,-1,23
 258 422 258 422 250.5 421.5 c 128,-1,24
 243 421 243 421 241.5 420 c 128,-1,25
 240 419 240 419 238 423 c 1,26,27
 238 429 238 429 249.5 429 c 128,-1,28
 261 429 261 429 269 427 c 1,29,-1
 292 417 l 1,30,31
 295 420 295 420 298.5 423 c 128,-1,32
 302 426 302 426 304 428 c 1,33,34
 287 441 287 441 262 443 c 0,35,36
 240 445 240 445 240 447 c 0,37,38
 239 456 239 456 254 455 c 0,39,40
 270 454 270 454 285 449 c 0,41,42
 302 444 302 444 309 437 c 1,43,-1
 309 453 l 1,44,45
 299 460 299 460 274 465 c 128,-1,46
 249 470 249 470 242 470 c 0,47,48
 238 470 238 470 233 470 c 0,49,50
 175 470 175 470 174 436 c 1,51,52
 178 440 178 440 187 439 c 0,53,54
 202 438 202 438 202 420 c 0,55,56
 202 403 202 403 181 408 c 128,-1,57
 160 413 160 413 160 432 c 0,58,59
 160 452 160 452 179 467 c 0,60,61
 197 481 197 481 241 481 c 128,-1,62
 285 481 285 481 309 465 c 1,63,-1
 309 479 l 1,64,65
 287 491 287 491 283.5 493 c 128,-1,66
 280 495 280 495 275.5 496.5 c 128,-1,67
 271 498 271 498 266.5 499 c 128,-1,68
 262 500 262 500 257 500.5 c 128,-1,69
 252 501 252 501 244 502 c 128,-1,70
 236 503 236 503 229.5 503 c 128,-1,71
 223 503 223 503 223 507 c 1,72,73
 226 511 226 511 235 511 c 0,74,75
 243 511 243 511 256 508 c 2,76,-1
 266 506 l 1,77,78
 236 524 236 524 206 554 c 0,79,80
 175 585 175 585 175 607 c 0,81,82
 175 630 175 630 187 642 c 128,-1,83
 199 654 199 654 218 654 c 128,-1,84
 237 654 237 654 246 644 c 1,85,86
 253 634 253 634 254 622.5 c 128,-1,87
 255 611 255 611 246 605 c 0,88,89
 243 603 243 603 245 608 c 0,90,91
 248 613 248 613 247 616 c 128,-1,92
 246 619 246 619 246 622 c 0,93,94
 245 624 245 624 243 629 c 0,95,96
 237 644 237 644 220 644 c 0,97,98
 204 644 204 644 195 635 c 128,-1,99
 186 626 186 626 186 613 c 128,-1,100
 186 600 186 600 196.5 584 c 128,-1,101
 207 568 207 568 218 558 c 2,102,-1
 230 548 l 1,103,104
 226 554 226 554 226 568.5 c 128,-1,105
 226 583 226 583 238 587 c 1,106,107
 237 582 237 582 237 579 c 0,108,109
 239 553 239 553 263 528 c 0,110,111
 289 501 289 501 309 495 c 1,112,-1
 309 538 l 1,113,-1
 283 538 l 1,114,-1
 283 550 l 1,115,-1
 411 550 l 1,116,-1
 411 538 l 1,117,-1
 385 538 l 1,118,-1
 385 12 l 1,119,-1
 411 12 l 1,120,-1
 411 0 l 1,121,-1
 283 0 l 1,122,-1
 283 12 l 1,123,-1
 309 12 l 1,124,-1
 309 418 l 1,125,-1
 263 370 l 2,126,127
 183 287 183 287 162 198 c 0,128,129
 155 168 155 168 155 149 c 1,130,-1
 155 122 l 2,131,132
 155 105 155 105 152 75.5 c 128,-1,133
 149 46 149 46 118.5 23 c 128,-1,134
 88 0 88 0 57 0 c 0,135,136
 28 0 28 0 13 17 c 0,137,138
 -1 33 -1 33 -1 42 c 0,139,140
 -0 71 -0 71 11 75 c 0,141,142
 23 79 23 79 32.5 74.5 c 128,-1,143
 42 70 42 70 41 60 c 0,144,145
 39 42 39 42 24 42 c 0,146,147
 23 42 23 42 21 42 c 1,148,149
 21 13 21 13 57 13 c 0,150,151
 65 13 65 13 71 17 c 0,152,153
 90 30 90 30 92 54 c 2,154,-1
 92 62 l 1,155,156
 76 46 76 46 63 46 c 0,157,158
 61 46 61 46 59 46 c 1,159,160
 90 65 90 65 90 111 c 1,15,-1
EndSplineSet
Validated: 3073
Substitution2: "'ss01' Style Set Simple Forms-1" uni041B.simple
Colour: ff00
EndChar

StartChar: uni041C
Encoding: 1052 1052 32
Width: 630
Flags: W
HStem: 0 12<33.6423 71.1579 283 309 385 411 483 509 585 611> 42 32.5<21.0215 40.6992> 408 31<174.126 201.815> 420 9<238.248 273.312> 443 12<240.035 284.997> 470 11<196.385 275.672> 488 10<213.001 223.999> 503 10<204.001 214.999 223.962 255.87> 517 10<212.001 222.999> 538 12<283 309 385 411 483 509 585 611> 644 10<200.271 235.718>
VStem: -1 22<20.8906 42> 90 65<36.4517 233.909> 160 14<436 453.93> 175 11<592.953 630.653> 204 11<503.011 512.999> 213 11<488.011 497.999 517.02 526.94> 226 11<557.909 584.344> 309 76<12 300 323 418 437 461.855 465 490.931 495 538> 509 76<12 423 447 538>
DStem2: 71 17 118.5 23 0.707107 0.707107<7.77403 36.3497 438.406 596.798> 292 417 309 418 0.691905 0.721988<0 12.4844>
AnchorPoint: "Yerok" 549.5 576.6 basechar 0
AnchorPoint: "Diacritic" 446 575 basechar 0
LayerCount: 3
Fore
SplineSet
223 522 m 0xcc7f3c
 223 519 221 517 218 517 c 0
 215 517 212 519 212 522 c 0
 212 525 215 527 218 527 c 0
 221 527 223 525 223 522 c 0xcc7f3c
215 508 m 0xccffbc
 215 505 213 503 210 503 c 0
 207 503 204 505 204 508 c 0
 204 511 207 513 210 513 c 0
 213 513 215 511 215 508 c 0xccffbc
224 493 m 0xcd7f7c
 224 490 221 488 218 488 c 0xce7f7c
 215 488 213 490 213 493 c 0xcd7f7c
 213 496 215 498 218 498 c 0xce7f7c
 221 498 224 496 224 493 c 0xcd7f7c
220 654 m 0
 241 654 254 640 254 620 c 0
 254 613 252 608 246 605 c 0
 240 603 252 611 243 629 c 0
 238 639 230 644 218 644 c 0
 201 644 186 631 186 612 c 0
 186 582 230 548 230 548 c 2
 230 548 226 554 226 566 c 0
 226 585 238 587 238 587 c 1
 238 587 237 581 238 572 c 0
 242 543 284 503 309 495 c 1
 309 538 l 1
 283 538 l 1
 283 550 l 1
 411 550 l 1
 411 538 l 1
 385 538 l 1
 385 323 l 1
 509 447 l 1
 509 538 l 1
 483 538 l 1
 483 550 l 1
 611 550 l 1
 611 538 l 1
 585 538 l 1
 585 12 l 1
 611 12 l 1
 611 0 l 1
 483 0 l 1
 483 12 l 1
 509 12 l 1
 509 423 l 1
 385 300 l 1
 385 12 l 1
 411 12 l 1
 411 0 l 1
 283 0 l 1
 283 12 l 1
 309 12 l 1
 309 418 l 1
 288 390 232 349 195 281 c 0
 159 214 156 175 156 140 c 0
 156 133 156 125 156 118 c 0
 156 108 154 97 154 86 c 0
 154 31 98 0 49 0 c 0
 20 0 -0 24 -0 51 c 0
 -0 68 8 77 20 77 c 0
 31 77 41 70 41 63 c 0
 41 44 28 42 24 42 c 0
 21 42 l 1
 21 23 36 14 52 14 c 0
 60 14 68 16 75 20 c 0
 91 29 92 62 92 62 c 1
 92 62 85 55 78 50 c 0
 69 44 59 46 59 46 c 1
 59 46 79 58 88 84 c 0
 91 91 91 101 91 113 c 0
 91 118 91 124 91 131 c 0
 91 160 93 197 112 236 c 0
 147 308 233 363 283 409 c 1
 282 411 268 418 267 418 c 0
 261 421 255 422 251 422 c 0
 246 422 243 420 240 420 c 0
 239 420 238 421 238 424 c 0
 238 427 244 429 252 429 c 0xdd7f3c
 257 429 263 428 269 427 c 0
 278 425 292 417 292 417 c 1
 298 423 300 424 304 428 c 1
 299 432 290 438 278 441 c 0
 262 445 240 442 240 448 c 0
 240 451 249 454 262 454 c 0
 280 454 302 444 309 437 c 1
 309 453 l 1
 295 463 252 470 236 470 c 0
 210 470 174 460 174 436 c 1
 174 436 180 439 187 439 c 0
 194 439 202 436 202 421 c 0
 202 411 195 407 187 407 c 0
 172 407 160 416 160 432 c 0
 160 465 197 482 232 482 c 0
 257 482 293 476 309 465 c 1
 309 479 l 1
 298 485 287 491 284 493 c 0
 261 505 223 500 223 507 c 0
 223 510 229 512 234 512 c 0xed7f3c
 247 512 266 506 266 506 c 1
 266 506 177 560 177 600 c 0
 177 604 176 608 176 611 c 0
 176 622 179 633 186 641 c 0
 195 650 208 654 220 654 c 0
EndSplineSet
Validated: 1
Layer: 2
SplineSet
223 522 m 128,-1,1
 223 517 223 517 218 517 c 0,2,3
 212 517 212 517 212 522 c 128,-1,4
 212 527 212 527 217.5 527 c 128,-1,0
 223 527 223 527 223 522 c 128,-1,1
215 508 m 128,-1,6
 215 503 215 503 210 503 c 0,7,8
 204 503 204 503 204 508 c 128,-1,9
 204 513 204 513 209.5 513 c 128,-1,5
 215 513 215 513 215 508 c 128,-1,6
224 493 m 128,-1,11
 224 488 224 488 218 488 c 0,12,13
 213 488 213 488 213 493 c 128,-1,14
 213 498 213 498 218.5 498 c 128,-1,10
 224 498 224 498 224 493 c 128,-1,11
90 111 m 1,15,-1
 90 132 l 1,16,17
 90 192 90 192 109 230 c 128,-1,18
 128 268 128 268 156.5 298 c 128,-1,19
 185 328 185 328 229 364 c 128,-1,20
 273 400 273 400 283 409 c 1,21,22
 278 414 278 414 268 418 c 128,-1,23
 258 422 258 422 250.5 421.5 c 128,-1,24
 243 421 243 421 241.5 420 c 128,-1,25
 240 419 240 419 238 423 c 1,26,27
 238 429 238 429 249.5 429 c 128,-1,28
 261 429 261 429 269 427 c 1,29,-1
 292 417 l 1,30,31
 295 420 295 420 298.5 423 c 128,-1,32
 302 426 302 426 304 428 c 1,33,34
 287 441 287 441 262 443 c 0,35,36
 240 445 240 445 240 447 c 0,37,38
 239 456 239 456 254 455 c 0,39,40
 270 454 270 454 285 449 c 0,41,42
 302 444 302 444 309 437 c 1,43,-1
 309 453 l 1,44,45
 299 460 299 460 274 465 c 128,-1,46
 249 470 249 470 242 470 c 0,47,48
 238 470 238 470 233 470 c 0,49,50
 175 470 175 470 174 436 c 1,51,52
 178 440 178 440 187 439 c 0,53,54
 202 438 202 438 202 420 c 0,55,56
 202 403 202 403 181 408 c 128,-1,57
 160 413 160 413 160 432 c 0,58,59
 160 452 160 452 179 467 c 0,60,61
 197 481 197 481 241 481 c 128,-1,62
 285 481 285 481 309 465 c 1,63,-1
 309 479 l 1,64,65
 287 491 287 491 283.5 493 c 128,-1,66
 280 495 280 495 275.5 496.5 c 128,-1,67
 271 498 271 498 266.5 499 c 128,-1,68
 262 500 262 500 257 500.5 c 128,-1,69
 252 501 252 501 244 502 c 128,-1,70
 236 503 236 503 229.5 503 c 128,-1,71
 223 503 223 503 223 507 c 1,72,73
 226 511 226 511 235 511 c 0,74,75
 243 511 243 511 256 508 c 2,76,-1
 266 506 l 1,77,78
 236 524 236 524 206 554 c 0,79,80
 175 585 175 585 175 607 c 0,81,82
 175 630 175 630 187 642 c 128,-1,83
 199 654 199 654 218 654 c 128,-1,84
 237 654 237 654 246 644 c 1,85,86
 253 634 253 634 254 622.5 c 128,-1,87
 255 611 255 611 246 605 c 0,88,89
 243 603 243 603 245 608 c 0,90,91
 248 613 248 613 247 616 c 128,-1,92
 246 619 246 619 246 622 c 0,93,94
 245 624 245 624 243 629 c 0,95,96
 237 644 237 644 220 644 c 0,97,98
 204 644 204 644 195 635 c 128,-1,99
 186 626 186 626 186 613 c 128,-1,100
 186 600 186 600 196.5 584 c 128,-1,101
 207 568 207 568 218 558 c 2,102,-1
 230 548 l 1,103,104
 226 554 226 554 226 568.5 c 128,-1,105
 226 583 226 583 238 587 c 1,106,107
 237 582 237 582 237 579 c 0,108,109
 239 553 239 553 263 528 c 0,110,111
 289 501 289 501 309 495 c 1,112,-1
 309 538 l 1,113,-1
 283 538 l 1,114,-1
 283 550 l 1,115,-1
 411 550 l 1,116,-1
 411 538 l 1,117,-1
 385 538 l 1,118,-1
 385 323 l 1,119,-1
 509 447 l 1,120,-1
 509 538 l 1,121,-1
 483 538 l 1,122,-1
 483 550 l 1,123,-1
 611 550 l 1,124,-1
 611 538 l 1,125,-1
 585 538 l 1,126,-1
 585 12 l 1,127,-1
 611 12 l 1,128,-1
 611 0 l 1,129,-1
 483 0 l 1,130,-1
 483 12 l 1,131,-1
 509 12 l 1,132,-1
 509 423 l 1,133,-1
 385 300 l 1,134,-1
 385 12 l 1,135,-1
 411 12 l 1,136,-1
 411 0 l 1,137,-1
 283 0 l 1,138,-1
 283 12 l 1,139,-1
 309 12 l 1,140,-1
 309 418 l 1,141,-1
 263 370 l 2,142,143
 183 287 183 287 162 198 c 0,144,145
 155 168 155 168 155 149 c 1,146,-1
 155 122 l 2,147,148
 155 105 155 105 152 75.5 c 128,-1,149
 149 46 149 46 118.5 23 c 128,-1,150
 88 0 88 0 57 0 c 0,151,152
 28 0 28 0 13 17 c 0,153,154
 -1 33 -1 33 -1 42 c 0,155,156
 -0 71 -0 71 11 75 c 0,157,158
 23 79 23 79 32.5 74.5 c 128,-1,159
 42 70 42 70 41 60 c 0,160,161
 39 42 39 42 24 42 c 0,162,163
 23 42 23 42 21 42 c 1,164,165
 21 13 21 13 57 13 c 0,166,167
 65 13 65 13 71 17 c 0,168,169
 90 30 90 30 92 54 c 2,170,-1
 92 62 l 1,171,172
 76 46 76 46 63 46 c 0,173,174
 61 46 61 46 59 46 c 1,175,176
 90 65 90 65 90 111 c 1,15,-1
EndSplineSet
Validated: 3073
Substitution2: "'ss01' Style Set Simple Forms-1" uni041C.simple
Colour: ff00
EndChar

StartChar: uni041D
Encoding: 1053 1053 33
Width: 530
Flags: W
HStem: -2 14<109.163 177.43 359.163 427.43> 72 56<77.4369 123.201 327.437 373.201> 132 13<125.002 137.998> 152 13<125.002 137.998> 166 13<109.002 121.998> 269 13<29.9133 76.6485> 534 20<485.908 507.359>
VStem: 1 12<210.82 252.055> 55 21<35.8517 79.7801> 96 14<196.159 249.71> 109 13<166.002 178.998> 125 13<132.002 144.998 152.002 164.998> 131 80<224.751 460.818> 167 40<79.0337 135.443> 215 36<46.6323 125> 266 64<350.518 409.045> 305 21<35.8517 79.7801> 381 80<259.609 518.698> 417 40<79.0337 134.907> 465 36<46.6323 125>
AnchorPoint: "Yerok" 459.5 574.4 basechar 0
AnchorPoint: "Diacritic" 334 575 basechar 0
LayerCount: 3
Fore
SplineSet
125 139 m 0xff9210
 125 142 128 145 132 145 c 0
 135 145 138 142 138 139 c 0
 138 135 135 132 132 132 c 0
 128 132 125 135 125 139 c 0xff9210
125 159 m 0
 125 162 128 165 132 165 c 0
 135 165 138 162 138 159 c 0
 138 155 135 152 132 152 c 0
 128 152 125 155 125 159 c 0
109 173 m 0xffa210
 109 176 112 179 116 179 c 0
 119 179 122 176 122 173 c 0
 122 169 119 166 116 166 c 0
 112 166 109 169 109 173 c 0xffa210
56 282 m 0
 87 282 110 258 110 231 c 0
 110 204 102 189 87 169 c 0
 80 160 68 151 61 145 c 0
 53 137 50 129 50 129 c 1
 50 129 61 143 78 150 c 0
 91 155 99 157 105 157 c 0
 111 157 115 155 115 151 c 0
 115 143 84 147 59 123 c 0
 53 117 47 99 47 99 c 1
 46 100 27 109 27 129 c 0
 27 160 50 175 50 200 c 0
 50 212 44 219 44 219 c 1
 44 219 44 219 45 219 c 0
 49 219 62 218 71 196 c 0
 76 183 74 173 74 173 c 1
 74 173 96 196 96 224 c 0xffc210
 96 251 77 269 54 269 c 0
 30 269 13 253 13 231 c 0
 13 213 23 207 23 205 c 0
 23 205 22 205 21 205 c 0
 7 205 1 221 1 236 c 0
 1 266 27 282 56 282 c 0
266 382 m 0xff8330
 266 397 280 406 290 410 c 1
 285 418 281 431 261 443 c 0
 246 452 232 458 219 462 c 1
 214 432 211 399 211 382 c 0xff8b30
 211 273 242 216 250 125 c 0
 250 119 251 114 251 108 c 0
 251 60 230 39 205 18 c 0
 186 2 165 -2 144 -2 c 0
 87 -2 55 20 55 79 c 0
 55 109 76 128 99 128 c 0
 119 128 133 114 133 98 c 0
 133 82 117 72 103 72 c 0
 89 72 77 80 77 80 c 1
 77 80 76 76 76 71 c 0
 76 57 80 31 106 20 c 0
 118 15 130 12 143 12 c 0
 162 12 182 19 198 35 c 0
 211 48 215 67 215 86 c 0
 215 112 207 136 207 136 c 1
 207 136 206 108 188 80 c 0
 177 62 154 47 139 47 c 0
 137 47 l 0
 137 48 167 57 167 124 c 0xff8610
 167 141 165 163 160 189 c 0
 143 274 131 300 131 382 c 0
 131 447 146 516 162 536 c 0
 173 550 195 554 214 554 c 0
 233 554 249 550 249 550 c 1
 264 545 258 532 250 534 c 0
 248 534 l 0
 237 534 228 510 222 479 c 1
 268 468 308 438 325 395 c 0
 328 388 330 383 330 377 c 0xff8b10
 330 362 316 353 306 349 c 1
 311 341 315 328 335 316 c 0
 354 305 371 299 388 295 c 1
 384 320 381 346 381 382 c 0
 381 447 396 516 412 536 c 0
 423 550 445 554 464 554 c 0
 490 554 508 552 508 541 c 0
 508 534 503 534 498 534 c 0
 474 534 461 419 461 382 c 0
 461 273 492 216 500 125 c 0
 500 119 501 114 501 108 c 0
 501 60 480 39 455 18 c 0
 436 2 415 -2 394 -2 c 0
 337 -2 305 20 305 79 c 0
 305 109 326 128 349 128 c 0
 369 128 383 114 383 98 c 0
 383 82 367 72 353 72 c 0
 339 72 327 80 327 80 c 1
 327 80 326 76 326 71 c 0xff82d0
 326 57 330 31 356 20 c 0
 368 15 380 12 393 12 c 0
 412 12 432 19 448 35 c 0
 461 48 465 67 465 86 c 0
 465 112 457 136 457 136 c 1
 457 136 456 108 438 80 c 0
 427 62 404 47 389 47 c 0
 387 47 l 0
 387 48 417 57 417 124 c 0
 417 169 398 245 391 278 c 1
 373 281 344 287 320 304 c 0
 297 320 281 334 271 364 c 0
 268 372 266 377 266 382 c 0xff8330
EndSplineSet
Validated: 1
Layer: 2
SplineSet
125 138.5 m 128,-1,1
 125 145 125 145 131.5 145 c 128,-1,2
 138 145 138 145 138 138.5 c 128,-1,3
 138 132 138 132 131.5 132 c 128,-1,0
 125 132 125 132 125 138.5 c 128,-1,1
125 158.5 m 128,-1,5
 125 165 125 165 131.5 165 c 128,-1,6
 138 165 138 165 138 158.5 c 128,-1,7
 138 152 138 152 131.5 152 c 128,-1,4
 125 152 125 152 125 158.5 c 128,-1,5
109 172.5 m 128,-1,9
 109 179 109 179 115.5 179 c 128,-1,10
 122 179 122 179 122 172.5 c 128,-1,11
 122 166 122 166 115.5 166 c 128,-1,8
 109 166 109 166 109 172.5 c 128,-1,9
24.5 258.5 m 128,-1,13
 13 248 13 248 13 232.5 c 128,-1,14
 13 217 13 217 23 205 c 1,15,-1
 21 205 l 2,16,17
 1 205 1 205 1 231.5 c 128,-1,18
 1 258 1 258 17 270 c 128,-1,19
 33 282 33 282 56 282 c 128,-1,20
 79 282 79 282 94.5 267 c 128,-1,21
 110 252 110 252 110 226 c 128,-1,22
 110 200 110 200 87 169 c 0,23,24
 83 164 83 164 61 145 c 1,25,-1
 50 129 l 1,26,27
 61 143 61 143 78.5 150 c 128,-1,28
 96 157 96 157 105.5 157 c 128,-1,29
 115 157 115 157 115 151 c 0,30,31
 115 148 115 148 106 146 c 0,32,33
 77 139 77 139 59 123 c 1,34,-1
 47 99 l 1,35,36
 27 109 27 109 27 127 c 128,-1,37
 27 145 27 145 38.5 166.5 c 128,-1,38
 50 188 50 188 50 199.5 c 128,-1,39
 50 211 50 211 44 219 c 1,40,-1
 45 219 l 2,41,42
 62 219 62 219 71 196 c 1,43,-1
 74 173 l 1,44,45
 96 196 96 196 96 220 c 128,-1,46
 96 244 96 244 84 256.5 c 128,-1,47
 72 269 72 269 54 269 c 128,-1,12
 36 269 36 269 24.5 258.5 c 128,-1,13
373.5 79.5 m 128,-1,49
 364 72 364 72 352.5 72 c 128,-1,50
 341 72 341 72 327 80 c 1,51,52
 326 76 326 76 326 71 c 0,53,54
 326 33 326 33 356 20 c 0,55,56
 375 12 375 12 400 12 c 128,-1,57
 425 12 425 12 445 32 c 128,-1,58
 465 52 465 52 465 86 c 0,59,60
 465 110 465 110 457 136 c 1,61,62
 456 108 456 108 443 87.5 c 128,-1,63
 430 67 430 67 415 57 c 128,-1,64
 400 47 400 47 389 47 c 2,65,-1
 387 47 l 1,66,67
 400 56 400 56 404 64 c 128,-1,68
 408 72 408 72 411 80 c 0,69,70
 417 94 417 94 417 124.5 c 128,-1,71
 417 155 417 155 391 278 c 1,72,73
 346 285 346 285 320 304 c 0,74,75
 282 330 282 330 271 364 c 0,76,77
 266 377 266 377 266 382 c 0,78,79
 266 400 266 400 290 410 c 1,80,81
 289 411 289 411 286 416.5 c 128,-1,82
 283 422 283 422 281 425 c 0,83,84
 267 446 267 446 219 462 c 1,85,86
 211 414 211 414 211 367.5 c 128,-1,87
 211 321 211 321 229 240 c 128,-1,88
 247 159 247 159 250 125 c 2,89,-1
 251 108 l 1,90,91
 251 75 251 75 239.5 56 c 128,-1,92
 228 37 228 37 204.5 17.5 c 128,-1,93
 181 -2 181 -2 144 -2 c 0,94,95
 55 -2 55 -2 55 79 c 0,96,97
 55 101 55 101 68 114.5 c 128,-1,98
 81 128 81 128 97.5 128 c 128,-1,99
 114 128 114 128 123.5 119 c 128,-1,100
 133 110 133 110 133 98.5 c 128,-1,101
 133 87 133 87 123.5 79.5 c 128,-1,102
 114 72 114 72 102.5 72 c 128,-1,103
 91 72 91 72 77 80 c 1,104,105
 76 76 76 76 76 71 c 0,106,107
 76 33 76 33 106 20 c 0,108,109
 125 12 125 12 150 12 c 128,-1,110
 175 12 175 12 195 32 c 128,-1,111
 215 52 215 52 215 86 c 0,112,113
 215 110 215 110 207 136 c 1,114,115
 206 108 206 108 193 87.5 c 128,-1,116
 180 67 180 67 165 57 c 128,-1,117
 150 47 150 47 139 47 c 2,118,-1
 137 47 l 1,119,120
 150 56 150 56 154 64 c 128,-1,121
 158 72 158 72 161 80 c 0,122,123
 167 94 167 94 167 123.5 c 128,-1,124
 167 153 167 153 161.5 181.5 c 128,-1,125
 156 210 156 210 149 242 c 128,-1,126
 142 274 142 274 139 288 c 0,127,128
 131 327 131 327 131 378.5 c 128,-1,129
 131 430 131 430 140.5 475.5 c 128,-1,130
 150 521 150 521 163 537.5 c 128,-1,131
 176 554 176 554 214 554 c 1,132,-1
 249 550 l 1,133,134
 263 545 263 545 259 539 c 128,-1,135
 255 533 255 533 250 534 c 1,136,-1
 248 534 l 2,137,138
 233 534 233 534 222 479 c 1,139,140
 257 471 257 471 285 449 c 128,-1,141
 313 427 313 427 325 395 c 0,142,143
 330 383 330 383 330 377 c 0,144,145
 330 359 330 359 306 349 c 1,146,147
 307 348 307 348 310 342.5 c 128,-1,148
 313 337 313 337 315 334 c 0,149,150
 332 309 332 309 388 295 c 1,151,152
 381 339 381 339 381 384.5 c 128,-1,153
 381 430 381 430 390.5 475.5 c 128,-1,154
 400 521 400 521 413 537.5 c 128,-1,155
 426 554 426 554 467 554 c 128,-1,156
 508 554 508 554 508 541 c 0,157,158
 508 534 508 534 498 534 c 0,159,160
 482 534 482 534 471.5 477.5 c 128,-1,161
 461 421 461 421 461 371 c 128,-1,162
 461 321 461 321 479 240 c 128,-1,163
 497 159 497 159 500 125 c 2,164,-1
 501 108 l 1,165,166
 501 75 501 75 489.5 56 c 128,-1,167
 478 37 478 37 454.5 17.5 c 128,-1,168
 431 -2 431 -2 394 -2 c 0,169,170
 305 -2 305 -2 305 79 c 0,171,172
 305 101 305 101 318 114.5 c 128,-1,173
 331 128 331 128 347.5 128 c 128,-1,174
 364 128 364 128 373.5 119 c 128,-1,175
 383 110 383 110 383 98.5 c 128,-1,48
 383 87 383 87 373.5 79.5 c 128,-1,49
EndSplineSet
Validated: 3073
Substitution2: "'ss01' Style Set Simple Forms-1" uni041D.simple
Colour: ff00
EndChar

